<svg width="145" height="47" viewBox="0 0 145 47" fill="none" xmlns="http://www.w3.org/2000/svg">
<g clip-path="url(#clip0_751_9516)">
<mask id="mask0_751_9516" style="mask-type:luminance" maskUnits="userSpaceOnUse" x="0" y="0" width="145" height="47">
<path d="M144.444 0H0V46.6667H144.444V0Z" fill="white"/>
</mask>
<g mask="url(#mask0_751_9516)">
<path d="M133.564 0H10.88C10.468 0 10.0561 0 9.64417 0C9.28069 0 8.94145 0 8.60221 0C7.85103 0 7.07562 0.0742706 6.32444 0.198055C5.57326 0.346596 4.84631 0.569408 4.1436 0.94076C3.46511 1.28736 2.83509 1.75774 2.302 2.30239C1.74467 2.84704 1.3085 3.49072 0.94503 4.18391C0.581557 4.90186 0.363472 5.61981 0.242315 6.41202C0.0969251 7.17949 0.0484619 7.97171 0.0484619 8.73917C0.0484619 9.08576 0.0484619 9.45712 0.0484619 9.80371V36.7639C0.0484619 37.1353 0.0484619 37.4819 0.0484619 37.8532C0.0484619 38.6207 0.121157 39.4129 0.242315 40.1804C0.387704 40.9726 0.605788 41.6905 0.94503 42.4085C1.28427 43.1017 1.74467 43.7454 2.302 44.29C2.83509 44.8594 3.46511 45.305 4.1436 45.6764C4.84631 46.0477 5.54903 46.2706 6.32444 46.4191C7.07562 46.5676 7.85103 46.5924 8.60221 46.6172C8.96568 46.6172 9.30492 46.6172 9.64417 46.6172C10.0561 46.6172 10.468 46.6172 10.88 46.6172H133.564C133.976 46.6172 134.388 46.6172 134.8 46.6172C135.14 46.6172 135.503 46.6172 135.842 46.6172C136.618 46.6172 137.369 46.5429 138.12 46.4191C138.895 46.2706 139.598 46.0477 140.301 45.6764C140.979 45.3298 141.609 44.8594 142.142 44.29C142.676 43.7454 143.136 43.1017 143.499 42.4085C143.863 41.6905 144.081 40.9726 144.202 40.1804C144.348 39.4129 144.396 38.6207 144.42 37.8532C144.42 37.4819 144.42 37.1353 144.42 36.7639C144.42 36.3431 144.42 35.9222 144.42 35.4766V11.1158C144.42 10.695 144.42 10.2741 144.42 9.85323C144.42 9.50663 144.42 9.13528 144.42 8.78868C144.396 7.99646 144.348 7.229 144.202 6.46154C144.081 5.66932 143.839 4.95137 143.499 4.23342C143.136 3.54023 142.7 2.89655 142.142 2.3519C141.609 1.80725 140.979 1.33687 140.301 0.990274C139.598 0.618921 138.895 0.39611 138.12 0.247569C137.369 0.0990274 136.593 0.0742706 135.842 0.0495137C135.503 0.0495137 135.14 0.0495137 134.8 0.0495137C134.388 0.0495137 133.976 0.0495137 133.564 0.0495137" fill="#A6A6A6"/>
<path d="M9.6442 45.6519C9.30496 45.6519 8.96572 45.6519 8.60225 45.6519C7.97222 45.6519 7.19681 45.6024 6.46987 45.4538C5.76715 45.3301 5.16136 45.1072 4.5798 44.8102C3.97401 44.5131 3.44092 44.0922 2.98052 43.6218C2.52012 43.1514 2.10818 42.6068 1.8174 41.9879C1.52663 41.3937 1.30854 40.7748 1.18738 40.0568C1.04199 39.2646 1.01776 38.4724 0.99353 37.8782C0.99353 37.6307 0.99353 36.8137 0.99353 36.8137V9.85348C0.99353 9.85348 0.99353 9.0365 0.99353 8.81369C0.99353 8.19477 1.04199 7.40255 1.18738 6.63509C1.30854 5.91714 1.50239 5.29822 1.8174 4.70405C2.10818 4.08513 2.52012 3.54048 2.98052 3.0701C3.44092 2.59972 3.99825 2.17885 4.5798 1.88177C5.16136 1.58469 5.79138 1.36188 6.46987 1.23809C7.24528 1.08955 8.02069 1.0648 8.60225 1.04004H9.6442H134.8H135.842C136.424 1.0648 137.199 1.11431 137.975 1.23809C138.653 1.36188 139.283 1.55993 139.889 1.88177C140.471 2.17885 141.004 2.57496 141.488 3.0701C141.949 3.54048 142.336 4.08513 142.651 4.70405C142.942 5.29822 143.136 5.9419 143.257 6.63509C143.403 7.37779 143.427 8.1205 143.451 8.83845C143.451 9.16029 143.451 9.53164 143.451 9.87824C143.451 10.3239 143.451 10.72 143.451 11.1408V35.5511C143.451 35.972 143.451 36.3928 143.451 36.8137C143.451 37.185 143.451 37.5316 143.451 37.903C143.451 38.5962 143.378 39.3389 143.257 40.0568C143.136 40.7748 142.942 41.4185 142.627 42.0126C142.312 42.6315 141.924 43.1762 141.464 43.6218C141.004 44.117 140.446 44.5131 139.865 44.8102C139.283 45.1072 138.677 45.3301 137.975 45.4538C137.248 45.6024 136.472 45.6271 135.842 45.6519C135.503 45.6519 135.164 45.6519 134.825 45.6519H133.589H9.66844H9.6442Z" fill="black"/>
<path d="M28.2782 23.6921C28.254 20.4738 30.8468 18.9141 30.9679 18.8398C29.4898 16.6364 27.212 16.3394 26.4124 16.3146C24.4981 16.1166 22.6323 17.4782 21.663 17.4782C20.6937 17.4782 19.1672 16.3394 17.5436 16.3641C15.4597 16.3889 13.497 17.6267 12.4308 19.533C10.2257 23.4446 11.8734 29.1882 13.9816 32.3323C15.0478 33.8672 16.2836 35.6002 17.8829 35.5507C19.4579 35.4764 20.0637 34.5109 21.978 34.5109C23.8923 34.5109 24.4254 35.5507 26.0732 35.5012C27.7694 35.4764 28.8356 33.9415 29.8775 32.3818C31.1133 30.5993 31.598 28.8663 31.6222 28.7673C31.5737 28.7673 28.3267 27.4799 28.2782 23.6426" fill="white"/>
<path d="M25.1766 14.2349C26.0247 13.1456 26.6062 11.6602 26.4366 10.1748C25.2008 10.2243 23.65 11.0413 22.7776 12.1058C22.0022 13.0466 21.2995 14.5815 21.4691 16.0174C22.8503 16.1164 24.28 15.2995 25.1766 14.2349Z" fill="white"/>
</g>
<path d="M40.709 17.1569V11.1657H38.5767V10.2002H43.9076V11.1657H41.7752V17.1569H40.709Z" fill="white"/>
<path d="M45.9916 11.0171L47.1789 9.3584H48.3663L47.0335 11.0171H45.9916ZM45.2646 14.0374H47.8574C47.8332 13.2205 47.3485 12.6758 46.5974 12.6758C45.8462 12.6758 45.3373 13.2205 45.2646 14.0374ZM48.8267 15.7209C48.5843 16.6617 47.7847 17.2311 46.5974 17.2311C45.1192 17.2311 44.2227 16.1913 44.2227 14.5078C44.2227 12.8244 45.1435 11.7598 46.5974 11.7598C48.0512 11.7598 48.8994 12.7501 48.8994 14.4088V14.7801H45.2646V14.8297C45.2888 15.7457 45.8219 16.3398 46.6458 16.3398C47.2516 16.3398 47.6878 16.117 47.8574 15.6962H48.8267V15.7209Z" fill="white"/>
<path d="M51.3225 9.85352H50.3048V17.1568H51.3225V9.85352Z" fill="white"/>
<path d="M54.4726 11.0171L55.66 9.3584H56.8473L55.5146 11.0171H54.4726ZM53.7457 14.0374H56.3385C56.3142 13.2205 55.8296 12.6758 55.0784 12.6758C54.3273 12.6758 53.8184 13.2205 53.7457 14.0374ZM57.3077 15.7209C57.0654 16.6617 56.2658 17.2311 55.0784 17.2311C53.6003 17.2311 52.7037 16.1913 52.7037 14.5078C52.7037 12.8244 53.6245 11.7598 55.0784 11.7598C56.5323 11.7598 57.3804 12.7501 57.3804 14.4088V14.7801H53.7457V14.8297C53.7699 15.7457 54.303 16.3398 55.1269 16.3398C55.7327 16.3398 56.1689 16.117 56.3385 15.6962H57.3077V15.7209Z" fill="white"/>
<path d="M62.1056 13.6162C61.9844 13.0963 61.5725 12.7249 60.894 12.7249C60.0459 12.7249 59.537 13.3934 59.537 14.5074C59.537 15.6215 60.0701 16.3147 60.894 16.3147C61.5482 16.3147 61.9844 16.0176 62.1056 15.4482H63.0991C62.9779 16.5127 62.1783 17.2307 60.894 17.2307C59.3916 17.2307 58.4708 16.1909 58.4708 14.4827C58.4708 12.7745 59.3916 11.7842 60.8698 11.7842C62.154 11.7842 62.9294 12.5516 63.0748 13.5914H62.0813L62.1056 13.6162Z" fill="white"/>
<path d="M64.4561 9.85352H65.4495V12.7501H65.5222C65.7646 12.1559 66.3219 11.8093 67.0973 11.8093C68.1877 11.8093 68.8662 12.5273 68.8662 13.7651V17.1568H67.8485V14.0127C67.8485 13.1709 67.4608 12.7501 66.7581 12.7501C65.9342 12.7501 65.4738 13.2947 65.4738 14.0869V17.1568H64.4561V9.85352Z" fill="white"/>
<path d="M73.4459 15.2257V14.78L72.1858 14.8543C71.4831 14.9038 71.1681 15.1514 71.1681 15.6218C71.1681 16.0922 71.5801 16.3645 72.1131 16.3645C72.8886 16.3645 73.4459 15.8694 73.4459 15.2257ZM70.1504 15.6713C70.1504 14.7305 70.8289 14.1859 72.0647 14.1116L73.4459 14.0373V13.5917C73.4459 13.0471 73.0824 12.7252 72.4039 12.7252C71.8466 12.7252 71.4347 12.948 71.3377 13.3194H70.3442C70.4412 12.4281 71.2893 11.834 72.4524 11.834C73.7367 11.834 74.4636 12.5024 74.4636 13.5917V17.1815H73.4943V16.4388H73.4217C73.1066 16.9587 72.5493 17.2557 71.8708 17.2557C70.8773 17.2557 70.1504 16.6368 70.1504 15.6713Z" fill="white"/>
<path d="M76.063 11.9083H77.0323V12.7252H77.1049C77.2503 12.2053 77.8319 11.834 78.4861 11.834C78.6315 11.834 78.8254 11.834 78.9466 11.8835V12.8985C78.9466 12.8985 78.5588 12.8243 78.3892 12.8243C77.6138 12.8243 77.0807 13.3194 77.0807 14.0621V17.1567H76.063V11.9083Z" fill="white"/>
<path d="M83.4778 14.4576C83.4778 13.4178 82.9447 12.7494 82.0724 12.7494C81.2 12.7494 80.7154 13.4178 80.7154 14.4576C80.7154 15.4974 81.2 16.1658 82.0724 16.1658C82.9447 16.1658 83.4778 15.4974 83.4778 14.4576ZM79.8673 17.676H80.9093C81.0062 18.0473 81.4181 18.2949 82.1208 18.2949C82.969 18.2949 83.4536 17.8988 83.4536 17.1808V16.1658H83.3809C83.0659 16.7352 82.5085 17.057 81.8058 17.057C80.4973 17.057 79.6735 16.0173 79.6735 14.4576C79.6735 12.8979 80.4973 11.8086 81.8058 11.8086C82.5085 11.8086 83.1386 12.1552 83.4294 12.7246H83.502V11.8829H84.4713V17.1808C84.4713 18.3939 83.5505 19.1366 82.0966 19.1366C80.8123 19.1366 79.9885 18.5425 79.8673 17.6512" fill="white"/>
<path d="M86.8702 14.0374H89.463C89.4388 13.2204 88.9541 12.6758 88.203 12.6758C87.4518 12.6758 86.9429 13.2204 86.8702 14.0374ZM90.4323 15.7209C90.1899 16.6616 89.3903 17.231 88.203 17.231C86.7248 17.231 85.8282 16.1912 85.8282 14.5078C85.8282 12.8243 86.7491 11.7598 88.203 11.7598C89.6568 11.7598 90.5049 12.75 90.5049 14.4087V14.7801H86.8702V14.8296C86.8944 15.7456 87.4275 16.3398 88.2514 16.3398C88.8572 16.3398 89.2934 16.117 89.463 15.6961H90.4323V15.7209Z" fill="white"/>
<path d="M91.8619 11.9083H92.8312V12.7252H92.9039C93.0493 12.2053 93.6308 11.834 94.2851 11.834C94.4305 11.834 94.6243 11.834 94.7455 11.8835V12.8985C94.7455 12.8985 94.3578 12.8243 94.1882 12.8243C93.4128 12.8243 92.8797 13.3194 92.8797 14.0621V17.1567H91.8619V11.9083Z" fill="white"/>
<path d="M99.4707 14.5322C99.4707 15.6463 99.9795 16.3147 100.852 16.3147C101.724 16.3147 102.233 15.6215 102.233 14.5322C102.233 13.4429 101.7 12.7497 100.852 12.7497C100.004 12.7497 99.4707 13.4182 99.4707 14.5322ZM98.4287 14.5322C98.4287 12.8735 99.2526 11.8337 100.561 11.8337C101.264 11.8337 101.845 12.1803 102.136 12.7497H102.209V9.87793H103.227V17.1812H102.257V16.3395H102.185C101.87 16.9089 101.288 17.2555 100.561 17.2555C99.2526 17.2555 98.4287 16.2157 98.4287 14.5322Z" fill="white"/>
<path d="M107.903 15.2257V14.78L106.643 14.8543C105.94 14.9038 105.625 15.1514 105.625 15.6218C105.625 16.0922 106.037 16.3645 106.57 16.3645C107.346 16.3645 107.903 15.8694 107.903 15.2257ZM104.608 15.6713C104.608 14.7305 105.286 14.1859 106.522 14.1116L107.927 14.0373V13.5917C107.927 13.0471 107.564 12.7252 106.885 12.7252C106.328 12.7252 105.916 12.948 105.819 13.3194H104.826C104.923 12.4281 105.771 11.834 106.934 11.834C108.218 11.834 108.945 12.5024 108.945 13.5917V17.1815H107.976V16.4388H107.903C107.588 16.9587 107.031 17.2557 106.352 17.2557C105.359 17.2557 104.632 16.6368 104.632 15.6713" fill="white"/>
<path d="M110.496 11.9076H111.465V12.7494H111.538C111.78 12.1552 112.289 11.8086 113.065 11.8086C114.203 11.8086 114.858 12.5018 114.858 13.7644V17.1561H113.84V14.012C113.84 13.1702 113.477 12.7494 112.725 12.7494C111.974 12.7494 111.49 13.2692 111.49 14.0862V17.1561H110.472V11.9076H110.496Z" fill="white"/>
<path d="M118.299 11.7842C119.462 11.7842 120.213 12.3288 120.31 13.2696H119.34C119.244 12.8735 118.88 12.6259 118.299 12.6259C117.717 12.6259 117.305 12.8982 117.305 13.3191C117.305 13.6409 117.572 13.839 118.129 13.9628L118.977 14.1608C119.946 14.3836 120.407 14.8293 120.407 15.5967C120.407 16.587 119.51 17.2554 118.274 17.2554C117.038 17.2554 116.263 16.686 116.166 15.77H117.184C117.305 16.1661 117.693 16.4385 118.299 16.4385C118.904 16.4385 119.389 16.1414 119.389 15.7205C119.389 15.3987 119.147 15.2006 118.638 15.0768L117.741 14.854C116.772 14.6065 116.312 14.1608 116.312 13.3934C116.312 12.4526 117.16 11.8089 118.299 11.8089" fill="white"/>
<path d="M42.3083 21.0684H40.1759V35.5511H42.3083V21.0684Z" fill="white"/>
<path d="M44.877 26.3663L46.0401 21.0684H48.0998L46.6943 26.3663H44.877Z" fill="white"/>
<path d="M51.274 29.8323H55.563L53.4548 23.4698H53.4064L51.2982 29.8323H51.274ZM56.1203 31.6395H50.7166L49.4081 35.5511H47.1304L52.2432 21.0684H54.6179L59.7308 35.5511H57.4046L56.1203 31.6395Z" fill="white"/>
<path d="M68.6238 30.2779C68.6238 28.1488 67.5334 26.7376 65.8857 26.7376C64.2379 26.7376 63.1717 28.1735 63.1717 30.2779C63.1717 32.3822 64.2622 33.8181 65.8857 33.8181C67.5092 33.8181 68.6238 32.4317 68.6238 30.2779ZM70.8047 30.2779C70.8047 33.5705 69.0843 35.6748 66.4915 35.6748C65.0133 35.6748 63.8502 35.0064 63.2444 33.8181H63.196V39.0418H61.0636V24.9799H63.1233V26.7376H63.1717C63.7533 25.5988 65.0133 24.8809 66.4672 24.8809C69.0842 24.8809 70.8289 27.0099 70.8289 30.2779" fill="white"/>
<path d="M79.9885 30.2779C79.9885 28.1488 78.8981 26.7376 77.2503 26.7376C75.6026 26.7376 74.5364 28.1735 74.5364 30.2779C74.5364 32.3822 75.6268 33.8181 77.2503 33.8181C78.8738 33.8181 79.9885 32.4317 79.9885 30.2779ZM82.1693 30.2779C82.1693 33.5705 80.4489 35.6748 77.8561 35.6748C76.378 35.6748 75.2149 35.0064 74.6091 33.8181H74.5606V39.0418H72.4282V24.9799H74.4879V26.7376H74.5364C75.1179 25.5988 76.378 24.8809 77.8319 24.8809C80.4489 24.8809 82.1935 27.0099 82.1935 30.2779" fill="white"/>
<path d="M89.681 31.5159C89.8264 32.9518 91.2076 33.8926 93.0734 33.8926C94.9393 33.8926 96.1509 32.9518 96.1509 31.6644C96.1509 30.5504 95.3754 29.8572 93.5338 29.4116L91.6922 28.966C89.0995 28.3223 87.8879 27.0844 87.8879 25.0544C87.8879 22.5539 90.0203 20.8457 93.0492 20.8457C96.0782 20.8457 98.0894 22.5539 98.1621 25.0544H96.0297C95.9085 23.6185 94.7212 22.7272 93.025 22.7272C91.3288 22.7272 90.1414 23.6185 90.1414 24.9058C90.1414 25.9209 90.8926 26.5398 92.71 26.9854L94.285 27.3815C97.1928 28.0747 98.4044 29.2878 98.4044 31.3921C98.4044 34.0906 96.2962 35.7988 92.9281 35.7988C89.778 35.7988 87.6698 34.1401 87.5244 31.5159H89.7053H89.681Z" fill="white"/>
<path d="M102.984 22.5039V25.0043H104.947V26.7126H102.984V32.5304C102.984 33.4464 103.372 33.8673 104.244 33.8673C104.462 33.8673 104.802 33.8425 104.947 33.8178V35.526C104.705 35.5755 104.244 35.625 103.76 35.625C101.676 35.625 100.852 34.8328 100.852 32.778V26.7126H99.3495V25.0043H100.852V22.5039H102.984Z" fill="white"/>
<path d="M113.719 30.2772C113.719 27.9996 112.701 26.6627 110.981 26.6627C109.26 26.6627 108.242 28.0243 108.242 30.2772C108.242 32.5301 109.26 33.8917 110.981 33.8917C112.701 33.8917 113.719 32.5549 113.719 30.2772ZM106.086 30.2772C106.086 26.9598 108 24.8555 110.981 24.8555C113.961 24.8555 115.875 26.935 115.875 30.2772C115.875 33.6194 113.985 35.699 110.981 35.699C107.976 35.699 106.086 33.6194 106.086 30.2772Z" fill="white"/>
<path d="M117.644 25.0043H119.656V26.8115H119.704C120.019 25.6232 120.964 24.9053 122.2 24.9053C122.491 24.9053 122.757 24.9548 122.927 24.9795V27.0096C122.757 26.9353 122.394 26.8858 121.982 26.8858C120.625 26.8858 119.777 27.8266 119.777 29.312V35.5755H117.644V25.0043Z" fill="white"/>
<path d="M125.52 29.3123H130.681C130.632 27.7031 129.615 26.6386 128.137 26.6386C126.658 26.6386 125.617 27.7279 125.495 29.3123M132.668 32.4565C132.377 34.3627 130.56 35.6996 128.209 35.6996C125.205 35.6996 123.339 33.6448 123.339 30.3521C123.339 27.0595 125.205 24.8809 128.112 24.8809C131.02 24.8809 132.765 26.8862 132.765 30.0798V30.8225H125.471V30.9463C125.471 32.7535 126.586 33.9419 128.258 33.9419C129.445 33.9419 130.366 33.3725 130.657 32.4565H132.668Z" fill="white"/>
</g>
<defs>
<clipPath id="clip0_751_9516">
<rect width="144.444" height="46.6667" fill="white"/>
</clipPath>
</defs>
</svg>
