<svg width="145" height="45" viewBox="0 0 145 45" fill="none" xmlns="http://www.w3.org/2000/svg">
<g clip-path="url(#clip0_751_9550)">
<path d="M139.108 45.0001H5.35905C2.40703 45.0001 0 42.5008 0 39.4357V6.12006C0 3.05493 2.40703 0.555664 5.35905 0.555664H139.108C142.06 0.555664 144.467 3.05493 144.467 6.12006V39.4593C144.467 42.5244 142.06 45.0237 139.108 45.0237" fill="black"/>
<path d="M139.108 0.555664H5.35905C2.40703 0.555664 0 3.05493 0 6.12006V39.4593C0 42.5244 2.40703 45.0237 5.35905 45.0237H139.108C142.06 45.0237 144.467 42.5244 144.467 39.4593V6.12006C144.444 3.05493 142.037 0.555664 139.108 0.555664ZM139.108 1.45163C141.583 1.45163 143.604 3.55006 143.604 6.12006V39.4593C143.604 42.0293 141.583 44.1277 139.108 44.1277H5.35905C2.88389 44.1277 0.862897 42.0293 0.862897 39.4593V6.12006C0.862897 3.55006 2.86119 1.45163 5.35905 1.45163H139.108Z" fill="#A6A6A6"/>
<path d="M114.425 33.8951H116.423V20.0077H114.425V33.8951ZM132.409 25.0062L130.116 31.0186H130.048L127.663 25.0062H125.506L129.071 33.4235L127.05 38.1156H129.139L134.635 25.0298H132.409V25.0062ZM121.078 32.3154C120.42 32.3154 119.511 31.9853 119.511 31.1365C119.511 30.0755 120.647 29.6511 121.623 29.6511C122.509 29.6511 122.917 29.8397 123.44 30.1226C123.281 31.4194 122.213 32.3154 121.055 32.3154M121.305 24.6997C119.852 24.6997 118.353 25.3599 117.74 26.8217L119.511 27.5998C119.897 26.8217 120.601 26.5859 121.328 26.5859C122.372 26.5859 123.417 27.2225 123.417 28.3779V28.5193C123.054 28.3071 122.282 27.977 121.328 27.977C119.42 27.977 117.468 29.0616 117.468 31.1129C117.468 32.9756 119.034 34.178 120.783 34.178C122.123 34.178 122.872 33.565 123.326 32.8105H123.394V33.8951H125.324V28.5665C125.324 26.0908 123.553 24.7233 121.26 24.7233M108.929 26.7274H106.091V21.9647H108.929C110.428 21.9647 111.268 23.2379 111.268 24.346C111.268 25.4542 110.428 26.7274 108.929 26.7274ZM108.884 20.0313H104.093V33.9187H106.091V28.6608H108.884C111.109 28.6608 113.267 26.9868 113.267 24.346C113.267 21.7053 111.087 20.0313 108.884 20.0313ZM82.7927 32.339C81.4075 32.339 80.2494 31.1365 80.2494 29.486C80.2494 27.8356 81.4075 26.6095 82.7927 26.6095C84.1778 26.6095 85.2224 27.8356 85.2224 29.486C85.2224 31.1365 84.1551 32.339 82.7927 32.339ZM85.0862 25.8079H85.018C84.5639 25.242 83.701 24.7469 82.611 24.7469C80.3402 24.7469 78.2511 26.8217 78.2511 29.486C78.2511 32.1503 80.3402 34.2016 82.611 34.2016C83.701 34.2016 84.5639 33.7065 85.018 33.1406H85.0862V33.8244C85.0862 35.6399 84.1551 36.6066 82.6564 36.6066C81.4302 36.6066 80.6808 35.687 80.3629 34.9325L78.6144 35.687C79.114 36.9367 80.4311 38.4692 82.6564 38.4692C84.9953 38.4692 86.9709 37.031 86.9709 33.5414V25.0534H85.0862V25.8314V25.8079ZM88.3561 33.9187H90.3544V20.0313H88.3561V33.9187ZM93.3064 29.3446C93.261 27.5291 94.6689 26.5859 95.6907 26.5859C96.4855 26.5859 97.144 27.0103 97.3711 27.5998L93.3064 29.3446ZM99.5056 27.7648C99.1196 26.7038 97.9842 24.7469 95.5999 24.7469C93.2156 24.7469 91.3081 26.6567 91.3081 29.4625C91.3081 32.1032 93.2383 34.178 95.827 34.178C97.9161 34.178 99.1196 32.8577 99.6192 32.0796L98.075 30.995C97.5528 31.7731 96.8488 32.3154 95.827 32.3154C94.8051 32.3154 94.0785 31.8202 93.6243 30.8771L99.71 28.26L99.5056 27.7177V27.7648ZM51.0244 26.2087V28.2128H55.6341C55.4979 29.3446 55.1345 30.1698 54.5896 30.7357C53.9083 31.443 52.8638 32.1975 51.0244 32.1975C48.1859 32.1975 45.9606 29.8161 45.9606 26.8689C45.9606 23.9216 48.1859 21.5403 51.0244 21.5403C52.5686 21.5403 53.6812 22.1533 54.4987 22.9785L55.8612 21.5638C54.7031 20.4085 53.1817 19.5361 51.0244 19.5361C47.1187 19.5361 43.8488 22.837 43.8488 26.8689C43.8488 30.9007 47.1187 34.2016 51.0244 34.2016C53.1363 34.2016 54.7031 33.4943 55.952 32.1503C57.2237 30.83 57.6324 28.9673 57.6324 27.4583C57.6324 26.9868 57.587 26.5624 57.5189 26.2087H51.0244ZM62.8779 32.339C61.4927 32.339 60.3119 31.1601 60.3119 29.4625C60.3119 27.7648 61.4927 26.6095 62.8779 26.6095C64.2631 26.6095 65.4439 27.7648 65.4439 29.4625C65.4439 31.1601 64.2631 32.339 62.8779 32.339ZM62.8779 24.7469C60.3573 24.7469 58.3136 26.7274 58.3136 29.4625C58.3136 32.1975 60.3573 34.178 62.8779 34.178C65.3985 34.178 67.4422 32.1739 67.4422 29.4625C67.4422 26.751 65.3985 24.7469 62.8779 24.7469ZM72.8466 32.339C71.4615 32.339 70.2807 31.1601 70.2807 29.4625C70.2807 27.7648 71.4615 26.6095 72.8466 26.6095C74.2318 26.6095 75.4126 27.7648 75.4126 29.4625C75.4126 31.1601 74.2318 32.339 72.8466 32.339ZM72.8466 24.7469C70.3261 24.7469 68.2824 26.7274 68.2824 29.4625C68.2824 32.1975 70.3261 34.178 72.8466 34.178C75.3672 34.178 77.4109 32.1739 77.4109 29.4625C77.4109 26.751 75.3672 24.7469 72.8466 24.7469Z" fill="white"/>
<path d="M11.1723 8.94978C10.8544 9.30345 10.6727 9.82216 10.6727 10.5059V35.0506C10.6727 35.7343 10.8544 36.2766 11.1723 36.6067L11.2404 36.6775L24.4791 22.9315V22.6014L11.2404 8.85547L11.1723 8.9262V8.94978Z" fill="#A6A6A6"/>
<mask id="mask0_751_9550" style="mask-type:luminance" maskUnits="userSpaceOnUse" x="24" y="18" width="12" height="10">
<path d="M24.5017 22.625V22.9551L28.907 27.5293L28.9979 27.4585L34.2207 24.3698C35.7194 23.4974 35.7194 22.0356 34.2207 21.1632L28.9979 18.0745L28.907 18.0273L24.5017 22.625Z" fill="white"/>
</mask>
<g mask="url(#mask0_751_9550)">
<path d="M35.7199 18.0273H24.4795V27.5293H35.7199V18.0273Z" fill="#A6A6A6"/>
</g>
<mask id="mask1_751_9550" style="mask-type:luminance" maskUnits="userSpaceOnUse" x="0" y="0" width="145" height="45">
<path d="M144.444 0.555664H0V45.0001H144.444V0.555664Z" fill="white"/>
</mask>
<g mask="url(#mask1_751_9550)">
<path d="M28.9979 27.4576L24.479 22.7656L11.1495 36.6059C11.6491 37.1482 12.4439 37.2189 13.3749 36.6766L28.9979 27.4576Z" fill="#A6A6A6"/>
</g>
<mask id="mask2_751_9550" style="mask-type:luminance" maskUnits="userSpaceOnUse" x="11" y="22" width="19" height="16">
<path d="M11.1722 36.6059C11.6718 37.1482 12.4893 37.2189 13.3976 36.6766L29.0206 27.4576L24.5017 22.7656L11.1722 36.6059Z" fill="white"/>
</mask>
<g mask="url(#mask2_751_9550)">
<path d="M29.0206 22.7656H11.1722V37.2189H29.0206V22.7656Z" fill="#68696D"/>
</g>
<mask id="mask3_751_9550" style="mask-type:luminance" maskUnits="userSpaceOnUse" x="11" y="8" width="19" height="15">
<path d="M11.1722 8.94896L24.5017 22.7892L29.0206 18.0972L13.3976 8.87822C12.9662 8.61887 12.5574 8.50098 12.1941 8.50098C11.7854 8.50098 11.422 8.66602 11.1722 8.94896Z" fill="white"/>
</mask>
<g mask="url(#mask3_751_9550)">
<path d="M29.0206 8.33594H11.1722V22.7892H29.0206V8.33594Z" fill="white"/>
</g>
<path d="M44.9842 14.1833H46.1196C46.869 14.1833 47.4367 13.9711 47.8681 13.5231C48.2996 13.0751 48.5266 12.4621 48.5266 11.6604C48.5266 10.8588 48.2996 10.2458 47.8681 9.82135C47.4367 9.39695 46.8463 9.16117 46.1196 9.16117H44.9842V14.1833ZM44.1667 15.0085V8.33594H46.1196C47.0961 8.33594 47.8908 8.64245 48.4812 9.25548C49.0716 9.8685 49.3668 10.6702 49.3668 11.6604C49.3668 12.6507 49.0716 13.4524 48.4812 14.0654C47.8908 14.6784 47.0961 14.9849 46.1196 14.9849H44.1667V15.0085Z" fill="white"/>
<path d="M44.9842 14.1833H46.1196C46.869 14.1833 47.4367 13.9711 47.8681 13.5231C48.2996 13.0751 48.5267 12.4621 48.5267 11.6604C48.5267 10.8588 48.2996 10.2458 47.8681 9.82135C47.4367 9.39695 46.8463 9.16117 46.1196 9.16117H44.9842V14.1833ZM44.1667 15.0085V8.33594H46.1196C47.0961 8.33594 47.8908 8.64245 48.4812 9.25548C49.0716 9.8685 49.3668 10.6702 49.3668 11.6604C49.3668 12.6507 49.0716 13.4524 48.4812 14.0654C47.8908 14.6784 47.0961 14.9849 46.1196 14.9849H44.1667V15.0085Z" stroke="white" stroke-width="0.14" stroke-miterlimit="10"/>
<path d="M51.3651 8.33594H50.5476V15.0085H51.3651V8.33594Z" fill="white"/>
<path d="M51.3651 8.33594H50.5476V15.0085H51.3651V8.33594Z" stroke="white" stroke-width="0.14" stroke-miterlimit="10"/>
<path d="M54.6577 15.15C54.1809 15.15 53.7267 14.9849 53.2953 14.6784C52.8411 14.3719 52.5686 13.9239 52.4097 13.3345L53.159 13.028C53.2499 13.3816 53.4315 13.7117 53.704 13.9475C53.9765 14.2069 54.2944 14.3247 54.635 14.3247C54.9757 14.3247 55.2936 14.2304 55.5433 14.0418C55.7931 13.8532 55.9294 13.5702 55.9294 13.2402C55.9294 12.8629 55.7931 12.58 55.5433 12.3914C55.2936 12.1791 54.8848 11.9905 54.3398 11.8255C53.7721 11.6369 53.3407 11.4011 53.0455 11.0946C52.7503 10.8116 52.614 10.4344 52.614 9.96282C52.614 9.49126 52.7957 9.06686 53.159 8.71319C53.5224 8.35952 53.9992 8.1709 54.5896 8.1709C55.1346 8.1709 55.5661 8.31237 55.9067 8.5953C56.2473 8.87824 56.4744 9.18475 56.5652 9.51484L55.8158 9.84493C55.7704 9.63273 55.6342 9.44411 55.4071 9.25548C55.2027 9.06686 54.9302 8.97255 54.5896 8.97255C54.2717 8.97255 53.9992 9.06686 53.7721 9.25548C53.5451 9.44411 53.4315 9.65631 53.4315 9.93924C53.4315 10.175 53.5451 10.3872 53.7494 10.5758C53.9538 10.7409 54.2717 10.9059 54.6577 11.0238C54.9757 11.1417 55.2481 11.236 55.4525 11.3303C55.6569 11.4247 55.884 11.5661 56.0883 11.7312C56.3154 11.8962 56.4744 12.1084 56.5879 12.3442C56.7014 12.58 56.7469 12.8629 56.7469 13.193C56.7469 13.5231 56.6787 13.806 56.5652 14.0654C56.429 14.3247 56.27 14.5134 56.0429 14.6784C55.8385 14.8199 55.6115 14.9378 55.3617 15.0085C55.1119 15.0792 54.8621 15.1264 54.6123 15.1264" fill="white"/>
<path d="M54.6577 15.15C54.1809 15.15 53.7267 14.9849 53.2953 14.6784C52.8411 14.3719 52.5686 13.9239 52.4097 13.3345L53.159 13.028C53.2499 13.3816 53.4315 13.7117 53.704 13.9475C53.9765 14.2069 54.2944 14.3247 54.635 14.3247C54.9757 14.3247 55.2936 14.2304 55.5433 14.0418C55.7931 13.8532 55.9294 13.5702 55.9294 13.2402C55.9294 12.8629 55.7931 12.58 55.5433 12.3914C55.2936 12.1791 54.8848 11.9905 54.3398 11.8255C53.7721 11.6369 53.3407 11.4011 53.0455 11.0946C52.7503 10.8116 52.614 10.4344 52.614 9.96282C52.614 9.49126 52.7957 9.06686 53.159 8.71319C53.5224 8.35952 53.9992 8.1709 54.5896 8.1709C55.1346 8.1709 55.5661 8.31237 55.9067 8.5953C56.2473 8.87824 56.4744 9.18475 56.5652 9.51484L55.8158 9.84493C55.7704 9.63273 55.6342 9.44411 55.4071 9.25548C55.2027 9.06686 54.9302 8.97255 54.5896 8.97255C54.2717 8.97255 53.9992 9.06686 53.7721 9.25548C53.5451 9.44411 53.4315 9.65631 53.4315 9.93924C53.4315 10.175 53.5451 10.3872 53.7494 10.5758C53.9538 10.7409 54.2717 10.9059 54.6577 11.0238C54.9757 11.1417 55.2481 11.236 55.4525 11.3303C55.6569 11.4247 55.884 11.5661 56.0883 11.7312C56.3154 11.8962 56.4744 12.1084 56.5879 12.3442C56.7014 12.58 56.7469 12.8629 56.7469 13.193C56.7469 13.5231 56.6787 13.806 56.5652 14.0654C56.429 14.3247 56.27 14.5134 56.0429 14.6784C55.8385 14.8199 55.6115 14.9378 55.3617 15.0085C55.1119 15.0792 54.8621 15.1264 54.6123 15.1264L54.6577 15.15Z" stroke="white" stroke-width="0.14" stroke-miterlimit="10"/>
<path d="M58.7905 11.4719H60.1757C60.5163 11.4719 60.7888 11.3541 61.0159 11.1183C61.2202 10.8825 61.3338 10.5996 61.3338 10.3166C61.3338 10.0337 61.2202 9.75076 61.0159 9.51498C60.8115 9.2792 60.5163 9.16131 60.1757 9.16131H58.7905V11.4955V11.4719ZM58.7905 14.9851H57.973V8.3125H60.153C60.698 8.3125 61.1748 8.50112 61.5609 8.87837C61.9696 9.25562 62.1513 9.72718 62.1513 10.293C62.1513 10.8589 61.9469 11.3305 61.5609 11.7077C61.1748 12.085 60.698 12.2736 60.153 12.2736H58.7905V14.9615V14.9851Z" fill="white"/>
<path d="M58.7905 11.4719H60.1757C60.5163 11.4719 60.7888 11.3541 61.0159 11.1183C61.2202 10.8825 61.3338 10.5996 61.3338 10.3166C61.3338 10.0337 61.2202 9.75076 61.0159 9.51498C60.8115 9.2792 60.5163 9.16131 60.1757 9.16131H58.7905V11.4955V11.4719ZM58.7905 14.9851H57.973V8.3125H60.153C60.698 8.3125 61.1748 8.50112 61.5609 8.87837C61.9696 9.25562 62.1513 9.72718 62.1513 10.293C62.1513 10.8589 61.9469 11.3305 61.5609 11.7077C61.1748 12.085 60.698 12.2736 60.153 12.2736H58.7905V14.9615V14.9851Z" stroke="white" stroke-width="0.14" stroke-miterlimit="10"/>
<path d="M64.354 13.5702C64.8308 14.0654 65.4212 14.3247 66.1025 14.3247C66.7837 14.3247 67.3741 14.0654 67.851 13.5702C68.3278 13.0751 68.5776 12.4385 68.5776 11.6604C68.5776 10.8824 68.3505 10.2458 67.851 9.75062C67.3741 9.25548 66.7837 8.99613 66.1025 8.99613C65.4212 8.99613 64.8308 9.25548 64.354 9.75062C63.8771 10.2458 63.65 10.8824 63.65 11.6604C63.65 12.4385 63.8998 13.0751 64.354 13.5702ZM68.4641 14.1361C67.8282 14.8199 67.0562 15.15 66.1025 15.15C65.1487 15.15 64.3767 14.8199 63.7408 14.1361C63.105 13.4524 62.7871 12.6507 62.7871 11.6604C62.7871 10.6702 63.105 9.86851 63.7408 9.18475C64.3767 8.50099 65.1487 8.1709 66.1025 8.1709C67.0562 8.1709 67.8282 8.50099 68.4414 9.18475C69.0772 9.86851 69.3951 10.6937 69.3951 11.6604C69.3951 12.6271 69.0772 13.4524 68.4414 14.1361" fill="white"/>
<path d="M64.354 13.5702C64.8308 14.0654 65.4212 14.3247 66.1025 14.3247C66.7837 14.3247 67.3741 14.0654 67.851 13.5702C68.3278 13.0751 68.5776 12.4385 68.5776 11.6604C68.5776 10.8824 68.3505 10.2458 67.851 9.75062C67.3741 9.25548 66.7837 8.99613 66.1025 8.99613C65.4212 8.99613 64.8308 9.25548 64.354 9.75062C63.8771 10.2458 63.65 10.8824 63.65 11.6604C63.65 12.4385 63.8998 13.0751 64.354 13.5702ZM68.4641 14.1361C67.8282 14.8199 67.0562 15.15 66.1025 15.15C65.1487 15.15 64.3767 14.8199 63.7408 14.1361C63.105 13.4524 62.7871 12.6507 62.7871 11.6604C62.7871 10.6702 63.105 9.86851 63.7408 9.18475C64.3767 8.50099 65.1487 8.1709 66.1025 8.1709C67.0562 8.1709 67.8282 8.50099 68.4414 9.18475C69.0772 9.86851 69.3951 10.6937 69.3951 11.6604C69.3951 12.6271 69.0772 13.4524 68.4414 14.1361H68.4641Z" stroke="white" stroke-width="0.14" stroke-miterlimit="10"/>
<path d="M70.5532 15.0085V8.33594H71.5751L74.686 13.5231H74.7315L74.686 12.2263V8.33594H75.5035V15.0085H74.6633L71.3934 9.56199H71.348L71.3934 10.8352V15.0085H70.5532Z" fill="white"/>
<path d="M70.5532 15.0085V8.33594H71.5751L74.686 13.5231H74.7315L74.686 12.2263V8.33594H75.5035V15.0085H74.6633L71.3934 9.56199H71.348L71.3934 10.8352V15.0085H70.5532Z" stroke="white" stroke-width="0.14" stroke-miterlimit="10"/>
<path d="M77.797 8.33594H76.9795V15.0085H77.797V8.33594Z" fill="white"/>
<path d="M77.797 8.33594H76.9795V15.0085H77.797V8.33594Z" stroke="white" stroke-width="0.14" stroke-miterlimit="10"/>
<path d="M80.1131 14.1834H81.7708C82.0887 14.1834 82.3385 14.0655 82.5429 13.8297C82.7472 13.594 82.8381 13.3582 82.8381 13.0752C82.8381 12.7923 82.7245 12.5565 82.5202 12.3208C82.3158 12.085 82.0433 11.9671 81.7254 11.9671H80.0904V14.1598L80.1131 14.1834ZM80.1131 11.189H81.6119C81.9298 11.189 82.1796 11.0711 82.3612 10.8589C82.5429 10.6467 82.6337 10.4109 82.6337 10.1516C82.6337 9.89222 82.5429 9.65644 82.3612 9.44424C82.1796 9.23204 81.9298 9.11415 81.6346 9.11415H80.0904V11.1419L80.1131 11.189ZM79.2957 14.9851V8.3125H81.6119C82.1114 8.3125 82.5429 8.47755 82.9062 8.83122C83.2695 9.18488 83.4512 9.60929 83.4512 10.128C83.4512 10.4345 83.3831 10.7175 83.2241 10.9532C83.0652 11.189 82.8608 11.3776 82.5883 11.4955V11.5427C82.9062 11.6606 83.156 11.8492 83.3604 12.1086C83.5647 12.3915 83.6556 12.698 83.6556 13.0517C83.6556 13.594 83.4739 14.0419 83.0652 14.4192C82.6791 14.7729 82.225 14.9615 81.7027 14.9615H79.2502L79.2957 14.9851Z" fill="white"/>
<path d="M80.1131 14.1834H81.7708C82.0887 14.1834 82.3385 14.0655 82.5429 13.8297C82.7472 13.594 82.8381 13.3582 82.8381 13.0752C82.8381 12.7923 82.7245 12.5565 82.5202 12.3208C82.3158 12.085 82.0433 11.9671 81.7254 11.9671H80.0904V14.1598L80.1131 14.1834ZM80.1131 11.189H81.6119C81.9298 11.189 82.1796 11.0711 82.3612 10.8589C82.5429 10.6467 82.6337 10.4109 82.6337 10.1516C82.6337 9.89222 82.5429 9.65644 82.3612 9.44424C82.1796 9.23204 81.9298 9.11415 81.6346 9.11415H80.0904V11.1419L80.1131 11.189ZM79.2957 14.9851V8.3125H81.6119C82.1114 8.3125 82.5429 8.47755 82.9062 8.83122C83.2695 9.18488 83.4512 9.60929 83.4512 10.128C83.4512 10.4345 83.3831 10.7175 83.2241 10.9532C83.0652 11.189 82.8608 11.3776 82.5883 11.4955V11.5427C82.9062 11.6606 83.156 11.8492 83.3604 12.1086C83.5647 12.3915 83.6556 12.698 83.6556 13.0517C83.6556 13.594 83.4739 14.0419 83.0652 14.4192C82.6791 14.7729 82.225 14.9615 81.7027 14.9615H79.2502L79.2957 14.9851Z" stroke="white" stroke-width="0.14" stroke-miterlimit="10"/>
<path d="M84.791 15.0085V8.33594H85.6085V14.1833H88.3788V15.0085H84.791Z" fill="white"/>
<path d="M84.791 15.0085V8.33594H85.6085V14.1833H88.3788V15.0085H84.791Z" stroke="white" stroke-width="0.14" stroke-miterlimit="10"/>
<path d="M93.1701 9.16117H90.2408V11.2596H92.8976V12.0613H90.2408V14.1833H93.1701V15.0085H89.4233V8.33594H93.1701V9.16117Z" fill="white"/>
<path d="M93.1701 9.16117H90.2408V11.2596H92.8976V12.0613H90.2408V14.1833H93.1701V15.0085H89.4233V8.33594H93.1701V9.16117Z" stroke="white" stroke-width="0.14" stroke-miterlimit="10"/>
<path d="M98.1659 15.15C97.6891 15.15 97.2349 14.9849 96.8035 14.6784C96.372 14.3719 96.0541 13.9239 95.9178 13.3345L96.6672 13.028C96.758 13.3816 96.9397 13.7117 97.2122 13.9475C97.4847 14.2069 97.8026 14.3247 98.1432 14.3247C98.4838 14.3247 98.8017 14.2304 99.0515 14.0418C99.3013 13.8532 99.4376 13.5702 99.4376 13.2402C99.4376 12.8629 99.3013 12.58 99.0515 12.3914C98.8017 12.1791 98.393 11.9905 97.848 11.8255C97.2803 11.6369 96.8489 11.4011 96.5537 11.0946C96.2585 10.8116 96.1222 10.4344 96.1222 9.96282C96.1222 9.49126 96.3039 9.06686 96.6672 8.71319C97.0305 8.35952 97.5074 8.1709 98.0978 8.1709C98.6428 8.1709 99.0742 8.31237 99.4148 8.5953C99.7555 8.87824 99.9825 9.18475 100.073 9.51484L99.324 9.84493C99.2786 9.63273 99.1424 9.44411 98.938 9.25548C98.7336 9.06686 98.4611 8.97255 98.1205 8.97255C97.8026 8.97255 97.5301 9.06686 97.303 9.25548C97.0759 9.44411 96.9624 9.65631 96.9624 9.93924C96.9624 10.175 97.0759 10.3872 97.2803 10.5758C97.4847 10.7409 97.7799 10.9059 98.1886 11.0238C98.5065 11.1417 98.779 11.236 98.9834 11.3303C99.1878 11.4247 99.4148 11.5661 99.6192 11.7312C99.8463 11.8962 100.005 12.1084 100.119 12.3442C100.232 12.58 100.278 12.8629 100.278 13.193C100.278 13.5231 100.21 13.806 100.096 14.0654C99.9825 14.3247 99.8009 14.5134 99.5965 14.6784C99.3921 14.8199 99.1651 14.9378 98.9153 15.0085C98.6655 15.0792 98.4157 15.1264 98.1659 15.1264" fill="white"/>
<path d="M98.1659 15.15C97.6891 15.15 97.2349 14.9849 96.8035 14.6784C96.372 14.3719 96.0541 13.9239 95.9178 13.3345L96.6672 13.028C96.758 13.3816 96.9397 13.7117 97.2122 13.9475C97.4847 14.2069 97.8026 14.3247 98.1432 14.3247C98.4838 14.3247 98.8017 14.2304 99.0515 14.0418C99.3013 13.8532 99.4376 13.5702 99.4376 13.2402C99.4376 12.8629 99.3013 12.58 99.0515 12.3914C98.8017 12.1791 98.393 11.9905 97.848 11.8255C97.2803 11.6369 96.8489 11.4011 96.5537 11.0946C96.2585 10.8116 96.1222 10.4344 96.1222 9.96282C96.1222 9.49126 96.3039 9.06686 96.6672 8.71319C97.0305 8.35952 97.5074 8.1709 98.0978 8.1709C98.6428 8.1709 99.0742 8.31237 99.4148 8.5953C99.7555 8.87824 99.9825 9.18475 100.073 9.51484L99.324 9.84493C99.2786 9.63273 99.1424 9.44411 98.938 9.25548C98.7336 9.06686 98.4611 8.97255 98.1205 8.97255C97.8026 8.97255 97.5301 9.06686 97.303 9.25548C97.0759 9.44411 96.9624 9.65631 96.9624 9.93924C96.9624 10.175 97.0759 10.3872 97.2803 10.5758C97.4847 10.7409 97.7799 10.9059 98.1886 11.0238C98.5065 11.1417 98.779 11.236 98.9834 11.3303C99.1878 11.4247 99.4148 11.5661 99.6192 11.7312C99.8463 11.8962 100.005 12.1084 100.119 12.3442C100.232 12.58 100.278 12.8629 100.278 13.193C100.278 13.5231 100.21 13.806 100.096 14.0654C99.9825 14.3247 99.8009 14.5134 99.5965 14.6784C99.3921 14.8199 99.1651 14.9378 98.9153 15.0085C98.6655 15.0792 98.4157 15.1264 98.1659 15.1264V15.15Z" stroke="white" stroke-width="0.14" stroke-miterlimit="10"/>
<path d="M103.729 15.1501C103.025 15.1501 102.458 14.9143 102.003 14.4192C101.572 13.9476 101.345 13.311 101.345 12.5094V8.3125H102.162V12.533C102.162 13.0517 102.299 13.4761 102.571 13.8062C102.844 14.1363 103.23 14.3013 103.729 14.3013C104.229 14.3013 104.615 14.1363 104.887 13.8062C105.16 13.4761 105.296 13.0517 105.296 12.533V8.3125H106.114V12.5094C106.114 13.2874 105.909 13.9241 105.478 14.4192C105.046 14.8907 104.479 15.1501 103.752 15.1501" fill="white"/>
<path d="M103.729 15.1501C103.025 15.1501 102.458 14.9143 102.003 14.4192C101.572 13.9476 101.345 13.311 101.345 12.5094V8.3125H102.162V12.533C102.162 13.0517 102.299 13.4761 102.571 13.8062C102.844 14.1363 103.23 14.3013 103.729 14.3013C104.229 14.3013 104.615 14.1363 104.887 13.8062C105.16 13.4761 105.296 13.0517 105.296 12.533V8.3125H106.114V12.5094C106.114 13.2874 105.909 13.9241 105.478 14.4192C105.046 14.8907 104.479 15.1501 103.752 15.1501H103.729Z" stroke="white" stroke-width="0.14" stroke-miterlimit="10"/>
<path d="M108.248 11.4955H109.565C109.906 11.4955 110.178 11.3776 110.405 11.1654C110.632 10.9532 110.769 10.6703 110.769 10.3166C110.769 10.0337 110.655 9.75076 110.451 9.51498C110.246 9.2792 109.951 9.16131 109.611 9.16131H108.225V11.4955H108.248ZM107.431 14.9851V8.3125H109.611C110.156 8.3125 110.632 8.50112 111.018 8.87837C111.405 9.25562 111.609 9.72718 111.609 10.293C111.609 10.7646 111.473 11.1654 111.177 11.5191C110.882 11.8728 110.519 12.1086 110.087 12.2029L111.881 14.9379V14.9851H110.905L109.179 12.2972H108.271V14.9851H107.453H107.431Z" fill="white"/>
<path d="M108.248 11.4955H109.565C109.906 11.4955 110.178 11.3776 110.405 11.1654C110.632 10.9532 110.769 10.6703 110.769 10.3166C110.769 10.0337 110.655 9.75076 110.451 9.51498C110.246 9.2792 109.951 9.16131 109.611 9.16131H108.225V11.4955H108.248ZM107.431 14.9851V8.3125H109.611C110.156 8.3125 110.632 8.50112 111.018 8.87837C111.405 9.25562 111.609 9.72718 111.609 10.293C111.609 10.7646 111.473 11.1654 111.177 11.5191C110.882 11.8728 110.519 12.1086 110.087 12.2029L111.881 14.9379V14.9851H110.905L109.179 12.2972H108.271V14.9851H107.453H107.431Z" stroke="white" stroke-width="0.14" stroke-miterlimit="10"/>
</g>
<defs>
<clipPath id="clip0_751_9550">
<rect width="144.444" height="44.4444" fill="white" transform="translate(0 0.555664)"/>
</clipPath>
</defs>
</svg>
