<svg width="24" height="24" viewBox="0 0 24 24" fill="none" xmlns="http://www.w3.org/2000/svg">
<path d="M5.39676 24H0.426261V7.97714H5.39676V24ZM2.90771 5.79048C1.30923 5.7981 0 4.51048 0 2.91048C0 1.31048 1.27878 0 2.87726 0C4.47574 0 5.77735 1.28 5.78497 2.88C5.78497 4.48 4.49857 5.77524 2.90771 5.79048ZM24 24H19.0371V16.1981C19.0371 14.339 18.999 11.9543 16.4491 11.9543C13.8991 11.9543 13.4653 13.9733 13.4653 16.061V23.9924H8.50238V7.97714H13.2674V10.1638H13.3359C14.3102 8.49524 16.1142 7.50476 18.04 7.57333C23.0714 7.57333 23.9924 10.8876 23.9924 15.1924V24H23.9848H24Z" fill="#1E1E1E"/>
</svg>
