<svg width="30" height="21" viewBox="0 0 30 21" fill="none" xmlns="http://www.w3.org/2000/svg">
<path d="M29.3827 3.24138C29.0388 1.96935 28.0229 0.97318 26.7257 0.62069C24.3892 0 15.0039 0 15.0039 0C15.0039 0 5.61865 0 3.2821 0.62069C1.98489 0.965517 0.969002 1.96169 0.625163 3.24138C0 5.54789 0 10.3678 0 10.3678C0 10.3678 0 15.1877 0.625163 17.4943C0.976817 18.7586 1.98489 19.7395 3.27429 20.069C5.61084 20.6897 14.9961 20.6897 14.9961 20.6897C14.9961 20.6897 24.3813 20.6897 26.7179 20.069C28.0073 19.7395 29.0232 18.7586 29.3748 17.4943C30 15.1877 30 10.3678 30 10.3678C30 10.3678 30 5.54789 29.3748 3.24138H29.3827ZM11.9406 14.7433V6L19.7864 10.3755L11.9406 14.751V14.7433Z" fill="#1E1E1E"/>
</svg>
