<svg width="28" height="28" viewBox="0 0 28 28" fill="none" xmlns="http://www.w3.org/2000/svg">
<path d="M14 6.81675C10.0387 6.81675 6.82347 10.033 6.82347 13.9956C6.82347 17.9581 10.0387 21.1744 14 21.1744C17.9613 21.1744 21.1765 17.9581 21.1765 13.9956C21.1765 10.0419 17.9791 6.82564 14.0266 6.81675C14.0266 6.81675 14.0089 6.81675 14 6.81675ZM14 18.66C11.4243 18.66 9.33703 16.5721 9.33703 13.9956C9.33703 11.419 11.4243 9.33111 14 9.33111C16.5757 9.33111 18.663 11.419 18.663 13.9956C18.663 16.5721 16.5757 18.66 14 18.66ZM23.1394 6.52356C23.1394 7.44757 22.3933 8.19388 21.4696 8.19388C20.5459 8.19388 19.7998 7.44757 19.7998 6.52356C19.7998 5.59956 20.5459 4.85324 21.4696 4.85324C22.3933 4.85324 23.1394 5.59956 23.1394 6.51468V6.52356ZM27.8912 8.22941C27.9356 6.05267 27.1274 3.94701 25.6263 2.36554C24.0454 0.872918 21.9404 0.0644138 19.7732 0.0999524C17.4639 -0.0333175 10.5361 -0.0333175 8.2268 0.0999524C6.05075 0.0555291 3.94576 0.864033 2.36479 2.35666C0.872641 3.93812 0.0555115 6.04379 0.0999207 8.22053C-0.0333069 10.5305 -0.0333069 17.4606 0.0999207 19.7706C0.0555115 21.9473 0.863759 24.053 2.36479 25.6345C3.94576 27.1271 6.05075 27.9356 8.2268 27.9C10.5361 28.0333 17.4639 28.0333 19.7732 27.9C21.9492 27.9445 24.0542 27.136 25.6352 25.6345C27.1274 24.053 27.9356 21.9473 27.9001 19.7706C28.0333 17.4606 28.0333 10.5394 27.9001 8.22941H27.8912ZM24.9069 22.2494C24.4273 23.4666 23.4592 24.435 22.2423 24.9148C20.4038 25.6433 16.0251 25.4745 13.9911 25.4745C11.9572 25.4745 7.57843 25.6345 5.73989 24.9148C4.52308 24.435 3.55496 23.4666 3.07534 22.2494C2.34703 20.4103 2.51578 16.0301 2.51578 13.9956C2.51578 11.961 2.35591 7.58083 3.07534 5.74171C3.55496 4.52451 4.52308 3.55608 5.73989 3.07631C7.57843 2.34777 11.9572 2.51658 13.9911 2.51658C16.0251 2.51658 20.4038 2.35666 22.2423 3.07631C23.4592 3.55608 24.4273 4.52451 24.9069 5.74171C25.6352 7.58083 25.4665 11.961 25.4665 13.9956C25.4665 16.0301 25.6352 20.4103 24.9069 22.2494Z" fill="#1E1E1E"/>
</svg>
