<svg width="101" height="100" viewBox="0 0 101 100" fill="none" xmlns="http://www.w3.org/2000/svg">
<g clip-path="url(#clip0_751_10654)">
<path d="M18.4772 0H16.437V2.04021H18.4772V0Z" fill="white"/>
<path d="M24.6 0H22.5598V2.04021H24.6V0Z" fill="white"/>
<path d="M30.7227 0H28.6825V2.04021H30.7227V0Z" fill="white"/>
<path d="M32.7629 0H30.7227V2.04021H32.7629V0Z" fill="white"/>
<path d="M36.8455 0H34.8052V2.04021H36.8455V0Z" fill="white"/>
<path d="M38.8857 0H36.8455V2.04021H38.8857V0Z" fill="white"/>
<path d="M40.9259 0H38.8857V2.04021H40.9259V0Z" fill="white"/>
<path d="M49.091 0H47.0508V2.04021H49.091V0Z" fill="white"/>
<path d="M51.1312 0H49.0909V2.04021H51.1312V0Z" fill="white"/>
<path d="M57.254 0H55.2137V2.04021H57.254V0Z" fill="white"/>
<path d="M59.2942 0H57.254V2.04021H59.2942V0Z" fill="white"/>
<path d="M61.3343 0H59.2941V2.04021H61.3343V0Z" fill="white"/>
<path d="M63.3767 0H61.3365V2.04021H63.3767V0Z" fill="white"/>
<path d="M67.4571 0H65.4169V2.04021H67.4571V0Z" fill="white"/>
<path d="M69.4973 0H67.4571V2.04021H69.4973V0Z" fill="white"/>
<path d="M71.5397 0H69.4995V2.04021H71.5397V0Z" fill="white"/>
<path d="M83.783 0H81.7428V2.04021H83.783V0Z" fill="white"/>
<path d="M20.5196 2.04004H18.4794V4.08025H20.5196V2.04004Z" fill="white"/>
<path d="M22.5597 2.04004H20.5195V4.08025H22.5597V2.04004Z" fill="white"/>
<path d="M32.7629 2.04004H30.7227V4.08025H32.7629V2.04004Z" fill="white"/>
<path d="M40.9259 2.04004H38.8857V4.08025H40.9259V2.04004Z" fill="white"/>
<path d="M49.091 2.04004H47.0508V4.08025H49.091V2.04004Z" fill="white"/>
<path d="M51.1312 2.04004H49.0909V4.08025H51.1312V2.04004Z" fill="white"/>
<path d="M59.2942 2.04004H57.254V4.08025H59.2942V2.04004Z" fill="white"/>
<path d="M61.3343 2.04004H59.2941V4.08025H61.3343V2.04004Z" fill="white"/>
<path d="M71.5397 2.04004H69.4995V4.08025H71.5397V2.04004Z" fill="white"/>
<path d="M77.6624 2.04004H75.6222V4.08025H77.6624V2.04004Z" fill="white"/>
<path d="M79.7026 2.04004H77.6624V4.08025H79.7026V2.04004Z" fill="white"/>
<path d="M81.7428 2.04004H79.7026V4.08025H81.7428V2.04004Z" fill="white"/>
<path d="M83.783 2.04004H81.7428V4.08025H83.783V2.04004Z" fill="white"/>
<path d="M22.5597 4.08301H20.5195V6.12322H22.5597V4.08301Z" fill="white"/>
<path d="M26.6402 4.08301H24.6V6.12322H26.6402V4.08301Z" fill="white"/>
<path d="M30.7227 4.08301H28.6825V6.12322H30.7227V4.08301Z" fill="white"/>
<path d="M32.7629 4.08301H30.7227V6.12322H32.7629V4.08301Z" fill="white"/>
<path d="M38.8857 4.08301H36.8455V6.12322H38.8857V4.08301Z" fill="white"/>
<path d="M47.0486 4.08301H45.0084V6.12322H47.0486V4.08301Z" fill="white"/>
<path d="M49.091 4.08301H47.0508V6.12322H49.091V4.08301Z" fill="white"/>
<path d="M51.1312 4.08301H49.0909V6.12322H51.1312V4.08301Z" fill="white"/>
<path d="M53.1714 4.08301H51.1312V6.12322H53.1714V4.08301Z" fill="white"/>
<path d="M57.254 4.08301H55.2137V6.12322H57.254V4.08301Z" fill="white"/>
<path d="M59.2942 4.08301H57.254V6.12322H59.2942V4.08301Z" fill="white"/>
<path d="M61.3343 4.08301H59.2941V6.12322H61.3343V4.08301Z" fill="white"/>
<path d="M63.3767 4.08301H61.3365V6.12322H63.3767V4.08301Z" fill="white"/>
<path d="M65.4169 4.08301H63.3767V6.12322H65.4169V4.08301Z" fill="white"/>
<path d="M69.4973 4.08301H67.4571V6.12322H69.4973V4.08301Z" fill="white"/>
<path d="M71.5397 4.08301H69.4995V6.12322H71.5397V4.08301Z" fill="white"/>
<path d="M73.5799 4.08301H71.5397V6.12322H73.5799V4.08301Z" fill="white"/>
<path d="M81.7428 4.08301H79.7026V6.12322H81.7428V4.08301Z" fill="white"/>
<path d="M83.783 4.08301H81.7428V6.12322H83.783V4.08301Z" fill="white"/>
<path d="M18.4772 6.12305H16.437V8.16326H18.4772V6.12305Z" fill="white"/>
<path d="M24.6 6.12305H22.5598V8.16326H24.6V6.12305Z" fill="white"/>
<path d="M28.6825 6.12305H26.6423V8.16326H28.6825V6.12305Z" fill="white"/>
<path d="M30.7227 6.12305H28.6825V8.16326H30.7227V6.12305Z" fill="white"/>
<path d="M32.7629 6.12305H30.7227V8.16326H32.7629V6.12305Z" fill="white"/>
<path d="M34.8053 6.12305H32.7651V8.16326H34.8053V6.12305Z" fill="white"/>
<path d="M38.8857 6.12305H36.8455V8.16326H38.8857V6.12305Z" fill="white"/>
<path d="M40.9259 6.12305H38.8857V8.16326H40.9259V6.12305Z" fill="white"/>
<path d="M42.9683 6.12305H40.928V8.16326H42.9683V6.12305Z" fill="white"/>
<path d="M45.0084 6.12305H42.9682V8.16326H45.0084V6.12305Z" fill="white"/>
<path d="M47.0486 6.12305H45.0084V8.16326H47.0486V6.12305Z" fill="white"/>
<path d="M51.1312 6.12305H49.0909V8.16326H51.1312V6.12305Z" fill="white"/>
<path d="M55.2116 6.12305H53.1714V8.16326H55.2116V6.12305Z" fill="white"/>
<path d="M61.3343 6.12305H59.2941V8.16326H61.3343V6.12305Z" fill="white"/>
<path d="M63.3767 6.12305H61.3365V8.16326H63.3767V6.12305Z" fill="white"/>
<path d="M67.4571 6.12305H65.4169V8.16326H67.4571V6.12305Z" fill="white"/>
<path d="M69.4973 6.12305H67.4571V8.16326H69.4973V6.12305Z" fill="white"/>
<path d="M81.7428 6.12305H79.7026V8.16326H81.7428V6.12305Z" fill="white"/>
<path d="M22.5597 8.16309H20.5195V10.2033H22.5597V8.16309Z" fill="white"/>
<path d="M24.6 8.16309H22.5598V10.2033H24.6V8.16309Z" fill="white"/>
<path d="M26.6402 8.16309H24.6V10.2033H26.6402V8.16309Z" fill="white"/>
<path d="M32.7629 8.16309H30.7227V10.2033H32.7629V8.16309Z" fill="white"/>
<path d="M34.8053 8.16309H32.7651V10.2033H34.8053V8.16309Z" fill="white"/>
<path d="M38.8857 8.16309H36.8455V10.2033H38.8857V8.16309Z" fill="white"/>
<path d="M47.0486 8.16309H45.0084V10.2033H47.0486V8.16309Z" fill="white"/>
<path d="M49.091 8.16309H47.0508V10.2033H49.091V8.16309Z" fill="white"/>
<path d="M51.1312 8.16309H49.0909V10.2033H51.1312V8.16309Z" fill="white"/>
<path d="M53.1714 8.16309H51.1312V10.2033H53.1714V8.16309Z" fill="white"/>
<path d="M55.2116 8.16309H53.1714V10.2033H55.2116V8.16309Z" fill="white"/>
<path d="M59.2942 8.16309H57.254V10.2033H59.2942V8.16309Z" fill="white"/>
<path d="M61.3343 8.16309H59.2941V10.2033H61.3343V8.16309Z" fill="white"/>
<path d="M67.4571 8.16309H65.4169V10.2033H67.4571V8.16309Z" fill="white"/>
<path d="M69.4973 8.16309H67.4571V10.2033H69.4973V8.16309Z" fill="white"/>
<path d="M71.5397 8.16309H69.4995V10.2033H71.5397V8.16309Z" fill="white"/>
<path d="M75.6201 8.16309H73.5799V10.2033H75.6201V8.16309Z" fill="white"/>
<path d="M77.6624 8.16309H75.6222V10.2033H77.6624V8.16309Z" fill="white"/>
<path d="M26.6402 10.2031H24.6V12.2433H26.6402V10.2031Z" fill="white"/>
<path d="M28.6825 10.2031H26.6423V12.2433H28.6825V10.2031Z" fill="white"/>
<path d="M30.7227 10.2031H28.6825V12.2433H30.7227V10.2031Z" fill="white"/>
<path d="M34.8053 10.2031H32.7651V12.2433H34.8053V10.2031Z" fill="white"/>
<path d="M38.8857 10.2031H36.8455V12.2433H38.8857V10.2031Z" fill="white"/>
<path d="M45.0084 10.2031H42.9682V12.2433H45.0084V10.2031Z" fill="white"/>
<path d="M47.0486 10.2031H45.0084V12.2433H47.0486V10.2031Z" fill="white"/>
<path d="M55.2116 10.2031H53.1714V12.2433H55.2116V10.2031Z" fill="white"/>
<path d="M57.254 10.2031H55.2137V12.2433H57.254V10.2031Z" fill="white"/>
<path d="M61.3343 10.2031H59.2941V12.2433H61.3343V10.2031Z" fill="white"/>
<path d="M67.4571 10.2031H65.4169V12.2433H67.4571V10.2031Z" fill="white"/>
<path d="M69.4973 10.2031H67.4571V12.2433H69.4973V10.2031Z" fill="white"/>
<path d="M71.5397 10.2031H69.4995V12.2433H71.5397V10.2031Z" fill="white"/>
<path d="M73.5799 10.2031H71.5397V12.2433H73.5799V10.2031Z" fill="white"/>
<path d="M77.6624 10.2031H75.6222V12.2433H77.6624V10.2031Z" fill="white"/>
<path d="M79.7026 10.2031H77.6624V12.2433H79.7026V10.2031Z" fill="white"/>
<path d="M18.4772 12.2451H16.437V14.2853H18.4772V12.2451Z" fill="white"/>
<path d="M22.5597 12.2451H20.5195V14.2853H22.5597V12.2451Z" fill="white"/>
<path d="M26.6402 12.2451H24.6V14.2853H26.6402V12.2451Z" fill="white"/>
<path d="M30.7227 12.2451H28.6825V14.2853H30.7227V12.2451Z" fill="white"/>
<path d="M34.8053 12.2451H32.7651V14.2853H34.8053V12.2451Z" fill="white"/>
<path d="M38.8857 12.2451H36.8455V14.2853H38.8857V12.2451Z" fill="white"/>
<path d="M42.9683 12.2451H40.928V14.2853H42.9683V12.2451Z" fill="white"/>
<path d="M47.0486 12.2451H45.0084V14.2853H47.0486V12.2451Z" fill="white"/>
<path d="M51.1312 12.2451H49.0909V14.2853H51.1312V12.2451Z" fill="white"/>
<path d="M55.2116 12.2451H53.1714V14.2853H55.2116V12.2451Z" fill="white"/>
<path d="M59.2942 12.2451H57.254V14.2853H59.2942V12.2451Z" fill="white"/>
<path d="M63.3767 12.2451H61.3365V14.2853H63.3767V12.2451Z" fill="white"/>
<path d="M67.4571 12.2451H65.4169V14.2853H67.4571V12.2451Z" fill="white"/>
<path d="M71.5397 12.2451H69.4995V14.2853H71.5397V12.2451Z" fill="white"/>
<path d="M75.6201 12.2451H73.5799V14.2853H75.6201V12.2451Z" fill="white"/>
<path d="M79.7026 12.2451H77.6624V14.2853H79.7026V12.2451Z" fill="white"/>
<path d="M83.783 12.2451H81.7428V14.2853H83.783V12.2451Z" fill="white"/>
<path d="M20.5196 14.2861H18.4794V16.3263H20.5196V14.2861Z" fill="white"/>
<path d="M24.6 14.2861H22.5598V16.3263H24.6V14.2861Z" fill="white"/>
<path d="M28.6825 14.2861H26.6423V16.3263H28.6825V14.2861Z" fill="white"/>
<path d="M30.7227 14.2861H28.6825V16.3263H30.7227V14.2861Z" fill="white"/>
<path d="M34.8053 14.2861H32.7651V16.3263H34.8053V14.2861Z" fill="white"/>
<path d="M36.8455 14.2861H34.8052V16.3263H36.8455V14.2861Z" fill="white"/>
<path d="M42.9683 14.2861H40.928V16.3263H42.9683V14.2861Z" fill="white"/>
<path d="M47.0486 14.2861H45.0084V16.3263H47.0486V14.2861Z" fill="white"/>
<path d="M55.2116 14.2861H53.1714V16.3263H55.2116V14.2861Z" fill="white"/>
<path d="M59.2942 14.2861H57.254V16.3263H59.2942V14.2861Z" fill="white"/>
<path d="M61.3343 14.2861H59.2941V16.3263H61.3343V14.2861Z" fill="white"/>
<path d="M65.4169 14.2861H63.3767V16.3263H65.4169V14.2861Z" fill="white"/>
<path d="M69.4973 14.2861H67.4571V16.3263H69.4973V14.2861Z" fill="white"/>
<path d="M71.5397 14.2861H69.4995V16.3263H71.5397V14.2861Z" fill="white"/>
<path d="M73.5799 14.2861H71.5397V16.3263H73.5799V14.2861Z" fill="white"/>
<path d="M6.23381 16.3262H4.1936V18.3664H6.23381V16.3262Z" fill="white"/>
<path d="M10.3143 16.3262H8.27405V18.3664H10.3143V16.3262Z" fill="white"/>
<path d="M12.3545 16.3262H10.3143V18.3664H12.3545V16.3262Z" fill="white"/>
<path d="M14.3968 16.3262H12.3566V18.3664H14.3968V16.3262Z" fill="white"/>
<path d="M18.4772 16.3262H16.437V18.3664H18.4772V16.3262Z" fill="white"/>
<path d="M20.5196 16.3262H18.4794V18.3664H20.5196V16.3262Z" fill="white"/>
<path d="M24.6 16.3262H22.5598V18.3664H24.6V16.3262Z" fill="white"/>
<path d="M28.6825 16.3262H26.6423V18.3664H28.6825V16.3262Z" fill="white"/>
<path d="M32.7629 16.3262H30.7227V18.3664H32.7629V16.3262Z" fill="white"/>
<path d="M34.8053 16.3262H32.7651V18.3664H34.8053V16.3262Z" fill="white"/>
<path d="M36.8455 16.3262H34.8052V18.3664H36.8455V16.3262Z" fill="white"/>
<path d="M38.8857 16.3262H36.8455V18.3664H38.8857V16.3262Z" fill="white"/>
<path d="M40.9259 16.3262H38.8857V18.3664H40.9259V16.3262Z" fill="white"/>
<path d="M42.9683 16.3262H40.928V18.3664H42.9683V16.3262Z" fill="white"/>
<path d="M45.0084 16.3262H42.9682V18.3664H45.0084V16.3262Z" fill="white"/>
<path d="M47.0486 16.3262H45.0084V18.3664H47.0486V16.3262Z" fill="white"/>
<path d="M49.091 16.3262H47.0508V18.3664H49.091V16.3262Z" fill="white"/>
<path d="M51.1312 16.3262H49.0909V18.3664H51.1312V16.3262Z" fill="white"/>
<path d="M53.1714 16.3262H51.1312V18.3664H53.1714V16.3262Z" fill="white"/>
<path d="M55.2116 16.3262H53.1714V18.3664H55.2116V16.3262Z" fill="white"/>
<path d="M57.254 16.3262H55.2137V18.3664H57.254V16.3262Z" fill="white"/>
<path d="M61.3343 16.3262H59.2941V18.3664H61.3343V16.3262Z" fill="white"/>
<path d="M65.4169 16.3262H63.3767V18.3664H65.4169V16.3262Z" fill="white"/>
<path d="M69.4973 16.3262H67.4571V18.3664H69.4973V16.3262Z" fill="white"/>
<path d="M71.5397 16.3262H69.4995V18.3664H71.5397V16.3262Z" fill="white"/>
<path d="M73.5799 16.3262H71.5397V18.3664H73.5799V16.3262Z" fill="white"/>
<path d="M85.8254 16.3262H83.7852V18.3664H85.8254V16.3262Z" fill="white"/>
<path d="M93.9883 16.3262H91.9481V18.3664H93.9883V16.3262Z" fill="white"/>
<path d="M100.111 16.3262H98.0709V18.3664H100.111V16.3262Z" fill="white"/>
<path d="M2.1513 18.3682H0.111084V20.4084H2.1513V18.3682Z" fill="white"/>
<path d="M4.19152 18.3682H2.15131V20.4084H4.19152V18.3682Z" fill="white"/>
<path d="M8.27404 18.3682H6.23383V20.4084H8.27404V18.3682Z" fill="white"/>
<path d="M16.437 18.3682H14.3968V20.4084H16.437V18.3682Z" fill="white"/>
<path d="M20.5196 18.3682H18.4794V20.4084H20.5196V18.3682Z" fill="white"/>
<path d="M22.5597 18.3682H20.5195V20.4084H22.5597V18.3682Z" fill="white"/>
<path d="M24.6 18.3682H22.5598V20.4084H24.6V18.3682Z" fill="white"/>
<path d="M26.6402 18.3682H24.6V20.4084H26.6402V18.3682Z" fill="white"/>
<path d="M30.7227 18.3682H28.6825V20.4084H30.7227V18.3682Z" fill="white"/>
<path d="M32.7629 18.3682H30.7227V20.4084H32.7629V18.3682Z" fill="white"/>
<path d="M34.8053 18.3682H32.7651V20.4084H34.8053V18.3682Z" fill="white"/>
<path d="M36.8455 18.3682H34.8052V20.4084H36.8455V18.3682Z" fill="white"/>
<path d="M38.8857 18.3682H36.8455V20.4084H38.8857V18.3682Z" fill="white"/>
<path d="M42.9683 18.3682H40.928V20.4084H42.9683V18.3682Z" fill="white"/>
<path d="M45.0084 18.3682H42.9682V20.4084H45.0084V18.3682Z" fill="white"/>
<path d="M47.0486 18.3682H45.0084V20.4084H47.0486V18.3682Z" fill="white"/>
<path d="M51.1312 18.3682H49.0909V20.4084H51.1312V18.3682Z" fill="white"/>
<path d="M53.1714 18.3682H51.1312V20.4084H53.1714V18.3682Z" fill="white"/>
<path d="M57.254 18.3682H55.2137V20.4084H57.254V18.3682Z" fill="white"/>
<path d="M65.4169 18.3682H63.3767V20.4084H65.4169V18.3682Z" fill="white"/>
<path d="M67.4571 18.3682H65.4169V20.4084H67.4571V18.3682Z" fill="white"/>
<path d="M73.5799 18.3682H71.5397V20.4084H73.5799V18.3682Z" fill="white"/>
<path d="M75.6201 18.3682H73.5799V20.4084H75.6201V18.3682Z" fill="white"/>
<path d="M85.8254 18.3682H83.7852V20.4084H85.8254V18.3682Z" fill="white"/>
<path d="M100.111 18.3682H98.0709V20.4084H100.111V18.3682Z" fill="white"/>
<path d="M12.3545 20.4082H10.3143V22.4484H12.3545V20.4082Z" fill="white"/>
<path d="M14.3968 20.4082H12.3566V22.4484H14.3968V20.4082Z" fill="white"/>
<path d="M22.5597 20.4082H20.5195V22.4484H22.5597V20.4082Z" fill="white"/>
<path d="M26.6402 20.4082H24.6V22.4484H26.6402V20.4082Z" fill="white"/>
<path d="M32.7629 20.4082H30.7227V22.4484H32.7629V20.4082Z" fill="white"/>
<path d="M34.8053 20.4082H32.7651V22.4484H34.8053V20.4082Z" fill="white"/>
<path d="M45.0084 20.4082H42.9682V22.4484H45.0084V20.4082Z" fill="white"/>
<path d="M51.1312 20.4082H49.0909V22.4484H51.1312V20.4082Z" fill="white"/>
<path d="M59.2942 20.4082H57.254V22.4484H59.2942V20.4082Z" fill="white"/>
<path d="M61.3343 20.4082H59.2941V22.4484H61.3343V20.4082Z" fill="white"/>
<path d="M63.3767 20.4082H61.3365V22.4484H63.3767V20.4082Z" fill="white"/>
<path d="M65.4169 20.4082H63.3767V22.4484H65.4169V20.4082Z" fill="white"/>
<path d="M73.5799 20.4082H71.5397V22.4484H73.5799V20.4082Z" fill="white"/>
<path d="M81.7428 20.4082H79.7026V22.4484H81.7428V20.4082Z" fill="white"/>
<path d="M93.9883 20.4082H91.9481V22.4484H93.9883V20.4082Z" fill="white"/>
<path d="M96.0286 20.4082H93.9883V22.4484H96.0286V20.4082Z" fill="white"/>
<path d="M98.0688 20.4082H96.0286V22.4484H98.0688V20.4082Z" fill="white"/>
<path d="M100.111 20.4082H98.0709V22.4484H100.111V20.4082Z" fill="white"/>
<path d="M10.3143 22.4482H8.27405V24.4885H10.3143V22.4482Z" fill="white"/>
<path d="M16.437 22.4482H14.3968V24.4885H16.437V22.4482Z" fill="white"/>
<path d="M24.6 22.4482H22.5598V24.4885H24.6V22.4482Z" fill="white"/>
<path d="M26.6402 22.4482H24.6V24.4885H26.6402V22.4482Z" fill="white"/>
<path d="M30.7227 22.4482H28.6825V24.4885H30.7227V22.4482Z" fill="white"/>
<path d="M36.8455 22.4482H34.8052V24.4885H36.8455V22.4482Z" fill="white"/>
<path d="M40.9259 22.4482H38.8857V24.4885H40.9259V22.4482Z" fill="white"/>
<path d="M49.091 22.4482H47.0508V24.4885H49.091V22.4482Z" fill="white"/>
<path d="M51.1312 22.4482H49.0909V24.4885H51.1312V22.4482Z" fill="white"/>
<path d="M53.1714 22.4482H51.1312V24.4885H53.1714V22.4482Z" fill="white"/>
<path d="M59.2942 22.4482H57.254V24.4885H59.2942V22.4482Z" fill="white"/>
<path d="M65.4169 22.4482H63.3767V24.4885H65.4169V22.4482Z" fill="white"/>
<path d="M67.4571 22.4482H65.4169V24.4885H67.4571V22.4482Z" fill="white"/>
<path d="M69.4973 22.4482H67.4571V24.4885H69.4973V22.4482Z" fill="white"/>
<path d="M75.6201 22.4482H73.5799V24.4885H75.6201V22.4482Z" fill="white"/>
<path d="M77.6624 22.4482H75.6222V24.4885H77.6624V22.4482Z" fill="white"/>
<path d="M81.7428 22.4482H79.7026V24.4885H81.7428V22.4482Z" fill="white"/>
<path d="M89.9058 22.4482H87.8656V24.4885H89.9058V22.4482Z" fill="white"/>
<path d="M91.9481 22.4482H89.9079V24.4885H91.9481V22.4482Z" fill="white"/>
<path d="M93.9883 22.4482H91.9481V24.4885H93.9883V22.4482Z" fill="white"/>
<path d="M2.1513 24.4893H0.111084V26.5295H2.1513V24.4893Z" fill="white"/>
<path d="M4.19152 24.4893H2.15131V26.5295H4.19152V24.4893Z" fill="white"/>
<path d="M6.23381 24.4893H4.1936V26.5295H6.23381V24.4893Z" fill="white"/>
<path d="M8.27404 24.4893H6.23383V26.5295H8.27404V24.4893Z" fill="white"/>
<path d="M14.3968 24.4893H12.3566V26.5295H14.3968V24.4893Z" fill="white"/>
<path d="M22.5597 24.4893H20.5195V26.5295H22.5597V24.4893Z" fill="white"/>
<path d="M26.6402 24.4893H24.6V26.5295H26.6402V24.4893Z" fill="white"/>
<path d="M28.6825 24.4893H26.6423V26.5295H28.6825V24.4893Z" fill="white"/>
<path d="M32.7629 24.4893H30.7227V26.5295H32.7629V24.4893Z" fill="white"/>
<path d="M34.8053 24.4893H32.7651V26.5295H34.8053V24.4893Z" fill="white"/>
<path d="M38.8857 24.4893H36.8455V26.5295H38.8857V24.4893Z" fill="white"/>
<path d="M45.0084 24.4893H42.9682V26.5295H45.0084V24.4893Z" fill="white"/>
<path d="M49.091 24.4893H47.0508V26.5295H49.091V24.4893Z" fill="white"/>
<path d="M57.254 24.4893H55.2137V26.5295H57.254V24.4893Z" fill="white"/>
<path d="M65.4169 24.4893H63.3767V26.5295H65.4169V24.4893Z" fill="white"/>
<path d="M67.4571 24.4893H65.4169V26.5295H67.4571V24.4893Z" fill="white"/>
<path d="M71.5397 24.4893H69.4995V26.5295H71.5397V24.4893Z" fill="white"/>
<path d="M75.6201 24.4893H73.5799V26.5295H75.6201V24.4893Z" fill="white"/>
<path d="M87.8656 24.4893H85.8254V26.5295H87.8656V24.4893Z" fill="white"/>
<path d="M89.9058 24.4893H87.8656V26.5295H89.9058V24.4893Z" fill="white"/>
<path d="M91.9481 24.4893H89.9079V26.5295H91.9481V24.4893Z" fill="white"/>
<path d="M4.19152 26.5312H2.15131V28.5715H4.19152V26.5312Z" fill="white"/>
<path d="M6.23381 26.5312H4.1936V28.5715H6.23381V26.5312Z" fill="white"/>
<path d="M10.3143 26.5312H8.27405V28.5715H10.3143V26.5312Z" fill="white"/>
<path d="M16.437 26.5312H14.3968V28.5715H16.437V26.5312Z" fill="white"/>
<path d="M22.5597 26.5312H20.5195V28.5715H22.5597V26.5312Z" fill="white"/>
<path d="M24.6 26.5312H22.5598V28.5715H24.6V26.5312Z" fill="white"/>
<path d="M26.6402 26.5312H24.6V28.5715H26.6402V26.5312Z" fill="white"/>
<path d="M34.8053 26.5312H32.7651V28.5715H34.8053V26.5312Z" fill="white"/>
<path d="M36.8455 26.5312H34.8052V28.5715H36.8455V26.5312Z" fill="white"/>
<path d="M40.9259 26.5312H38.8857V28.5715H40.9259V26.5312Z" fill="white"/>
<path d="M47.0486 26.5312H45.0084V28.5715H47.0486V26.5312Z" fill="white"/>
<path d="M53.1714 26.5312H51.1312V28.5715H53.1714V26.5312Z" fill="white"/>
<path d="M57.254 26.5312H55.2137V28.5715H57.254V26.5312Z" fill="white"/>
<path d="M59.2942 26.5312H57.254V28.5715H59.2942V26.5312Z" fill="white"/>
<path d="M61.3343 26.5312H59.2941V28.5715H61.3343V26.5312Z" fill="white"/>
<path d="M65.4169 26.5312H63.3767V28.5715H65.4169V26.5312Z" fill="white"/>
<path d="M67.4571 26.5312H65.4169V28.5715H67.4571V26.5312Z" fill="white"/>
<path d="M69.4973 26.5312H67.4571V28.5715H69.4973V26.5312Z" fill="white"/>
<path d="M77.6624 26.5312H75.6222V28.5715H77.6624V26.5312Z" fill="white"/>
<path d="M81.7428 26.5312H79.7026V28.5715H81.7428V26.5312Z" fill="white"/>
<path d="M85.8254 26.5312H83.7852V28.5715H85.8254V26.5312Z" fill="white"/>
<path d="M89.9058 26.5312H87.8656V28.5715H89.9058V26.5312Z" fill="white"/>
<path d="M93.9883 26.5312H91.9481V28.5715H93.9883V26.5312Z" fill="white"/>
<path d="M100.111 26.5312H98.0709V28.5715H100.111V26.5312Z" fill="white"/>
<path d="M4.19152 28.5713H2.15131V30.6115H4.19152V28.5713Z" fill="white"/>
<path d="M8.27404 28.5713H6.23383V30.6115H8.27404V28.5713Z" fill="white"/>
<path d="M14.3968 28.5713H12.3566V30.6115H14.3968V28.5713Z" fill="white"/>
<path d="M16.437 28.5713H14.3968V30.6115H16.437V28.5713Z" fill="white"/>
<path d="M22.5597 28.5713H20.5195V30.6115H22.5597V28.5713Z" fill="white"/>
<path d="M26.6402 28.5713H24.6V30.6115H26.6402V28.5713Z" fill="white"/>
<path d="M32.7629 28.5713H30.7227V30.6115H32.7629V28.5713Z" fill="white"/>
<path d="M34.8053 28.5713H32.7651V30.6115H34.8053V28.5713Z" fill="white"/>
<path d="M38.8857 28.5713H36.8455V30.6115H38.8857V28.5713Z" fill="white"/>
<path d="M47.0486 28.5713H45.0084V30.6115H47.0486V28.5713Z" fill="white"/>
<path d="M53.1714 28.5713H51.1312V30.6115H53.1714V28.5713Z" fill="white"/>
<path d="M55.2116 28.5713H53.1714V30.6115H55.2116V28.5713Z" fill="white"/>
<path d="M67.4571 28.5713H65.4169V30.6115H67.4571V28.5713Z" fill="white"/>
<path d="M69.4973 28.5713H67.4571V30.6115H69.4973V28.5713Z" fill="white"/>
<path d="M73.5799 28.5713H71.5397V30.6115H73.5799V28.5713Z" fill="white"/>
<path d="M75.6201 28.5713H73.5799V30.6115H75.6201V28.5713Z" fill="white"/>
<path d="M77.6624 28.5713H75.6222V30.6115H77.6624V28.5713Z" fill="white"/>
<path d="M85.8254 28.5713H83.7852V30.6115H85.8254V28.5713Z" fill="white"/>
<path d="M91.9481 28.5713H89.9079V30.6115H91.9481V28.5713Z" fill="white"/>
<path d="M93.9883 28.5713H91.9481V30.6115H93.9883V28.5713Z" fill="white"/>
<path d="M96.0286 28.5713H93.9883V30.6115H96.0286V28.5713Z" fill="white"/>
<path d="M98.0688 28.5713H96.0286V30.6115H98.0688V28.5713Z" fill="white"/>
<path d="M100.111 28.5713H98.0709V30.6115H100.111V28.5713Z" fill="white"/>
<path d="M6.23381 30.6113H4.1936V32.6515H6.23381V30.6113Z" fill="white"/>
<path d="M10.3143 30.6113H8.27405V32.6515H10.3143V30.6113Z" fill="white"/>
<path d="M12.3545 30.6113H10.3143V32.6515H12.3545V30.6113Z" fill="white"/>
<path d="M24.6 30.6113H22.5598V32.6515H24.6V30.6113Z" fill="white"/>
<path d="M26.6402 30.6113H24.6V32.6515H26.6402V30.6113Z" fill="white"/>
<path d="M36.8455 30.6113H34.8052V32.6515H36.8455V30.6113Z" fill="white"/>
<path d="M38.8857 30.6113H36.8455V32.6515H38.8857V30.6113Z" fill="white"/>
<path d="M42.9683 30.6113H40.928V32.6515H42.9683V30.6113Z" fill="white"/>
<path d="M51.1312 30.6113H49.0909V32.6515H51.1312V30.6113Z" fill="white"/>
<path d="M57.254 30.6113H55.2137V32.6515H57.254V30.6113Z" fill="white"/>
<path d="M59.2942 30.6113H57.254V32.6515H59.2942V30.6113Z" fill="white"/>
<path d="M63.3767 30.6113H61.3365V32.6515H63.3767V30.6113Z" fill="white"/>
<path d="M69.4973 30.6113H67.4571V32.6515H69.4973V30.6113Z" fill="white"/>
<path d="M73.5799 30.6113H71.5397V32.6515H73.5799V30.6113Z" fill="white"/>
<path d="M75.6201 30.6113H73.5799V32.6515H75.6201V30.6113Z" fill="white"/>
<path d="M77.6624 30.6113H75.6222V32.6515H77.6624V30.6113Z" fill="white"/>
<path d="M81.7428 30.6113H79.7026V32.6515H81.7428V30.6113Z" fill="white"/>
<path d="M83.783 30.6113H81.7428V32.6515H83.783V30.6113Z" fill="white"/>
<path d="M87.8656 30.6113H85.8254V32.6515H87.8656V30.6113Z" fill="white"/>
<path d="M89.9058 30.6113H87.8656V32.6515H89.9058V30.6113Z" fill="white"/>
<path d="M91.9481 30.6113H89.9079V32.6515H91.9481V30.6113Z" fill="white"/>
<path d="M93.9883 30.6113H91.9481V32.6515H93.9883V30.6113Z" fill="white"/>
<path d="M98.0688 30.6113H96.0286V32.6515H98.0688V30.6113Z" fill="white"/>
<path d="M2.1513 32.6543H0.111084V34.6945H2.1513V32.6543Z" fill="white"/>
<path d="M8.27404 32.6543H6.23383V34.6945H8.27404V32.6543Z" fill="white"/>
<path d="M10.3143 32.6543H8.27405V34.6945H10.3143V32.6543Z" fill="white"/>
<path d="M12.3545 32.6543H10.3143V34.6945H12.3545V32.6543Z" fill="white"/>
<path d="M14.3968 32.6543H12.3566V34.6945H14.3968V32.6543Z" fill="white"/>
<path d="M16.437 32.6543H14.3968V34.6945H16.437V32.6543Z" fill="white"/>
<path d="M20.5196 32.6543H18.4794V34.6945H20.5196V32.6543Z" fill="white"/>
<path d="M24.6 32.6543H22.5598V34.6945H24.6V32.6543Z" fill="white"/>
<path d="M26.6402 32.6543H24.6V34.6945H26.6402V32.6543Z" fill="white"/>
<path d="M28.6825 32.6543H26.6423V34.6945H28.6825V32.6543Z" fill="white"/>
<path d="M30.7227 32.6543H28.6825V34.6945H30.7227V32.6543Z" fill="white"/>
<path d="M34.8053 32.6543H32.7651V34.6945H34.8053V32.6543Z" fill="white"/>
<path d="M36.8455 32.6543H34.8052V34.6945H36.8455V32.6543Z" fill="white"/>
<path d="M38.8857 32.6543H36.8455V34.6945H38.8857V32.6543Z" fill="white"/>
<path d="M40.9259 32.6543H38.8857V34.6945H40.9259V32.6543Z" fill="white"/>
<path d="M45.0084 32.6543H42.9682V34.6945H45.0084V32.6543Z" fill="white"/>
<path d="M49.091 32.6543H47.0508V34.6945H49.091V32.6543Z" fill="white"/>
<path d="M55.2116 32.6543H53.1714V34.6945H55.2116V32.6543Z" fill="white"/>
<path d="M63.3767 32.6543H61.3365V34.6945H63.3767V32.6543Z" fill="white"/>
<path d="M65.4169 32.6543H63.3767V34.6945H65.4169V32.6543Z" fill="white"/>
<path d="M69.4973 32.6543H67.4571V34.6945H69.4973V32.6543Z" fill="white"/>
<path d="M71.5397 32.6543H69.4995V34.6945H71.5397V32.6543Z" fill="white"/>
<path d="M73.5799 32.6543H71.5397V34.6945H73.5799V32.6543Z" fill="white"/>
<path d="M75.6201 32.6543H73.5799V34.6945H75.6201V32.6543Z" fill="white"/>
<path d="M77.6624 32.6543H75.6222V34.6945H77.6624V32.6543Z" fill="white"/>
<path d="M79.7026 32.6543H77.6624V34.6945H79.7026V32.6543Z" fill="white"/>
<path d="M83.783 32.6543H81.7428V34.6945H83.783V32.6543Z" fill="white"/>
<path d="M89.9058 32.6543H87.8656V34.6945H89.9058V32.6543Z" fill="white"/>
<path d="M91.9481 32.6543H89.9079V34.6945H91.9481V32.6543Z" fill="white"/>
<path d="M93.9883 32.6543H91.9481V34.6945H93.9883V32.6543Z" fill="white"/>
<path d="M96.0286 32.6543H93.9883V34.6945H96.0286V32.6543Z" fill="white"/>
<path d="M100.111 32.6543H98.0709V34.6945H100.111V32.6543Z" fill="white"/>
<path d="M2.1513 34.6943H0.111084V36.7346H2.1513V34.6943Z" fill="white"/>
<path d="M8.27404 34.6943H6.23383V36.7346H8.27404V34.6943Z" fill="white"/>
<path d="M12.3545 34.6943H10.3143V36.7346H12.3545V34.6943Z" fill="white"/>
<path d="M16.437 34.6943H14.3968V36.7346H16.437V34.6943Z" fill="white"/>
<path d="M22.5597 34.6943H20.5195V36.7346H22.5597V34.6943Z" fill="white"/>
<path d="M24.6 34.6943H22.5598V36.7346H24.6V34.6943Z" fill="white"/>
<path d="M26.6402 34.6943H24.6V36.7346H26.6402V34.6943Z" fill="white"/>
<path d="M28.6825 34.6943H26.6423V36.7346H28.6825V34.6943Z" fill="white"/>
<path d="M30.7227 34.6943H28.6825V36.7346H30.7227V34.6943Z" fill="white"/>
<path d="M34.8053 34.6943H32.7651V36.7346H34.8053V34.6943Z" fill="white"/>
<path d="M67.4571 34.6943H65.4169V36.7346H67.4571V34.6943Z" fill="white"/>
<path d="M69.4973 34.6943H67.4571V36.7346H69.4973V34.6943Z" fill="white"/>
<path d="M75.6201 34.6943H73.5799V36.7346H75.6201V34.6943Z" fill="white"/>
<path d="M77.6624 34.6943H75.6222V36.7346H77.6624V34.6943Z" fill="white"/>
<path d="M83.783 34.6943H81.7428V36.7346H83.783V34.6943Z" fill="white"/>
<path d="M87.8656 34.6943H85.8254V36.7346H87.8656V34.6943Z" fill="white"/>
<path d="M89.9058 34.6943H87.8656V36.7346H89.9058V34.6943Z" fill="white"/>
<path d="M93.9883 34.6943H91.9481V36.7346H93.9883V34.6943Z" fill="white"/>
<path d="M96.0286 34.6943H93.9883V36.7346H96.0286V34.6943Z" fill="white"/>
<path d="M100.111 34.6943H98.0709V36.7346H100.111V34.6943Z" fill="white"/>
<path d="M4.19152 36.7344H2.15131V38.7746H4.19152V36.7344Z" fill="white"/>
<path d="M6.23381 36.7344H4.1936V38.7746H6.23381V36.7344Z" fill="white"/>
<path d="M8.27404 36.7344H6.23383V38.7746H8.27404V36.7344Z" fill="white"/>
<path d="M14.3968 36.7344H12.3566V38.7746H14.3968V36.7344Z" fill="white"/>
<path d="M16.437 36.7344H14.3968V38.7746H16.437V36.7344Z" fill="white"/>
<path d="M18.4772 36.7344H16.437V38.7746H18.4772V36.7344Z" fill="white"/>
<path d="M22.5597 36.7344H20.5195V38.7746H22.5597V36.7344Z" fill="white"/>
<path d="M30.7227 36.7344H28.6825V38.7746H30.7227V36.7344Z" fill="white"/>
<path d="M32.7629 36.7344H30.7227V38.7746H32.7629V36.7344Z" fill="white"/>
<path d="M69.4973 36.7344H67.4571V38.7746H69.4973V36.7344Z" fill="white"/>
<path d="M71.5397 36.7344H69.4995V38.7746H71.5397V36.7344Z" fill="white"/>
<path d="M75.6201 36.7344H73.5799V38.7746H75.6201V36.7344Z" fill="white"/>
<path d="M77.6624 36.7344H75.6222V38.7746H77.6624V36.7344Z" fill="white"/>
<path d="M79.7026 36.7344H77.6624V38.7746H79.7026V36.7344Z" fill="white"/>
<path d="M87.8656 36.7344H85.8254V38.7746H87.8656V36.7344Z" fill="white"/>
<path d="M89.9058 36.7344H87.8656V38.7746H89.9058V36.7344Z" fill="white"/>
<path d="M96.0286 36.7344H93.9883V38.7746H96.0286V36.7344Z" fill="white"/>
<path d="M98.0688 36.7344H96.0286V38.7746H98.0688V36.7344Z" fill="white"/>
<path d="M100.111 36.7344H98.0709V38.7746H100.111V36.7344Z" fill="white"/>
<path d="M2.1513 38.7744H0.111084V40.8146H2.1513V38.7744Z" fill="white"/>
<path d="M8.27404 38.7744H6.23383V40.8146H8.27404V38.7744Z" fill="white"/>
<path d="M20.5196 38.7744H18.4794V40.8146H20.5196V38.7744Z" fill="white"/>
<path d="M26.6402 38.7744H24.6V40.8146H26.6402V38.7744Z" fill="white"/>
<path d="M30.7227 38.7744H28.6825V40.8146H30.7227V38.7744Z" fill="white"/>
<path d="M67.4571 38.7744H65.4169V40.8146H67.4571V38.7744Z" fill="white"/>
<path d="M69.4973 38.7744H67.4571V40.8146H69.4973V38.7744Z" fill="white"/>
<path d="M73.5799 38.7744H71.5397V40.8146H73.5799V38.7744Z" fill="white"/>
<path d="M75.6201 38.7744H73.5799V40.8146H75.6201V38.7744Z" fill="white"/>
<path d="M79.7026 38.7744H77.6624V40.8146H79.7026V38.7744Z" fill="white"/>
<path d="M83.783 38.7744H81.7428V40.8146H83.783V38.7744Z" fill="white"/>
<path d="M85.8254 38.7744H83.7852V40.8146H85.8254V38.7744Z" fill="white"/>
<path d="M91.9481 38.7744H89.9079V40.8146H91.9481V38.7744Z" fill="white"/>
<path d="M2.1513 40.8174H0.111084V42.8576H2.1513V40.8174Z" fill="white"/>
<path d="M4.19152 40.8174H2.15131V42.8576H4.19152V40.8174Z" fill="white"/>
<path d="M6.23381 40.8174H4.1936V42.8576H6.23381V40.8174Z" fill="white"/>
<path d="M10.3143 40.8174H8.27405V42.8576H10.3143V40.8174Z" fill="white"/>
<path d="M14.3968 40.8174H12.3566V42.8576H14.3968V40.8174Z" fill="white"/>
<path d="M26.6402 40.8174H24.6V42.8576H26.6402V40.8174Z" fill="white"/>
<path d="M30.7227 40.8174H28.6825V42.8576H30.7227V40.8174Z" fill="white"/>
<path d="M32.7629 40.8174H30.7227V42.8576H32.7629V40.8174Z" fill="white"/>
<path d="M34.8053 40.8174H32.7651V42.8576H34.8053V40.8174Z" fill="white"/>
<path d="M67.4571 40.8174H65.4169V42.8576H67.4571V40.8174Z" fill="white"/>
<path d="M71.5397 40.8174H69.4995V42.8576H71.5397V40.8174Z" fill="white"/>
<path d="M73.5799 40.8174H71.5397V42.8576H73.5799V40.8174Z" fill="white"/>
<path d="M75.6201 40.8174H73.5799V42.8576H75.6201V40.8174Z" fill="white"/>
<path d="M77.6624 40.8174H75.6222V42.8576H77.6624V40.8174Z" fill="white"/>
<path d="M81.7428 40.8174H79.7026V42.8576H81.7428V40.8174Z" fill="white"/>
<path d="M87.8656 40.8174H85.8254V42.8576H87.8656V40.8174Z" fill="white"/>
<path d="M89.9058 40.8174H87.8656V42.8576H89.9058V40.8174Z" fill="white"/>
<path d="M91.9481 40.8174H89.9079V42.8576H91.9481V40.8174Z" fill="white"/>
<path d="M93.9883 40.8174H91.9481V42.8576H93.9883V40.8174Z" fill="white"/>
<path d="M100.111 40.8174H98.0709V42.8576H100.111V40.8174Z" fill="white"/>
<path d="M2.1513 42.8574H0.111084V44.8976H2.1513V42.8574Z" fill="white"/>
<path d="M4.19152 42.8574H2.15131V44.8976H4.19152V42.8574Z" fill="white"/>
<path d="M6.23381 42.8574H4.1936V44.8976H6.23381V42.8574Z" fill="white"/>
<path d="M8.27404 42.8574H6.23383V44.8976H8.27404V42.8574Z" fill="white"/>
<path d="M10.3143 42.8574H8.27405V44.8976H10.3143V42.8574Z" fill="white"/>
<path d="M12.3545 42.8574H10.3143V44.8976H12.3545V42.8574Z" fill="white"/>
<path d="M16.437 42.8574H14.3968V44.8976H16.437V42.8574Z" fill="white"/>
<path d="M26.6402 42.8574H24.6V44.8976H26.6402V42.8574Z" fill="white"/>
<path d="M28.6825 42.8574H26.6423V44.8976H28.6825V42.8574Z" fill="white"/>
<path d="M77.6624 42.8574H75.6222V44.8976H77.6624V42.8574Z" fill="white"/>
<path d="M81.7428 42.8574H79.7026V44.8976H81.7428V42.8574Z" fill="white"/>
<path d="M89.9058 42.8574H87.8656V44.8976H89.9058V42.8574Z" fill="white"/>
<path d="M93.9883 42.8574H91.9481V44.8976H93.9883V42.8574Z" fill="white"/>
<path d="M98.0688 42.8574H96.0286V44.8976H98.0688V42.8574Z" fill="white"/>
<path d="M100.111 42.8574H98.0709V44.8976H100.111V42.8574Z" fill="white"/>
<path d="M8.27404 44.8975H6.23383V46.9377H8.27404V44.8975Z" fill="white"/>
<path d="M10.3143 44.8975H8.27405V46.9377H10.3143V44.8975Z" fill="white"/>
<path d="M12.3545 44.8975H10.3143V46.9377H12.3545V44.8975Z" fill="white"/>
<path d="M14.3968 44.8975H12.3566V46.9377H14.3968V44.8975Z" fill="white"/>
<path d="M16.437 44.8975H14.3968V46.9377H16.437V44.8975Z" fill="white"/>
<path d="M18.4772 44.8975H16.437V46.9377H18.4772V44.8975Z" fill="white"/>
<path d="M20.5196 44.8975H18.4794V46.9377H20.5196V44.8975Z" fill="white"/>
<path d="M24.6 44.8975H22.5598V46.9377H24.6V44.8975Z" fill="white"/>
<path d="M26.6402 44.8975H24.6V46.9377H26.6402V44.8975Z" fill="white"/>
<path d="M32.7629 44.8975H30.7227V46.9377H32.7629V44.8975Z" fill="white"/>
<path d="M34.8053 44.8975H32.7651V46.9377H34.8053V44.8975Z" fill="white"/>
<path d="M67.4571 44.8975H65.4169V46.9377H67.4571V44.8975Z" fill="white"/>
<path d="M69.4973 44.8975H67.4571V46.9377H69.4973V44.8975Z" fill="white"/>
<path d="M81.7428 44.8975H79.7026V46.9377H81.7428V44.8975Z" fill="white"/>
<path d="M83.783 44.8975H81.7428V46.9377H83.783V44.8975Z" fill="white"/>
<path d="M85.8254 44.8975H83.7852V46.9377H85.8254V44.8975Z" fill="white"/>
<path d="M87.8656 44.8975H85.8254V46.9377H87.8656V44.8975Z" fill="white"/>
<path d="M89.9058 44.8975H87.8656V46.9377H89.9058V44.8975Z" fill="white"/>
<path d="M91.9481 44.8975H89.9079V46.9377H91.9481V44.8975Z" fill="white"/>
<path d="M96.0286 44.8975H93.9883V46.9377H96.0286V44.8975Z" fill="white"/>
<path d="M98.0688 44.8975H96.0286V46.9377H98.0688V44.8975Z" fill="white"/>
<path d="M100.111 44.8975H98.0709V46.9377H100.111V44.8975Z" fill="white"/>
<path d="M6.23381 46.9395H4.1936V48.9797H6.23381V46.9395Z" fill="white"/>
<path d="M8.27404 46.9395H6.23383V48.9797H8.27404V46.9395Z" fill="white"/>
<path d="M10.3143 46.9395H8.27405V48.9797H10.3143V46.9395Z" fill="white"/>
<path d="M18.4772 46.9395H16.437V48.9797H18.4772V46.9395Z" fill="white"/>
<path d="M26.6402 46.9395H24.6V48.9797H26.6402V46.9395Z" fill="white"/>
<path d="M30.7227 46.9395H28.6825V48.9797H30.7227V46.9395Z" fill="white"/>
<path d="M32.7629 46.9395H30.7227V48.9797H32.7629V46.9395Z" fill="white"/>
<path d="M34.8053 46.9395H32.7651V48.9797H34.8053V46.9395Z" fill="white"/>
<path d="M69.4973 46.9395H67.4571V48.9797H69.4973V46.9395Z" fill="white"/>
<path d="M73.5799 46.9395H71.5397V48.9797H73.5799V46.9395Z" fill="white"/>
<path d="M75.6201 46.9395H73.5799V48.9797H75.6201V46.9395Z" fill="white"/>
<path d="M79.7026 46.9395H77.6624V48.9797H79.7026V46.9395Z" fill="white"/>
<path d="M81.7428 46.9395H79.7026V48.9797H81.7428V46.9395Z" fill="white"/>
<path d="M83.783 46.9395H81.7428V48.9797H83.783V46.9395Z" fill="white"/>
<path d="M91.9481 46.9395H89.9079V48.9797H91.9481V46.9395Z" fill="white"/>
<path d="M8.27404 48.9795H6.23383V51.0197H8.27404V48.9795Z" fill="white"/>
<path d="M10.3143 48.9795H8.27405V51.0197H10.3143V48.9795Z" fill="white"/>
<path d="M14.3968 48.9795H12.3566V51.0197H14.3968V48.9795Z" fill="white"/>
<path d="M18.4772 48.9795H16.437V51.0197H18.4772V48.9795Z" fill="white"/>
<path d="M24.6 48.9795H22.5598V51.0197H24.6V48.9795Z" fill="white"/>
<path d="M32.7629 48.9795H30.7227V51.0197H32.7629V48.9795Z" fill="white"/>
<path d="M73.5799 48.9795H71.5397V51.0197H73.5799V48.9795Z" fill="white"/>
<path d="M75.6201 48.9795H73.5799V51.0197H75.6201V48.9795Z" fill="white"/>
<path d="M77.6624 48.9795H75.6222V51.0197H77.6624V48.9795Z" fill="white"/>
<path d="M81.7428 48.9795H79.7026V51.0197H81.7428V48.9795Z" fill="white"/>
<path d="M83.783 48.9795H81.7428V51.0197H83.783V48.9795Z" fill="white"/>
<path d="M87.8656 48.9795H85.8254V51.0197H87.8656V48.9795Z" fill="white"/>
<path d="M91.9481 48.9795H89.9079V51.0197H91.9481V48.9795Z" fill="white"/>
<path d="M93.9883 48.9795H91.9481V51.0197H93.9883V48.9795Z" fill="white"/>
<path d="M98.0688 48.9795H96.0286V51.0197H98.0688V48.9795Z" fill="white"/>
<path d="M100.111 48.9795H98.0709V51.0197H100.111V48.9795Z" fill="white"/>
<path d="M2.1513 51.0205H0.111084V53.0607H2.1513V51.0205Z" fill="white"/>
<path d="M6.23381 51.0205H4.1936V53.0607H6.23381V51.0205Z" fill="white"/>
<path d="M10.3143 51.0205H8.27405V53.0607H10.3143V51.0205Z" fill="white"/>
<path d="M18.4772 51.0205H16.437V53.0607H18.4772V51.0205Z" fill="white"/>
<path d="M26.6402 51.0205H24.6V53.0607H26.6402V51.0205Z" fill="white"/>
<path d="M28.6825 51.0205H26.6423V53.0607H28.6825V51.0205Z" fill="white"/>
<path d="M34.8053 51.0205H32.7651V53.0607H34.8053V51.0205Z" fill="white"/>
<path d="M67.4571 51.0205H65.4169V53.0607H67.4571V51.0205Z" fill="white"/>
<path d="M69.4973 51.0205H67.4571V53.0607H69.4973V51.0205Z" fill="white"/>
<path d="M75.6201 51.0205H73.5799V53.0607H75.6201V51.0205Z" fill="white"/>
<path d="M81.7428 51.0205H79.7026V53.0607H81.7428V51.0205Z" fill="white"/>
<path d="M83.783 51.0205H81.7428V53.0607H83.783V51.0205Z" fill="white"/>
<path d="M91.9481 51.0205H89.9079V53.0607H91.9481V51.0205Z" fill="white"/>
<path d="M93.9883 51.0205H91.9481V53.0607H93.9883V51.0205Z" fill="white"/>
<path d="M98.0688 51.0205H96.0286V53.0607H98.0688V51.0205Z" fill="white"/>
<path d="M2.1513 53.0605H0.111084V55.1008H2.1513V53.0605Z" fill="white"/>
<path d="M4.19152 53.0605H2.15131V55.1008H4.19152V53.0605Z" fill="white"/>
<path d="M6.23381 53.0605H4.1936V55.1008H6.23381V53.0605Z" fill="white"/>
<path d="M8.27404 53.0605H6.23383V55.1008H8.27404V53.0605Z" fill="white"/>
<path d="M10.3143 53.0605H8.27405V55.1008H10.3143V53.0605Z" fill="white"/>
<path d="M12.3545 53.0605H10.3143V55.1008H12.3545V53.0605Z" fill="white"/>
<path d="M14.3968 53.0605H12.3566V55.1008H14.3968V53.0605Z" fill="white"/>
<path d="M16.437 53.0605H14.3968V55.1008H16.437V53.0605Z" fill="white"/>
<path d="M18.4772 53.0605H16.437V55.1008H18.4772V53.0605Z" fill="white"/>
<path d="M28.6825 53.0605H26.6423V55.1008H28.6825V53.0605Z" fill="white"/>
<path d="M30.7227 53.0605H28.6825V55.1008H30.7227V53.0605Z" fill="white"/>
<path d="M34.8053 53.0605H32.7651V55.1008H34.8053V53.0605Z" fill="white"/>
<path d="M73.5799 53.0605H71.5397V55.1008H73.5799V53.0605Z" fill="white"/>
<path d="M83.783 53.0605H81.7428V55.1008H83.783V53.0605Z" fill="white"/>
<path d="M85.8254 53.0605H83.7852V55.1008H85.8254V53.0605Z" fill="white"/>
<path d="M87.8656 53.0605H85.8254V55.1008H87.8656V53.0605Z" fill="white"/>
<path d="M89.9058 53.0605H87.8656V55.1008H89.9058V53.0605Z" fill="white"/>
<path d="M91.9481 53.0605H89.9079V55.1008H91.9481V53.0605Z" fill="white"/>
<path d="M96.0286 53.0605H93.9883V55.1008H96.0286V53.0605Z" fill="white"/>
<path d="M98.0688 53.0605H96.0286V55.1008H98.0688V53.0605Z" fill="white"/>
<path d="M2.1513 55.1025H0.111084V57.1428H2.1513V55.1025Z" fill="white"/>
<path d="M4.19152 55.1025H2.15131V57.1428H4.19152V55.1025Z" fill="white"/>
<path d="M12.3545 55.1025H10.3143V57.1428H12.3545V55.1025Z" fill="white"/>
<path d="M16.437 55.1025H14.3968V57.1428H16.437V55.1025Z" fill="white"/>
<path d="M22.5597 55.1025H20.5195V57.1428H22.5597V55.1025Z" fill="white"/>
<path d="M24.6 55.1025H22.5598V57.1428H24.6V55.1025Z" fill="white"/>
<path d="M28.6825 55.1025H26.6423V57.1428H28.6825V55.1025Z" fill="white"/>
<path d="M30.7227 55.1025H28.6825V57.1428H30.7227V55.1025Z" fill="white"/>
<path d="M75.6201 55.1025H73.5799V57.1428H75.6201V55.1025Z" fill="white"/>
<path d="M79.7026 55.1025H77.6624V57.1428H79.7026V55.1025Z" fill="white"/>
<path d="M83.783 55.1025H81.7428V57.1428H83.783V55.1025Z" fill="white"/>
<path d="M87.8656 55.1025H85.8254V57.1428H87.8656V55.1025Z" fill="white"/>
<path d="M93.9883 55.1025H91.9481V57.1428H93.9883V55.1025Z" fill="white"/>
<path d="M98.0688 55.1025H96.0286V57.1428H98.0688V55.1025Z" fill="white"/>
<path d="M100.111 55.1025H98.0709V57.1428H100.111V55.1025Z" fill="white"/>
<path d="M2.1513 57.1426H0.111084V59.1828H2.1513V57.1426Z" fill="white"/>
<path d="M4.19152 57.1426H2.15131V59.1828H4.19152V57.1426Z" fill="white"/>
<path d="M6.23381 57.1426H4.1936V59.1828H6.23381V57.1426Z" fill="white"/>
<path d="M8.27404 57.1426H6.23383V59.1828H8.27404V57.1426Z" fill="white"/>
<path d="M12.3545 57.1426H10.3143V59.1828H12.3545V57.1426Z" fill="white"/>
<path d="M14.3968 57.1426H12.3566V59.1828H14.3968V57.1426Z" fill="white"/>
<path d="M16.437 57.1426H14.3968V59.1828H16.437V57.1426Z" fill="white"/>
<path d="M18.4772 57.1426H16.437V59.1828H18.4772V57.1426Z" fill="white"/>
<path d="M22.5597 57.1426H20.5195V59.1828H22.5597V57.1426Z" fill="white"/>
<path d="M24.6 57.1426H22.5598V59.1828H24.6V57.1426Z" fill="white"/>
<path d="M28.6825 57.1426H26.6423V59.1828H28.6825V57.1426Z" fill="white"/>
<path d="M67.4571 57.1426H65.4169V59.1828H67.4571V57.1426Z" fill="white"/>
<path d="M69.4973 57.1426H67.4571V59.1828H69.4973V57.1426Z" fill="white"/>
<path d="M71.5397 57.1426H69.4995V59.1828H71.5397V57.1426Z" fill="white"/>
<path d="M73.5799 57.1426H71.5397V59.1828H73.5799V57.1426Z" fill="white"/>
<path d="M75.6201 57.1426H73.5799V59.1828H75.6201V57.1426Z" fill="white"/>
<path d="M77.6624 57.1426H75.6222V59.1828H77.6624V57.1426Z" fill="white"/>
<path d="M85.8254 57.1426H83.7852V59.1828H85.8254V57.1426Z" fill="white"/>
<path d="M87.8656 57.1426H85.8254V59.1828H87.8656V57.1426Z" fill="white"/>
<path d="M89.9058 57.1426H87.8656V59.1828H89.9058V57.1426Z" fill="white"/>
<path d="M91.9481 57.1426H89.9079V59.1828H91.9481V57.1426Z" fill="white"/>
<path d="M98.0688 57.1426H96.0286V59.1828H98.0688V57.1426Z" fill="white"/>
<path d="M4.19152 59.1826H2.15131V61.2228H4.19152V59.1826Z" fill="white"/>
<path d="M10.3143 59.1826H8.27405V61.2228H10.3143V59.1826Z" fill="white"/>
<path d="M12.3545 59.1826H10.3143V61.2228H12.3545V59.1826Z" fill="white"/>
<path d="M26.6402 59.1826H24.6V61.2228H26.6402V59.1826Z" fill="white"/>
<path d="M28.6825 59.1826H26.6423V61.2228H28.6825V59.1826Z" fill="white"/>
<path d="M30.7227 59.1826H28.6825V61.2228H30.7227V59.1826Z" fill="white"/>
<path d="M34.8053 59.1826H32.7651V61.2228H34.8053V59.1826Z" fill="white"/>
<path d="M77.6624 59.1826H75.6222V61.2228H77.6624V59.1826Z" fill="white"/>
<path d="M83.783 59.1826H81.7428V61.2228H83.783V59.1826Z" fill="white"/>
<path d="M89.9058 59.1826H87.8656V61.2228H89.9058V59.1826Z" fill="white"/>
<path d="M98.0688 59.1826H96.0286V61.2228H98.0688V59.1826Z" fill="white"/>
<path d="M100.111 59.1826H98.0709V61.2228H100.111V59.1826Z" fill="white"/>
<path d="M2.1513 61.2256H0.111084V63.2658H2.1513V61.2256Z" fill="white"/>
<path d="M6.23381 61.2256H4.1936V63.2658H6.23381V61.2256Z" fill="white"/>
<path d="M8.27404 61.2256H6.23383V63.2658H8.27404V61.2256Z" fill="white"/>
<path d="M10.3143 61.2256H8.27405V63.2658H10.3143V61.2256Z" fill="white"/>
<path d="M14.3968 61.2256H12.3566V63.2658H14.3968V61.2256Z" fill="white"/>
<path d="M20.5196 61.2256H18.4794V63.2658H20.5196V61.2256Z" fill="white"/>
<path d="M22.5597 61.2256H20.5195V63.2658H22.5597V61.2256Z" fill="white"/>
<path d="M26.6402 61.2256H24.6V63.2658H26.6402V61.2256Z" fill="white"/>
<path d="M28.6825 61.2256H26.6423V63.2658H28.6825V61.2256Z" fill="white"/>
<path d="M30.7227 61.2256H28.6825V63.2658H30.7227V61.2256Z" fill="white"/>
<path d="M67.4571 61.2256H65.4169V63.2658H67.4571V61.2256Z" fill="white"/>
<path d="M75.6201 61.2256H73.5799V63.2658H75.6201V61.2256Z" fill="white"/>
<path d="M81.7428 61.2256H79.7026V63.2658H81.7428V61.2256Z" fill="white"/>
<path d="M87.8656 61.2256H85.8254V63.2658H87.8656V61.2256Z" fill="white"/>
<path d="M89.9058 61.2256H87.8656V63.2658H89.9058V61.2256Z" fill="white"/>
<path d="M91.9481 61.2256H89.9079V63.2658H91.9481V61.2256Z" fill="white"/>
<path d="M96.0286 61.2256H93.9883V63.2658H96.0286V61.2256Z" fill="white"/>
<path d="M98.0688 61.2256H96.0286V63.2658H98.0688V61.2256Z" fill="white"/>
<path d="M100.111 61.2256H98.0709V63.2658H100.111V61.2256Z" fill="white"/>
<path d="M6.23381 63.2656H4.1936V65.3058H6.23381V63.2656Z" fill="white"/>
<path d="M16.437 63.2656H14.3968V65.3058H16.437V63.2656Z" fill="white"/>
<path d="M18.4772 63.2656H16.437V65.3058H18.4772V63.2656Z" fill="white"/>
<path d="M20.5196 63.2656H18.4794V65.3058H20.5196V63.2656Z" fill="white"/>
<path d="M24.6 63.2656H22.5598V65.3058H24.6V63.2656Z" fill="white"/>
<path d="M26.6402 63.2656H24.6V65.3058H26.6402V63.2656Z" fill="white"/>
<path d="M30.7227 63.2656H28.6825V65.3058H30.7227V63.2656Z" fill="white"/>
<path d="M32.7629 63.2656H30.7227V65.3058H32.7629V63.2656Z" fill="white"/>
<path d="M83.783 63.2656H81.7428V65.3058H83.783V63.2656Z" fill="white"/>
<path d="M85.8254 63.2656H83.7852V65.3058H85.8254V63.2656Z" fill="white"/>
<path d="M87.8656 63.2656H85.8254V65.3058H87.8656V63.2656Z" fill="white"/>
<path d="M89.9058 63.2656H87.8656V65.3058H89.9058V63.2656Z" fill="white"/>
<path d="M96.0286 63.2656H93.9883V65.3058H96.0286V63.2656Z" fill="white"/>
<path d="M98.0688 63.2656H96.0286V65.3058H98.0688V63.2656Z" fill="white"/>
<path d="M6.23381 65.3057H4.1936V67.3459H6.23381V65.3057Z" fill="white"/>
<path d="M8.27404 65.3057H6.23383V67.3459H8.27404V65.3057Z" fill="white"/>
<path d="M12.3545 65.3057H10.3143V67.3459H12.3545V65.3057Z" fill="white"/>
<path d="M14.3968 65.3057H12.3566V67.3459H14.3968V65.3057Z" fill="white"/>
<path d="M16.437 65.3057H14.3968V67.3459H16.437V65.3057Z" fill="white"/>
<path d="M28.6825 65.3057H26.6423V67.3459H28.6825V65.3057Z" fill="white"/>
<path d="M34.8053 65.3057H32.7651V67.3459H34.8053V65.3057Z" fill="white"/>
<path d="M38.8857 65.3057H36.8455V67.3459H38.8857V65.3057Z" fill="white"/>
<path d="M42.9683 65.3057H40.928V67.3459H42.9683V65.3057Z" fill="white"/>
<path d="M45.0084 65.3057H42.9682V67.3459H45.0084V65.3057Z" fill="white"/>
<path d="M49.091 65.3057H47.0508V67.3459H49.091V65.3057Z" fill="white"/>
<path d="M67.4571 65.3057H65.4169V67.3459H67.4571V65.3057Z" fill="white"/>
<path d="M69.4973 65.3057H67.4571V67.3459H69.4973V65.3057Z" fill="white"/>
<path d="M71.5397 65.3057H69.4995V67.3459H71.5397V65.3057Z" fill="white"/>
<path d="M75.6201 65.3057H73.5799V67.3459H75.6201V65.3057Z" fill="white"/>
<path d="M96.0286 65.3057H93.9883V67.3459H96.0286V65.3057Z" fill="white"/>
<path d="M98.0688 65.3057H96.0286V67.3459H98.0688V65.3057Z" fill="white"/>
<path d="M12.3545 67.3457H10.3143V69.3859H12.3545V67.3457Z" fill="white"/>
<path d="M16.437 67.3457H14.3968V69.3859H16.437V67.3457Z" fill="white"/>
<path d="M18.4772 67.3457H16.437V69.3859H18.4772V67.3457Z" fill="white"/>
<path d="M22.5597 67.3457H20.5195V69.3859H22.5597V67.3457Z" fill="white"/>
<path d="M24.6 67.3457H22.5598V69.3859H24.6V67.3457Z" fill="white"/>
<path d="M26.6402 67.3457H24.6V69.3859H26.6402V67.3457Z" fill="white"/>
<path d="M32.7629 67.3457H30.7227V69.3859H32.7629V67.3457Z" fill="white"/>
<path d="M34.8053 67.3457H32.7651V69.3859H34.8053V67.3457Z" fill="white"/>
<path d="M38.8857 67.3457H36.8455V69.3859H38.8857V67.3457Z" fill="white"/>
<path d="M42.9683 67.3457H40.928V69.3859H42.9683V67.3457Z" fill="white"/>
<path d="M45.0084 67.3457H42.9682V69.3859H45.0084V67.3457Z" fill="white"/>
<path d="M47.0486 67.3457H45.0084V69.3859H47.0486V67.3457Z" fill="white"/>
<path d="M49.091 67.3457H47.0508V69.3859H49.091V67.3457Z" fill="white"/>
<path d="M51.1312 67.3457H49.0909V69.3859H51.1312V67.3457Z" fill="white"/>
<path d="M53.1714 67.3457H51.1312V69.3859H53.1714V67.3457Z" fill="white"/>
<path d="M59.2942 67.3457H57.254V69.3859H59.2942V67.3457Z" fill="white"/>
<path d="M61.3343 67.3457H59.2941V69.3859H61.3343V67.3457Z" fill="white"/>
<path d="M63.3767 67.3457H61.3365V69.3859H63.3767V67.3457Z" fill="white"/>
<path d="M83.783 67.3457H81.7428V69.3859H83.783V67.3457Z" fill="white"/>
<path d="M85.8254 67.3457H83.7852V69.3859H85.8254V67.3457Z" fill="white"/>
<path d="M96.0286 67.3457H93.9883V69.3859H96.0286V67.3457Z" fill="white"/>
<path d="M98.0688 67.3457H96.0286V69.3859H98.0688V67.3457Z" fill="white"/>
<path d="M100.111 67.3457H98.0709V69.3859H100.111V67.3457Z" fill="white"/>
<path d="M8.27404 69.3887H6.23383V71.4289H8.27404V69.3887Z" fill="white"/>
<path d="M10.3143 69.3887H8.27405V71.4289H10.3143V69.3887Z" fill="white"/>
<path d="M14.3968 69.3887H12.3566V71.4289H14.3968V69.3887Z" fill="white"/>
<path d="M18.4772 69.3887H16.437V71.4289H18.4772V69.3887Z" fill="white"/>
<path d="M24.6 69.3887H22.5598V71.4289H24.6V69.3887Z" fill="white"/>
<path d="M26.6402 69.3887H24.6V71.4289H26.6402V69.3887Z" fill="white"/>
<path d="M28.6825 69.3887H26.6423V71.4289H28.6825V69.3887Z" fill="white"/>
<path d="M32.7629 69.3887H30.7227V71.4289H32.7629V69.3887Z" fill="white"/>
<path d="M36.8455 69.3887H34.8052V71.4289H36.8455V69.3887Z" fill="white"/>
<path d="M49.091 69.3887H47.0508V71.4289H49.091V69.3887Z" fill="white"/>
<path d="M51.1312 69.3887H49.0909V71.4289H51.1312V69.3887Z" fill="white"/>
<path d="M53.1714 69.3887H51.1312V71.4289H53.1714V69.3887Z" fill="white"/>
<path d="M59.2942 69.3887H57.254V71.4289H59.2942V69.3887Z" fill="white"/>
<path d="M61.3343 69.3887H59.2941V71.4289H61.3343V69.3887Z" fill="white"/>
<path d="M67.4571 69.3887H65.4169V71.4289H67.4571V69.3887Z" fill="white"/>
<path d="M75.6201 69.3887H73.5799V71.4289H75.6201V69.3887Z" fill="white"/>
<path d="M81.7428 69.3887H79.7026V71.4289H81.7428V69.3887Z" fill="white"/>
<path d="M83.783 69.3887H81.7428V71.4289H83.783V69.3887Z" fill="white"/>
<path d="M85.8254 69.3887H83.7852V71.4289H85.8254V69.3887Z" fill="white"/>
<path d="M87.8656 69.3887H85.8254V71.4289H87.8656V69.3887Z" fill="white"/>
<path d="M89.9058 69.3887H87.8656V71.4289H89.9058V69.3887Z" fill="white"/>
<path d="M91.9481 69.3887H89.9079V71.4289H91.9481V69.3887Z" fill="white"/>
<path d="M93.9883 69.3887H91.9481V71.4289H93.9883V69.3887Z" fill="white"/>
<path d="M98.0688 69.3887H96.0286V71.4289H98.0688V69.3887Z" fill="white"/>
<path d="M100.111 69.3887H98.0709V71.4289H100.111V69.3887Z" fill="white"/>
<path d="M4.19152 71.4287H2.15131V73.4689H4.19152V71.4287Z" fill="white"/>
<path d="M6.23381 71.4287H4.1936V73.4689H6.23381V71.4287Z" fill="white"/>
<path d="M8.27404 71.4287H6.23383V73.4689H8.27404V71.4287Z" fill="white"/>
<path d="M10.3143 71.4287H8.27405V73.4689H10.3143V71.4287Z" fill="white"/>
<path d="M12.3545 71.4287H10.3143V73.4689H12.3545V71.4287Z" fill="white"/>
<path d="M16.437 71.4287H14.3968V73.4689H16.437V71.4287Z" fill="white"/>
<path d="M20.5196 71.4287H18.4794V73.4689H20.5196V71.4287Z" fill="white"/>
<path d="M38.8857 71.4287H36.8455V73.4689H38.8857V71.4287Z" fill="white"/>
<path d="M47.0486 71.4287H45.0084V73.4689H47.0486V71.4287Z" fill="white"/>
<path d="M53.1714 71.4287H51.1312V73.4689H53.1714V71.4287Z" fill="white"/>
<path d="M59.2942 71.4287H57.254V73.4689H59.2942V71.4287Z" fill="white"/>
<path d="M61.3343 71.4287H59.2941V73.4689H61.3343V71.4287Z" fill="white"/>
<path d="M63.3767 71.4287H61.3365V73.4689H63.3767V71.4287Z" fill="white"/>
<path d="M67.4571 71.4287H65.4169V73.4689H67.4571V71.4287Z" fill="white"/>
<path d="M69.4973 71.4287H67.4571V73.4689H69.4973V71.4287Z" fill="white"/>
<path d="M71.5397 71.4287H69.4995V73.4689H71.5397V71.4287Z" fill="white"/>
<path d="M75.6201 71.4287H73.5799V73.4689H75.6201V71.4287Z" fill="white"/>
<path d="M83.783 71.4287H81.7428V73.4689H83.783V71.4287Z" fill="white"/>
<path d="M85.8254 71.4287H83.7852V73.4689H85.8254V71.4287Z" fill="white"/>
<path d="M87.8656 71.4287H85.8254V73.4689H87.8656V71.4287Z" fill="white"/>
<path d="M89.9058 71.4287H87.8656V73.4689H89.9058V71.4287Z" fill="white"/>
<path d="M91.9481 71.4287H89.9079V73.4689H91.9481V71.4287Z" fill="white"/>
<path d="M98.0688 71.4287H96.0286V73.4689H98.0688V71.4287Z" fill="white"/>
<path d="M4.19152 73.4688H2.15131V75.509H4.19152V73.4688Z" fill="white"/>
<path d="M6.23381 73.4688H4.1936V75.509H6.23381V73.4688Z" fill="white"/>
<path d="M8.27404 73.4688H6.23383V75.509H8.27404V73.4688Z" fill="white"/>
<path d="M14.3968 73.4688H12.3566V75.509H14.3968V73.4688Z" fill="white"/>
<path d="M16.437 73.4688H14.3968V75.509H16.437V73.4688Z" fill="white"/>
<path d="M20.5196 73.4688H18.4794V75.509H20.5196V73.4688Z" fill="white"/>
<path d="M22.5597 73.4688H20.5195V75.509H22.5597V73.4688Z" fill="white"/>
<path d="M24.6 73.4688H22.5598V75.509H24.6V73.4688Z" fill="white"/>
<path d="M26.6402 73.4688H24.6V75.509H26.6402V73.4688Z" fill="white"/>
<path d="M30.7227 73.4688H28.6825V75.509H30.7227V73.4688Z" fill="white"/>
<path d="M34.8053 73.4688H32.7651V75.509H34.8053V73.4688Z" fill="white"/>
<path d="M47.0486 73.4688H45.0084V75.509H47.0486V73.4688Z" fill="white"/>
<path d="M49.091 73.4688H47.0508V75.509H49.091V73.4688Z" fill="white"/>
<path d="M51.1312 73.4688H49.0909V75.509H51.1312V73.4688Z" fill="white"/>
<path d="M53.1714 73.4688H51.1312V75.509H53.1714V73.4688Z" fill="white"/>
<path d="M57.254 73.4688H55.2137V75.509H57.254V73.4688Z" fill="white"/>
<path d="M59.2942 73.4688H57.254V75.509H59.2942V73.4688Z" fill="white"/>
<path d="M63.3767 73.4688H61.3365V75.509H63.3767V73.4688Z" fill="white"/>
<path d="M67.4571 73.4688H65.4169V75.509H67.4571V73.4688Z" fill="white"/>
<path d="M71.5397 73.4688H69.4995V75.509H71.5397V73.4688Z" fill="white"/>
<path d="M75.6201 73.4688H73.5799V75.509H75.6201V73.4688Z" fill="white"/>
<path d="M77.6624 73.4688H75.6222V75.509H77.6624V73.4688Z" fill="white"/>
<path d="M83.783 73.4688H81.7428V75.509H83.783V73.4688Z" fill="white"/>
<path d="M85.8254 73.4688H83.7852V75.509H85.8254V73.4688Z" fill="white"/>
<path d="M98.0688 73.4688H96.0286V75.509H98.0688V73.4688Z" fill="white"/>
<path d="M100.111 73.4688H98.0709V75.509H100.111V73.4688Z" fill="white"/>
<path d="M2.1513 75.5107H0.111084V77.551H2.1513V75.5107Z" fill="white"/>
<path d="M6.23381 75.5107H4.1936V77.551H6.23381V75.5107Z" fill="white"/>
<path d="M8.27404 75.5107H6.23383V77.551H8.27404V75.5107Z" fill="white"/>
<path d="M10.3143 75.5107H8.27405V77.551H10.3143V75.5107Z" fill="white"/>
<path d="M12.3545 75.5107H10.3143V77.551H12.3545V75.5107Z" fill="white"/>
<path d="M20.5196 75.5107H18.4794V77.551H20.5196V75.5107Z" fill="white"/>
<path d="M22.5597 75.5107H20.5195V77.551H22.5597V75.5107Z" fill="white"/>
<path d="M30.7227 75.5107H28.6825V77.551H30.7227V75.5107Z" fill="white"/>
<path d="M32.7629 75.5107H30.7227V77.551H32.7629V75.5107Z" fill="white"/>
<path d="M36.8455 75.5107H34.8052V77.551H36.8455V75.5107Z" fill="white"/>
<path d="M40.9259 75.5107H38.8857V77.551H40.9259V75.5107Z" fill="white"/>
<path d="M45.0084 75.5107H42.9682V77.551H45.0084V75.5107Z" fill="white"/>
<path d="M51.1312 75.5107H49.0909V77.551H51.1312V75.5107Z" fill="white"/>
<path d="M53.1714 75.5107H51.1312V77.551H53.1714V75.5107Z" fill="white"/>
<path d="M55.2116 75.5107H53.1714V77.551H55.2116V75.5107Z" fill="white"/>
<path d="M57.254 75.5107H55.2137V77.551H57.254V75.5107Z" fill="white"/>
<path d="M65.4169 75.5107H63.3767V77.551H65.4169V75.5107Z" fill="white"/>
<path d="M67.4571 75.5107H65.4169V77.551H67.4571V75.5107Z" fill="white"/>
<path d="M69.4973 75.5107H67.4571V77.551H69.4973V75.5107Z" fill="white"/>
<path d="M77.6624 75.5107H75.6222V77.551H77.6624V75.5107Z" fill="white"/>
<path d="M83.783 75.5107H81.7428V77.551H83.783V75.5107Z" fill="white"/>
<path d="M89.9058 75.5107H87.8656V77.551H89.9058V75.5107Z" fill="white"/>
<path d="M91.9481 75.5107H89.9079V77.551H91.9481V75.5107Z" fill="white"/>
<path d="M96.0286 75.5107H93.9883V77.551H96.0286V75.5107Z" fill="white"/>
<path d="M100.111 75.5107H98.0709V77.551H100.111V75.5107Z" fill="white"/>
<path d="M4.19152 77.5518H2.15131V79.592H4.19152V77.5518Z" fill="white"/>
<path d="M12.3545 77.5518H10.3143V79.592H12.3545V77.5518Z" fill="white"/>
<path d="M14.3968 77.5518H12.3566V79.592H14.3968V77.5518Z" fill="white"/>
<path d="M16.437 77.5518H14.3968V79.592H16.437V77.5518Z" fill="white"/>
<path d="M20.5196 77.5518H18.4794V79.592H20.5196V77.5518Z" fill="white"/>
<path d="M22.5597 77.5518H20.5195V79.592H22.5597V77.5518Z" fill="white"/>
<path d="M26.6402 77.5518H24.6V79.592H26.6402V77.5518Z" fill="white"/>
<path d="M28.6825 77.5518H26.6423V79.592H28.6825V77.5518Z" fill="white"/>
<path d="M30.7227 77.5518H28.6825V79.592H30.7227V77.5518Z" fill="white"/>
<path d="M36.8455 77.5518H34.8052V79.592H36.8455V77.5518Z" fill="white"/>
<path d="M45.0084 77.5518H42.9682V79.592H45.0084V77.5518Z" fill="white"/>
<path d="M47.0486 77.5518H45.0084V79.592H47.0486V77.5518Z" fill="white"/>
<path d="M53.1714 77.5518H51.1312V79.592H53.1714V77.5518Z" fill="white"/>
<path d="M57.254 77.5518H55.2137V79.592H57.254V77.5518Z" fill="white"/>
<path d="M63.3767 77.5518H61.3365V79.592H63.3767V77.5518Z" fill="white"/>
<path d="M65.4169 77.5518H63.3767V79.592H65.4169V77.5518Z" fill="white"/>
<path d="M67.4571 77.5518H65.4169V79.592H67.4571V77.5518Z" fill="white"/>
<path d="M69.4973 77.5518H67.4571V79.592H69.4973V77.5518Z" fill="white"/>
<path d="M73.5799 77.5518H71.5397V79.592H73.5799V77.5518Z" fill="white"/>
<path d="M75.6201 77.5518H73.5799V79.592H75.6201V77.5518Z" fill="white"/>
<path d="M77.6624 77.5518H75.6222V79.592H77.6624V77.5518Z" fill="white"/>
<path d="M81.7428 77.5518H79.7026V79.592H81.7428V77.5518Z" fill="white"/>
<path d="M85.8254 77.5518H83.7852V79.592H85.8254V77.5518Z" fill="white"/>
<path d="M87.8656 77.5518H85.8254V79.592H87.8656V77.5518Z" fill="white"/>
<path d="M89.9058 77.5518H87.8656V79.592H89.9058V77.5518Z" fill="white"/>
<path d="M98.0688 77.5518H96.0286V79.592H98.0688V77.5518Z" fill="white"/>
<path d="M100.111 77.5518H98.0709V79.592H100.111V77.5518Z" fill="white"/>
<path d="M4.19152 79.5918H2.15131V81.632H4.19152V79.5918Z" fill="white"/>
<path d="M6.23381 79.5918H4.1936V81.632H6.23381V79.5918Z" fill="white"/>
<path d="M8.27404 79.5918H6.23383V81.632H8.27404V79.5918Z" fill="white"/>
<path d="M18.4772 79.5918H16.437V81.632H18.4772V79.5918Z" fill="white"/>
<path d="M20.5196 79.5918H18.4794V81.632H20.5196V79.5918Z" fill="white"/>
<path d="M26.6402 79.5918H24.6V81.632H26.6402V79.5918Z" fill="white"/>
<path d="M30.7227 79.5918H28.6825V81.632H30.7227V79.5918Z" fill="white"/>
<path d="M36.8455 79.5918H34.8052V81.632H36.8455V79.5918Z" fill="white"/>
<path d="M40.9259 79.5918H38.8857V81.632H40.9259V79.5918Z" fill="white"/>
<path d="M42.9683 79.5918H40.928V81.632H42.9683V79.5918Z" fill="white"/>
<path d="M47.0486 79.5918H45.0084V81.632H47.0486V79.5918Z" fill="white"/>
<path d="M49.091 79.5918H47.0508V81.632H49.091V79.5918Z" fill="white"/>
<path d="M51.1312 79.5918H49.0909V81.632H51.1312V79.5918Z" fill="white"/>
<path d="M55.2116 79.5918H53.1714V81.632H55.2116V79.5918Z" fill="white"/>
<path d="M59.2942 79.5918H57.254V81.632H59.2942V79.5918Z" fill="white"/>
<path d="M65.4169 79.5918H63.3767V81.632H65.4169V79.5918Z" fill="white"/>
<path d="M67.4571 79.5918H65.4169V81.632H67.4571V79.5918Z" fill="white"/>
<path d="M71.5397 79.5918H69.4995V81.632H71.5397V79.5918Z" fill="white"/>
<path d="M73.5799 79.5918H71.5397V81.632H73.5799V79.5918Z" fill="white"/>
<path d="M75.6201 79.5918H73.5799V81.632H75.6201V79.5918Z" fill="white"/>
<path d="M79.7026 79.5918H77.6624V81.632H79.7026V79.5918Z" fill="white"/>
<path d="M85.8254 79.5918H83.7852V81.632H85.8254V79.5918Z" fill="white"/>
<path d="M87.8656 79.5918H85.8254V81.632H87.8656V79.5918Z" fill="white"/>
<path d="M89.9058 79.5918H87.8656V81.632H89.9058V79.5918Z" fill="white"/>
<path d="M96.0286 79.5918H93.9883V81.632H96.0286V79.5918Z" fill="white"/>
<path d="M2.1513 81.6318H0.111084V83.6721H2.1513V81.6318Z" fill="white"/>
<path d="M4.19152 81.6318H2.15131V83.6721H4.19152V81.6318Z" fill="white"/>
<path d="M6.23381 81.6318H4.1936V83.6721H6.23381V81.6318Z" fill="white"/>
<path d="M14.3968 81.6318H12.3566V83.6721H14.3968V81.6318Z" fill="white"/>
<path d="M16.437 81.6318H14.3968V83.6721H16.437V81.6318Z" fill="white"/>
<path d="M18.4772 81.6318H16.437V83.6721H18.4772V81.6318Z" fill="white"/>
<path d="M26.6402 81.6318H24.6V83.6721H26.6402V81.6318Z" fill="white"/>
<path d="M28.6825 81.6318H26.6423V83.6721H28.6825V81.6318Z" fill="white"/>
<path d="M34.8053 81.6318H32.7651V83.6721H34.8053V81.6318Z" fill="white"/>
<path d="M42.9683 81.6318H40.928V83.6721H42.9683V81.6318Z" fill="white"/>
<path d="M45.0084 81.6318H42.9682V83.6721H45.0084V81.6318Z" fill="white"/>
<path d="M47.0486 81.6318H45.0084V83.6721H47.0486V81.6318Z" fill="white"/>
<path d="M49.091 81.6318H47.0508V83.6721H49.091V81.6318Z" fill="white"/>
<path d="M51.1312 81.6318H49.0909V83.6721H51.1312V81.6318Z" fill="white"/>
<path d="M53.1714 81.6318H51.1312V83.6721H53.1714V81.6318Z" fill="white"/>
<path d="M55.2116 81.6318H53.1714V83.6721H55.2116V81.6318Z" fill="white"/>
<path d="M59.2942 81.6318H57.254V83.6721H59.2942V81.6318Z" fill="white"/>
<path d="M65.4169 81.6318H63.3767V83.6721H65.4169V81.6318Z" fill="white"/>
<path d="M67.4571 81.6318H65.4169V83.6721H67.4571V81.6318Z" fill="white"/>
<path d="M73.5799 81.6318H71.5397V83.6721H73.5799V81.6318Z" fill="white"/>
<path d="M75.6201 81.6318H73.5799V83.6721H75.6201V81.6318Z" fill="white"/>
<path d="M83.783 81.6318H81.7428V83.6721H83.783V81.6318Z" fill="white"/>
<path d="M85.8254 81.6318H83.7852V83.6721H85.8254V81.6318Z" fill="white"/>
<path d="M87.8656 81.6318H85.8254V83.6721H87.8656V81.6318Z" fill="white"/>
<path d="M89.9058 81.6318H87.8656V83.6721H89.9058V81.6318Z" fill="white"/>
<path d="M91.9481 81.6318H89.9079V83.6721H91.9481V81.6318Z" fill="white"/>
<path d="M96.0286 81.6318H93.9883V83.6721H96.0286V81.6318Z" fill="white"/>
<path d="M100.111 81.6318H98.0709V83.6721H100.111V81.6318Z" fill="white"/>
<path d="M18.4772 83.6738H16.437V85.714H18.4772V83.6738Z" fill="white"/>
<path d="M24.6 83.6738H22.5598V85.714H24.6V83.6738Z" fill="white"/>
<path d="M26.6402 83.6738H24.6V85.714H26.6402V83.6738Z" fill="white"/>
<path d="M30.7227 83.6738H28.6825V85.714H30.7227V83.6738Z" fill="white"/>
<path d="M36.8455 83.6738H34.8052V85.714H36.8455V83.6738Z" fill="white"/>
<path d="M42.9683 83.6738H40.928V85.714H42.9683V83.6738Z" fill="white"/>
<path d="M45.0084 83.6738H42.9682V85.714H45.0084V83.6738Z" fill="white"/>
<path d="M47.0486 83.6738H45.0084V85.714H47.0486V83.6738Z" fill="white"/>
<path d="M55.2116 83.6738H53.1714V85.714H55.2116V83.6738Z" fill="white"/>
<path d="M57.254 83.6738H55.2137V85.714H57.254V83.6738Z" fill="white"/>
<path d="M61.3343 83.6738H59.2941V85.714H61.3343V83.6738Z" fill="white"/>
<path d="M63.3767 83.6738H61.3365V85.714H63.3767V83.6738Z" fill="white"/>
<path d="M65.4169 83.6738H63.3767V85.714H65.4169V83.6738Z" fill="white"/>
<path d="M71.5397 83.6738H69.4995V85.714H71.5397V83.6738Z" fill="white"/>
<path d="M79.7026 83.6738H77.6624V85.714H79.7026V83.6738Z" fill="white"/>
<path d="M83.783 83.6738H81.7428V85.714H83.783V83.6738Z" fill="white"/>
<path d="M91.9481 83.6738H89.9079V85.714H91.9481V83.6738Z" fill="white"/>
<path d="M98.0688 83.6738H96.0286V85.714H98.0688V83.6738Z" fill="white"/>
<path d="M100.111 83.6738H98.0709V85.714H100.111V83.6738Z" fill="white"/>
<path d="M20.5196 85.7139H18.4794V87.7541H20.5196V85.7139Z" fill="white"/>
<path d="M26.6402 85.7139H24.6V87.7541H26.6402V85.7139Z" fill="white"/>
<path d="M28.6825 85.7139H26.6423V87.7541H28.6825V85.7139Z" fill="white"/>
<path d="M30.7227 85.7139H28.6825V87.7541H30.7227V85.7139Z" fill="white"/>
<path d="M36.8455 85.7139H34.8052V87.7541H36.8455V85.7139Z" fill="white"/>
<path d="M40.9259 85.7139H38.8857V87.7541H40.9259V85.7139Z" fill="white"/>
<path d="M42.9683 85.7139H40.928V87.7541H42.9683V85.7139Z" fill="white"/>
<path d="M47.0486 85.7139H45.0084V87.7541H47.0486V85.7139Z" fill="white"/>
<path d="M51.1312 85.7139H49.0909V87.7541H51.1312V85.7139Z" fill="white"/>
<path d="M55.2116 85.7139H53.1714V87.7541H55.2116V85.7139Z" fill="white"/>
<path d="M57.254 85.7139H55.2137V87.7541H57.254V85.7139Z" fill="white"/>
<path d="M65.4169 85.7139H63.3767V87.7541H65.4169V85.7139Z" fill="white"/>
<path d="M71.5397 85.7139H69.4995V87.7541H71.5397V85.7139Z" fill="white"/>
<path d="M79.7026 85.7139H77.6624V87.7541H79.7026V85.7139Z" fill="white"/>
<path d="M81.7428 85.7139H79.7026V87.7541H81.7428V85.7139Z" fill="white"/>
<path d="M83.783 85.7139H81.7428V87.7541H83.783V85.7139Z" fill="white"/>
<path d="M87.8656 85.7139H85.8254V87.7541H87.8656V85.7139Z" fill="white"/>
<path d="M91.9481 85.7139H89.9079V87.7541H91.9481V85.7139Z" fill="white"/>
<path d="M96.0286 85.7139H93.9883V87.7541H96.0286V85.7139Z" fill="white"/>
<path d="M98.0688 85.7139H96.0286V87.7541H98.0688V85.7139Z" fill="white"/>
<path d="M100.111 85.7139H98.0709V87.7541H100.111V85.7139Z" fill="white"/>
<path d="M18.4772 87.7549H16.437V89.7951H18.4772V87.7549Z" fill="white"/>
<path d="M22.5597 87.7549H20.5195V89.7951H22.5597V87.7549Z" fill="white"/>
<path d="M32.7629 87.7549H30.7227V89.7951H32.7629V87.7549Z" fill="white"/>
<path d="M34.8053 87.7549H32.7651V89.7951H34.8053V87.7549Z" fill="white"/>
<path d="M40.9259 87.7549H38.8857V89.7951H40.9259V87.7549Z" fill="white"/>
<path d="M42.9683 87.7549H40.928V89.7951H42.9683V87.7549Z" fill="white"/>
<path d="M47.0486 87.7549H45.0084V89.7951H47.0486V87.7549Z" fill="white"/>
<path d="M55.2116 87.7549H53.1714V89.7951H55.2116V87.7549Z" fill="white"/>
<path d="M63.3767 87.7549H61.3365V89.7951H63.3767V87.7549Z" fill="white"/>
<path d="M67.4571 87.7549H65.4169V89.7951H67.4571V87.7549Z" fill="white"/>
<path d="M69.4973 87.7549H67.4571V89.7951H69.4973V87.7549Z" fill="white"/>
<path d="M73.5799 87.7549H71.5397V89.7951H73.5799V87.7549Z" fill="white"/>
<path d="M75.6201 87.7549H73.5799V89.7951H75.6201V87.7549Z" fill="white"/>
<path d="M79.7026 87.7549H77.6624V89.7951H79.7026V87.7549Z" fill="white"/>
<path d="M81.7428 87.7549H79.7026V89.7951H81.7428V87.7549Z" fill="white"/>
<path d="M83.783 87.7549H81.7428V89.7951H83.783V87.7549Z" fill="white"/>
<path d="M91.9481 87.7549H89.9079V89.7951H91.9481V87.7549Z" fill="white"/>
<path d="M98.0688 87.7549H96.0286V89.7951H98.0688V87.7549Z" fill="white"/>
<path d="M100.111 87.7549H98.0709V89.7951H100.111V87.7549Z" fill="white"/>
<path d="M18.4772 89.7969H16.437V91.8371H18.4772V89.7969Z" fill="white"/>
<path d="M22.5597 89.7969H20.5195V91.8371H22.5597V89.7969Z" fill="white"/>
<path d="M32.7629 89.7969H30.7227V91.8371H32.7629V89.7969Z" fill="white"/>
<path d="M34.8053 89.7969H32.7651V91.8371H34.8053V89.7969Z" fill="white"/>
<path d="M38.8857 89.7969H36.8455V91.8371H38.8857V89.7969Z" fill="white"/>
<path d="M45.0084 89.7969H42.9682V91.8371H45.0084V89.7969Z" fill="white"/>
<path d="M47.0486 89.7969H45.0084V91.8371H47.0486V89.7969Z" fill="white"/>
<path d="M49.091 89.7969H47.0508V91.8371H49.091V89.7969Z" fill="white"/>
<path d="M51.1312 89.7969H49.0909V91.8371H51.1312V89.7969Z" fill="white"/>
<path d="M53.1714 89.7969H51.1312V91.8371H53.1714V89.7969Z" fill="white"/>
<path d="M55.2116 89.7969H53.1714V91.8371H55.2116V89.7969Z" fill="white"/>
<path d="M59.2942 89.7969H57.254V91.8371H59.2942V89.7969Z" fill="white"/>
<path d="M65.4169 89.7969H63.3767V91.8371H65.4169V89.7969Z" fill="white"/>
<path d="M67.4571 89.7969H65.4169V91.8371H67.4571V89.7969Z" fill="white"/>
<path d="M69.4973 89.7969H67.4571V91.8371H69.4973V89.7969Z" fill="white"/>
<path d="M73.5799 89.7969H71.5397V91.8371H73.5799V89.7969Z" fill="white"/>
<path d="M75.6201 89.7969H73.5799V91.8371H75.6201V89.7969Z" fill="white"/>
<path d="M77.6624 89.7969H75.6222V91.8371H77.6624V89.7969Z" fill="white"/>
<path d="M83.783 89.7969H81.7428V91.8371H83.783V89.7969Z" fill="white"/>
<path d="M85.8254 89.7969H83.7852V91.8371H85.8254V89.7969Z" fill="white"/>
<path d="M87.8656 89.7969H85.8254V91.8371H87.8656V89.7969Z" fill="white"/>
<path d="M89.9058 89.7969H87.8656V91.8371H89.9058V89.7969Z" fill="white"/>
<path d="M91.9481 89.7969H89.9079V91.8371H91.9481V89.7969Z" fill="white"/>
<path d="M93.9883 89.7969H91.9481V91.8371H93.9883V89.7969Z" fill="white"/>
<path d="M98.0688 89.7969H96.0286V91.8371H98.0688V89.7969Z" fill="white"/>
<path d="M26.6402 91.8369H24.6V93.8771H26.6402V91.8369Z" fill="white"/>
<path d="M28.6825 91.8369H26.6423V93.8771H28.6825V91.8369Z" fill="white"/>
<path d="M36.8455 91.8369H34.8052V93.8771H36.8455V91.8369Z" fill="white"/>
<path d="M40.9259 91.8369H38.8857V93.8771H40.9259V91.8369Z" fill="white"/>
<path d="M47.0486 91.8369H45.0084V93.8771H47.0486V91.8369Z" fill="white"/>
<path d="M51.1312 91.8369H49.0909V93.8771H51.1312V91.8369Z" fill="white"/>
<path d="M55.2116 91.8369H53.1714V93.8771H55.2116V91.8369Z" fill="white"/>
<path d="M61.3343 91.8369H59.2941V93.8771H61.3343V91.8369Z" fill="white"/>
<path d="M63.3767 91.8369H61.3365V93.8771H63.3767V91.8369Z" fill="white"/>
<path d="M65.4169 91.8369H63.3767V93.8771H65.4169V91.8369Z" fill="white"/>
<path d="M67.4571 91.8369H65.4169V93.8771H67.4571V91.8369Z" fill="white"/>
<path d="M69.4973 91.8369H67.4571V93.8771H69.4973V91.8369Z" fill="white"/>
<path d="M85.8254 91.8369H83.7852V93.8771H85.8254V91.8369Z" fill="white"/>
<path d="M91.9481 91.8369H89.9079V93.8771H91.9481V91.8369Z" fill="white"/>
<path d="M93.9883 91.8369H91.9481V93.8771H93.9883V91.8369Z" fill="white"/>
<path d="M98.0688 91.8369H96.0286V93.8771H98.0688V91.8369Z" fill="white"/>
<path d="M18.4772 93.877H16.437V95.9172H18.4772V93.877Z" fill="white"/>
<path d="M28.6825 93.877H26.6423V95.9172H28.6825V93.877Z" fill="white"/>
<path d="M30.7227 93.877H28.6825V95.9172H30.7227V93.877Z" fill="white"/>
<path d="M34.8053 93.877H32.7651V95.9172H34.8053V93.877Z" fill="white"/>
<path d="M36.8455 93.877H34.8052V95.9172H36.8455V93.877Z" fill="white"/>
<path d="M40.9259 93.877H38.8857V95.9172H40.9259V93.877Z" fill="white"/>
<path d="M42.9683 93.877H40.928V95.9172H42.9683V93.877Z" fill="white"/>
<path d="M47.0486 93.877H45.0084V95.9172H47.0486V93.877Z" fill="white"/>
<path d="M57.254 93.877H55.2137V95.9172H57.254V93.877Z" fill="white"/>
<path d="M63.3767 93.877H61.3365V95.9172H63.3767V93.877Z" fill="white"/>
<path d="M65.4169 93.877H63.3767V95.9172H65.4169V93.877Z" fill="white"/>
<path d="M73.5799 93.877H71.5397V95.9172H73.5799V93.877Z" fill="white"/>
<path d="M83.783 93.877H81.7428V95.9172H83.783V93.877Z" fill="white"/>
<path d="M85.8254 93.877H83.7852V95.9172H85.8254V93.877Z" fill="white"/>
<path d="M87.8656 93.877H85.8254V95.9172H87.8656V93.877Z" fill="white"/>
<path d="M89.9058 93.877H87.8656V95.9172H89.9058V93.877Z" fill="white"/>
<path d="M91.9481 93.877H89.9079V95.9172H91.9481V93.877Z" fill="white"/>
<path d="M96.0286 93.877H93.9883V95.9172H96.0286V93.877Z" fill="white"/>
<path d="M98.0688 93.877H96.0286V95.9172H98.0688V93.877Z" fill="white"/>
<path d="M100.111 93.877H98.0709V95.9172H100.111V93.877Z" fill="white"/>
<path d="M22.5597 95.917H20.5195V97.9572H22.5597V95.917Z" fill="white"/>
<path d="M26.6402 95.917H24.6V97.9572H26.6402V95.917Z" fill="white"/>
<path d="M32.7629 95.917H30.7227V97.9572H32.7629V95.917Z" fill="white"/>
<path d="M38.8857 95.917H36.8455V97.9572H38.8857V95.917Z" fill="white"/>
<path d="M40.9259 95.917H38.8857V97.9572H40.9259V95.917Z" fill="white"/>
<path d="M47.0486 95.917H45.0084V97.9572H47.0486V95.917Z" fill="white"/>
<path d="M51.1312 95.917H49.0909V97.9572H51.1312V95.917Z" fill="white"/>
<path d="M53.1714 95.917H51.1312V97.9572H53.1714V95.917Z" fill="white"/>
<path d="M61.3343 95.917H59.2941V97.9572H61.3343V95.917Z" fill="white"/>
<path d="M63.3767 95.917H61.3365V97.9572H63.3767V95.917Z" fill="white"/>
<path d="M65.4169 95.917H63.3767V97.9572H65.4169V95.917Z" fill="white"/>
<path d="M67.4571 95.917H65.4169V97.9572H67.4571V95.917Z" fill="white"/>
<path d="M71.5397 95.917H69.4995V97.9572H71.5397V95.917Z" fill="white"/>
<path d="M73.5799 95.917H71.5397V97.9572H73.5799V95.917Z" fill="white"/>
<path d="M75.6201 95.917H73.5799V97.9572H75.6201V95.917Z" fill="white"/>
<path d="M79.7026 95.917H77.6624V97.9572H79.7026V95.917Z" fill="white"/>
<path d="M85.8254 95.917H83.7852V97.9572H85.8254V95.917Z" fill="white"/>
<path d="M91.9481 95.917H89.9079V97.9572H91.9481V95.917Z" fill="white"/>
<path d="M98.0688 95.917H96.0286V97.9572H98.0688V95.917Z" fill="white"/>
<path d="M26.6402 97.96H24.6V100H26.6402V97.96Z" fill="white"/>
<path d="M34.8053 97.96H32.7651V100H34.8053V97.96Z" fill="white"/>
<path d="M36.8455 97.96H34.8052V100H36.8455V97.96Z" fill="white"/>
<path d="M40.9259 97.96H38.8857V100H40.9259V97.96Z" fill="white"/>
<path d="M57.254 97.96H55.2137V100H57.254V97.96Z" fill="white"/>
<path d="M59.2942 97.96H57.254V100H59.2942V97.96Z" fill="white"/>
<path d="M65.4169 97.96H63.3767V100H65.4169V97.96Z" fill="white"/>
<path d="M67.4571 97.96H65.4169V100H67.4571V97.96Z" fill="white"/>
<path d="M69.4973 97.96H67.4571V100H69.4973V97.96Z" fill="white"/>
<path d="M75.6201 97.96H73.5799V100H75.6201V97.96Z" fill="white"/>
<path d="M77.6624 97.96H75.6222V100H77.6624V97.96Z" fill="white"/>
<path d="M79.7026 97.96H77.6624V100H79.7026V97.96Z" fill="white"/>
<path d="M83.783 97.96H81.7428V100H83.783V97.96Z" fill="white"/>
<path d="M85.8254 97.96H83.7852V100H85.8254V97.96Z" fill="white"/>
<path d="M89.9058 97.96H87.8656V100H89.9058V97.96Z" fill="white"/>
<path d="M98.0688 97.96H96.0286V100H98.0688V97.96Z" fill="white"/>
<path d="M100.111 97.96H98.0709V100H100.111V97.96Z" fill="white"/>
<path d="M9.51872 0H4.9875C2.78009 0 0.909192 1.46032 0.31025 3.45397C0.248874 3.65926 0.200197 3.87302 0.166335 4.08889C0.130356 4.32804 0.109192 4.57355 0.109192 4.82116V9.46032C0.109192 12.1206 2.29755 14.2836 4.9875 14.2836H7.25205H9.5166C12.2044 14.2836 14.3949 12.1206 14.3949 9.46032V4.82116C14.397 2.16296 12.2087 0 9.51872 0ZM12.2531 9.46032C12.2531 10.9376 11.0256 12.1397 9.51872 12.1397H7.25417H4.98961C3.48062 12.1397 2.25522 10.9376 2.25522 9.46032V4.82116C2.25522 4.35979 2.37586 3.92593 2.58538 3.54497C2.78856 3.17884 3.07427 2.86561 3.42136 2.62857C3.86581 2.32169 4.4076 2.14392 4.98961 2.14392H9.52083C11.0277 2.14392 12.2552 3.34603 12.2552 4.82328V9.46243L12.2531 9.46032Z" fill="white"/>
<path d="M95.2328 0H90.7016C88.4941 0 86.6232 1.4582 86.0243 3.45397C85.9629 3.65926 85.9143 3.87302 85.8804 4.08889C85.8444 4.32804 85.8232 4.57355 85.8232 4.82116V9.46032C85.8232 12.1206 88.0116 14.2836 90.7016 14.2836H92.9661H95.2307C97.9185 14.2836 100.109 12.1206 100.109 9.46032V4.82116C100.111 2.16296 97.9227 0 95.2328 0ZM97.9672 9.46032C97.9672 10.9376 96.7396 12.1397 95.2328 12.1397H92.9682H90.7037C89.1947 12.1397 87.9693 10.9376 87.9693 9.46032V4.82116C87.9693 4.35979 88.0899 3.92593 88.2994 3.54497C88.5026 3.17884 88.7883 2.86561 89.1354 2.62857C89.5799 2.32169 90.1217 2.14392 90.7037 2.14392H95.2349C96.7418 2.14392 97.9693 3.34603 97.9693 4.82328V9.46243L97.9672 9.46032Z" fill="white"/>
<path d="M9.51847 85.7168H4.98726C2.77985 85.7168 0.908948 87.175 0.310006 89.1708C0.24863 89.3761 0.199953 89.5898 0.166091 89.8057C0.130112 90.0448 0.108948 90.2903 0.108948 90.538V95.1771C0.108948 97.8374 2.29731 100 4.98726 100H7.25181H9.51636C12.2042 100 14.3947 97.8374 14.3947 95.1771V90.538C14.3947 87.8798 12.2063 85.7168 9.51636 85.7168H9.51847ZM12.2529 95.1771C12.2529 96.6544 11.0254 97.8565 9.51847 97.8565H7.25392H4.98937C3.48038 97.8565 2.25498 96.6544 2.25498 95.1771V90.538C2.25498 90.0766 2.37561 89.6427 2.58514 89.2618C2.78831 88.8956 3.07403 88.5824 3.42112 88.3454C3.86556 88.0385 4.40736 87.8607 4.98937 87.8607H9.52059C11.0275 87.8607 12.255 89.0628 12.255 90.5401V95.1792L12.2529 95.1771Z" fill="white"/>
<path d="M5.86772 10.2028C4.94285 10.2028 4.19153 9.46632 4.19153 8.5605V5.72029C4.19153 5.43669 4.2656 5.17214 4.39259 4.93934C4.51745 4.715 4.69312 4.52241 4.90476 4.37849C5.17777 4.19225 5.50793 4.08008 5.8656 4.08008H8.64021C9.56296 4.08008 10.3143 4.81659 10.3143 5.72029V8.5605C10.3143 9.46421 9.56296 10.2028 8.64021 10.2028H5.8656H5.86772Z" fill="white"/>
<path d="M91.582 10.2028C90.6571 10.2028 89.9058 9.46632 89.9058 8.5605V5.72029C89.9058 5.43669 89.9798 5.17214 90.1068 4.93934C90.2317 4.715 90.4073 4.52241 90.619 4.37849C90.892 4.19225 91.2222 4.08008 91.5798 4.08008H94.3544C95.2772 4.08008 96.0285 4.81659 96.0285 5.72029V8.5605C96.0285 9.46421 95.2772 10.2028 94.3544 10.2028H91.5798H91.582Z" fill="white"/>
<path d="M5.86772 95.9177C4.94285 95.9177 4.19153 95.1812 4.19153 94.2753V91.4351C4.19153 91.1515 4.2656 90.887 4.39259 90.6542C4.51745 90.4298 4.69312 90.2373 4.90476 90.0933C5.17777 89.9071 5.50793 89.7949 5.8656 89.7949H8.64021C9.56296 89.7949 10.3143 90.5314 10.3143 91.4351V94.2753C10.3143 95.1791 9.56296 95.9177 8.64021 95.9177H5.8656H5.86772Z" fill="white"/>
<path d="M59.1798 34.7979H41.0423C37.5968 34.7979 34.8052 37.5725 34.8052 40.9926V59.0095C34.8052 62.4317 37.5968 65.2042 41.0423 65.2042H59.1798C62.6253 65.2042 65.4169 62.4296 65.4169 59.0095V40.9926C65.4169 37.5703 62.6253 34.7979 59.1798 34.7979Z" fill="white"/>
<path d="M55.8825 49.5071C55.8571 46.8341 58.0709 45.5325 58.1725 45.4732C56.9196 43.6446 54.9767 43.3949 54.2952 43.3759C52.6635 43.2044 51.0804 44.3515 50.2487 44.3515C49.4169 44.3515 48.1196 43.3928 46.7418 43.4203C44.9661 43.4478 43.3047 44.4764 42.3947 46.07C40.5153 49.3251 41.9185 54.1081 43.7196 56.7367C44.619 58.0256 45.673 59.4626 47.0508 59.4118C48.3968 59.3568 48.9005 58.5547 50.528 58.5547C52.1555 58.5547 52.6127 59.4118 54.018 59.3822C55.4656 59.3568 56.3778 58.087 57.2455 56.7875C58.2868 55.3103 58.7037 53.8563 58.7227 53.7822C58.6868 53.7695 55.9122 52.7113 55.8846 49.5071" fill="black"/>
<path d="M53.2286 41.6445C53.9524 40.7366 54.4497 39.5027 54.3122 38.252C53.2624 38.2985 51.9502 38.9779 51.1947 39.8647C50.5259 40.6456 49.9291 41.9281 50.0836 43.1324C51.2603 43.2213 52.473 42.5377 53.2286 41.6445Z" fill="black"/>
</g>
<defs>
<clipPath id="clip0_751_10654">
<rect width="100" height="100" fill="white" transform="translate(0.111084)"/>
</clipPath>
</defs>
</svg>
