<svg width="101" height="100" viewBox="0 0 101 100" fill="none" xmlns="http://www.w3.org/2000/svg">
<g clip-path="url(#clip0_751_9602)">
<path d="M19.2563 0H17.2155V2.04082H19.2563V0Z" fill="white"/>
<path d="M21.2971 0H19.2563V2.04082H21.2971V0Z" fill="white"/>
<path d="M27.4195 0H25.3787V2.04082H27.4195V0Z" fill="white"/>
<path d="M29.4604 0H27.4196V2.04082H29.4604V0Z" fill="white"/>
<path d="M39.6644 0H37.6236V2.04082H39.6644V0Z" fill="white"/>
<path d="M41.7052 0H39.6644V2.04082H41.7052V0Z" fill="white"/>
<path d="M47.8277 0H45.7869V2.04082H47.8277V0Z" fill="white"/>
<path d="M49.8685 0H47.8277V2.04082H49.8685V0Z" fill="white"/>
<path d="M51.9093 0H49.8685V2.04082H51.9093V0Z" fill="white"/>
<path d="M55.991 0H53.9501V2.04082H55.991V0Z" fill="white"/>
<path d="M60.0726 0H58.0318V2.04082H60.0726V0Z" fill="white"/>
<path d="M66.1951 0H64.1542V2.04082H66.1951V0Z" fill="white"/>
<path d="M68.2359 0H66.1951V2.04082H68.2359V0Z" fill="white"/>
<path d="M74.3583 0H72.3175V2.04082H74.3583V0Z" fill="white"/>
<path d="M78.4399 0H76.3991V2.04082H78.4399V0Z" fill="white"/>
<path d="M84.5624 0H82.5216V2.04082H84.5624V0Z" fill="white"/>
<path d="M19.2563 2.04102H17.2155V4.08183H19.2563V2.04102Z" fill="white"/>
<path d="M37.6236 2.04102H35.5828V4.08183H37.6236V2.04102Z" fill="white"/>
<path d="M39.6644 2.04102H37.6236V4.08183H39.6644V2.04102Z" fill="white"/>
<path d="M51.9093 2.04102H49.8685V4.08183H51.9093V2.04102Z" fill="white"/>
<path d="M53.9501 2.04102H51.9093V4.08183H53.9501V2.04102Z" fill="white"/>
<path d="M58.0318 2.04102H55.991V4.08183H58.0318V2.04102Z" fill="white"/>
<path d="M60.0726 2.04102H58.0318V4.08183H60.0726V2.04102Z" fill="white"/>
<path d="M62.1134 2.04102H60.0726V4.08183H62.1134V2.04102Z" fill="white"/>
<path d="M64.1542 2.04102H62.1134V4.08183H64.1542V2.04102Z" fill="white"/>
<path d="M66.1951 2.04102H64.1542V4.08183H66.1951V2.04102Z" fill="white"/>
<path d="M72.3175 2.04102H70.2767V4.08183H72.3175V2.04102Z" fill="white"/>
<path d="M74.3583 2.04102H72.3175V4.08183H74.3583V2.04102Z" fill="white"/>
<path d="M78.4399 2.04102H76.3991V4.08183H78.4399V2.04102Z" fill="white"/>
<path d="M80.4808 2.04102H78.4399V4.08183H80.4808V2.04102Z" fill="white"/>
<path d="M82.5216 2.04102H80.4808V4.08183H82.5216V2.04102Z" fill="white"/>
<path d="M84.5624 2.04102H82.5216V4.08183H84.5624V2.04102Z" fill="white"/>
<path d="M19.2563 4.08203H17.2155V6.12285H19.2563V4.08203Z" fill="white"/>
<path d="M23.3379 4.08203H21.2971V6.12285H23.3379V4.08203Z" fill="white"/>
<path d="M25.3787 4.08203H23.3379V6.12285H25.3787V4.08203Z" fill="white"/>
<path d="M29.4604 4.08203H27.4196V6.12285H29.4604V4.08203Z" fill="white"/>
<path d="M33.542 4.08203H31.5012V6.12285H33.542V4.08203Z" fill="white"/>
<path d="M39.6644 4.08203H37.6236V6.12285H39.6644V4.08203Z" fill="white"/>
<path d="M41.7052 4.08203H39.6644V6.12285H41.7052V4.08203Z" fill="white"/>
<path d="M43.7461 4.08203H41.7053V6.12285H43.7461V4.08203Z" fill="white"/>
<path d="M47.8277 4.08203H45.7869V6.12285H47.8277V4.08203Z" fill="white"/>
<path d="M51.9093 4.08203H49.8685V6.12285H51.9093V4.08203Z" fill="white"/>
<path d="M53.9501 4.08203H51.9093V6.12285H53.9501V4.08203Z" fill="white"/>
<path d="M55.991 4.08203H53.9501V6.12285H55.991V4.08203Z" fill="white"/>
<path d="M60.0726 4.08203H58.0318V6.12285H60.0726V4.08203Z" fill="white"/>
<path d="M62.1134 4.08203H60.0726V6.12285H62.1134V4.08203Z" fill="white"/>
<path d="M82.5216 4.08203H80.4808V6.12285H82.5216V4.08203Z" fill="white"/>
<path d="M84.5624 4.08203H82.5216V6.12285H84.5624V4.08203Z" fill="white"/>
<path d="M23.3379 6.12207H21.2971V8.16289H23.3379V6.12207Z" fill="white"/>
<path d="M25.3787 6.12207H23.3379V8.16289H25.3787V6.12207Z" fill="white"/>
<path d="M27.4195 6.12207H25.3787V8.16289H27.4195V6.12207Z" fill="white"/>
<path d="M31.5011 6.12207H29.4603V8.16289H31.5011V6.12207Z" fill="white"/>
<path d="M33.542 6.12207H31.5012V8.16289H33.542V6.12207Z" fill="white"/>
<path d="M35.5828 6.12207H33.542V8.16289H35.5828V6.12207Z" fill="white"/>
<path d="M37.6236 6.12207H35.5828V8.16289H37.6236V6.12207Z" fill="white"/>
<path d="M39.6644 6.12207H37.6236V8.16289H39.6644V6.12207Z" fill="white"/>
<path d="M47.8277 6.12207H45.7869V8.16289H47.8277V6.12207Z" fill="white"/>
<path d="M49.8685 6.12207H47.8277V8.16289H49.8685V6.12207Z" fill="white"/>
<path d="M51.9093 6.12207H49.8685V8.16289H51.9093V6.12207Z" fill="white"/>
<path d="M53.9501 6.12207H51.9093V8.16289H53.9501V6.12207Z" fill="white"/>
<path d="M55.991 6.12207H53.9501V8.16289H55.991V6.12207Z" fill="white"/>
<path d="M64.1542 6.12207H62.1134V8.16289H64.1542V6.12207Z" fill="white"/>
<path d="M66.1951 6.12207H64.1542V8.16289H66.1951V6.12207Z" fill="white"/>
<path d="M70.2767 6.12207H68.2358V8.16289H70.2767V6.12207Z" fill="white"/>
<path d="M74.3583 6.12207H72.3175V8.16289H74.3583V6.12207Z" fill="white"/>
<path d="M76.3991 6.12207H74.3583V8.16289H76.3991V6.12207Z" fill="white"/>
<path d="M82.5216 6.12207H80.4808V8.16289H82.5216V6.12207Z" fill="white"/>
<path d="M23.3379 8.16309H21.2971V10.2039H23.3379V8.16309Z" fill="white"/>
<path d="M29.4604 8.16309H27.4196V10.2039H29.4604V8.16309Z" fill="white"/>
<path d="M31.5011 8.16309H29.4603V10.2039H31.5011V8.16309Z" fill="white"/>
<path d="M39.6644 8.16309H37.6236V10.2039H39.6644V8.16309Z" fill="white"/>
<path d="M41.7052 8.16309H39.6644V10.2039H41.7052V8.16309Z" fill="white"/>
<path d="M47.8277 8.16309H45.7869V10.2039H47.8277V8.16309Z" fill="white"/>
<path d="M49.8685 8.16309H47.8277V10.2039H49.8685V8.16309Z" fill="white"/>
<path d="M51.9093 8.16309H49.8685V10.2039H51.9093V8.16309Z" fill="white"/>
<path d="M53.9501 8.16309H51.9093V10.2039H53.9501V8.16309Z" fill="white"/>
<path d="M55.991 8.16309H53.9501V10.2039H55.991V8.16309Z" fill="white"/>
<path d="M58.0318 8.16309H55.991V10.2039H58.0318V8.16309Z" fill="white"/>
<path d="M60.0726 8.16309H58.0318V10.2039H60.0726V8.16309Z" fill="white"/>
<path d="M64.1542 8.16309H62.1134V10.2039H64.1542V8.16309Z" fill="white"/>
<path d="M66.1951 8.16309H64.1542V10.2039H66.1951V8.16309Z" fill="white"/>
<path d="M68.2359 8.16309H66.1951V10.2039H68.2359V8.16309Z" fill="white"/>
<path d="M76.3991 8.16309H74.3583V10.2039H76.3991V8.16309Z" fill="white"/>
<path d="M78.4399 8.16309H76.3991V10.2039H78.4399V8.16309Z" fill="white"/>
<path d="M19.2563 10.2041H17.2155V12.2449H19.2563V10.2041Z" fill="white"/>
<path d="M25.3787 10.2041H23.3379V12.2449H25.3787V10.2041Z" fill="white"/>
<path d="M27.4195 10.2041H25.3787V12.2449H27.4195V10.2041Z" fill="white"/>
<path d="M29.4604 10.2041H27.4196V12.2449H29.4604V10.2041Z" fill="white"/>
<path d="M31.5011 10.2041H29.4603V12.2449H31.5011V10.2041Z" fill="white"/>
<path d="M33.542 10.2041H31.5012V12.2449H33.542V10.2041Z" fill="white"/>
<path d="M43.7461 10.2041H41.7053V12.2449H43.7461V10.2041Z" fill="white"/>
<path d="M47.8277 10.2041H45.7869V12.2449H47.8277V10.2041Z" fill="white"/>
<path d="M55.991 10.2041H53.9501V12.2449H55.991V10.2041Z" fill="white"/>
<path d="M62.1134 10.2041H60.0726V12.2449H62.1134V10.2041Z" fill="white"/>
<path d="M64.1542 10.2041H62.1134V12.2449H64.1542V10.2041Z" fill="white"/>
<path d="M70.2767 10.2041H68.2358V12.2449H70.2767V10.2041Z" fill="white"/>
<path d="M72.3175 10.2041H70.2767V12.2449H72.3175V10.2041Z" fill="white"/>
<path d="M74.3583 10.2041H72.3175V12.2449H74.3583V10.2041Z" fill="white"/>
<path d="M80.4808 10.2041H78.4399V12.2449H80.4808V10.2041Z" fill="white"/>
<path d="M19.2563 12.2451H17.2155V14.2859H19.2563V12.2451Z" fill="white"/>
<path d="M23.3379 12.2451H21.2971V14.2859H23.3379V12.2451Z" fill="white"/>
<path d="M27.4195 12.2451H25.3787V14.2859H27.4195V12.2451Z" fill="white"/>
<path d="M31.5011 12.2451H29.4603V14.2859H31.5011V12.2451Z" fill="white"/>
<path d="M35.5828 12.2451H33.542V14.2859H35.5828V12.2451Z" fill="white"/>
<path d="M39.6644 12.2451H37.6236V14.2859H39.6644V12.2451Z" fill="white"/>
<path d="M43.7461 12.2451H41.7053V14.2859H43.7461V12.2451Z" fill="white"/>
<path d="M47.8277 12.2451H45.7869V14.2859H47.8277V12.2451Z" fill="white"/>
<path d="M51.9093 12.2451H49.8685V14.2859H51.9093V12.2451Z" fill="white"/>
<path d="M55.991 12.2451H53.9501V14.2859H55.991V12.2451Z" fill="white"/>
<path d="M60.0726 12.2451H58.0318V14.2859H60.0726V12.2451Z" fill="white"/>
<path d="M64.1542 12.2451H62.1134V14.2859H64.1542V12.2451Z" fill="white"/>
<path d="M68.2359 12.2451H66.1951V14.2859H68.2359V12.2451Z" fill="white"/>
<path d="M72.3175 12.2451H70.2767V14.2859H72.3175V12.2451Z" fill="white"/>
<path d="M76.3991 12.2451H74.3583V14.2859H76.3991V12.2451Z" fill="white"/>
<path d="M80.4808 12.2451H78.4399V14.2859H80.4808V12.2451Z" fill="white"/>
<path d="M84.5624 12.2451H82.5216V14.2859H84.5624V12.2451Z" fill="white"/>
<path d="M19.2563 14.2861H17.2155V16.3269H19.2563V14.2861Z" fill="white"/>
<path d="M29.4604 14.2861H27.4196V16.3269H29.4604V14.2861Z" fill="white"/>
<path d="M35.5828 14.2861H33.542V16.3269H35.5828V14.2861Z" fill="white"/>
<path d="M37.6236 14.2861H35.5828V16.3269H37.6236V14.2861Z" fill="white"/>
<path d="M39.6644 14.2861H37.6236V16.3269H39.6644V14.2861Z" fill="white"/>
<path d="M41.7052 14.2861H39.6644V16.3269H41.7052V14.2861Z" fill="white"/>
<path d="M43.7461 14.2861H41.7053V16.3269H43.7461V14.2861Z" fill="white"/>
<path d="M45.7868 14.2861H43.746V16.3269H45.7868V14.2861Z" fill="white"/>
<path d="M47.8277 14.2861H45.7869V16.3269H47.8277V14.2861Z" fill="white"/>
<path d="M55.991 14.2861H53.9501V16.3269H55.991V14.2861Z" fill="white"/>
<path d="M58.0318 14.2861H55.991V16.3269H58.0318V14.2861Z" fill="white"/>
<path d="M66.1951 14.2861H64.1542V16.3269H66.1951V14.2861Z" fill="white"/>
<path d="M72.3175 14.2861H70.2767V16.3269H72.3175V14.2861Z" fill="white"/>
<path d="M74.3583 14.2861H72.3175V16.3269H74.3583V14.2861Z" fill="white"/>
<path d="M76.3991 14.2861H74.3583V16.3269H76.3991V14.2861Z" fill="white"/>
<path d="M78.4399 14.2861H76.3991V16.3269H78.4399V14.2861Z" fill="white"/>
<path d="M80.4808 14.2861H78.4399V16.3269H80.4808V14.2861Z" fill="white"/>
<path d="M82.5216 14.2861H80.4808V16.3269H82.5216V14.2861Z" fill="white"/>
<path d="M7.01134 16.3262H4.97052V18.367H7.01134V16.3262Z" fill="white"/>
<path d="M9.05217 16.3262H7.01135V18.367H9.05217V16.3262Z" fill="white"/>
<path d="M11.093 16.3262H9.05219V18.367H11.093V16.3262Z" fill="white"/>
<path d="M15.1746 16.3262H13.1338V18.367H15.1746V16.3262Z" fill="white"/>
<path d="M19.2563 16.3262H17.2155V18.367H19.2563V16.3262Z" fill="white"/>
<path d="M21.2971 16.3262H19.2563V18.367H21.2971V16.3262Z" fill="white"/>
<path d="M27.4195 16.3262H25.3787V18.367H27.4195V16.3262Z" fill="white"/>
<path d="M31.5011 16.3262H29.4603V18.367H31.5011V16.3262Z" fill="white"/>
<path d="M33.542 16.3262H31.5012V18.367H33.542V16.3262Z" fill="white"/>
<path d="M43.7461 16.3262H41.7053V18.367H43.7461V16.3262Z" fill="white"/>
<path d="M45.7868 16.3262H43.746V18.367H45.7868V16.3262Z" fill="white"/>
<path d="M47.8277 16.3262H45.7869V18.367H47.8277V16.3262Z" fill="white"/>
<path d="M49.8685 16.3262H47.8277V18.367H49.8685V16.3262Z" fill="white"/>
<path d="M51.9093 16.3262H49.8685V18.367H51.9093V16.3262Z" fill="white"/>
<path d="M53.9501 16.3262H51.9093V18.367H53.9501V16.3262Z" fill="white"/>
<path d="M55.991 16.3262H53.9501V18.367H55.991V16.3262Z" fill="white"/>
<path d="M60.0726 16.3262H58.0318V18.367H60.0726V16.3262Z" fill="white"/>
<path d="M62.1134 16.3262H60.0726V18.367H62.1134V16.3262Z" fill="white"/>
<path d="M64.1542 16.3262H62.1134V18.367H64.1542V16.3262Z" fill="white"/>
<path d="M66.1951 16.3262H64.1542V18.367H66.1951V16.3262Z" fill="white"/>
<path d="M68.2359 16.3262H66.1951V18.367H68.2359V16.3262Z" fill="white"/>
<path d="M76.3991 16.3262H74.3583V18.367H76.3991V16.3262Z" fill="white"/>
<path d="M78.4399 16.3262H76.3991V18.367H78.4399V16.3262Z" fill="white"/>
<path d="M80.4808 16.3262H78.4399V18.367H80.4808V16.3262Z" fill="white"/>
<path d="M82.5216 16.3262H80.4808V18.367H82.5216V16.3262Z" fill="white"/>
<path d="M84.5624 16.3262H82.5216V18.367H84.5624V16.3262Z" fill="white"/>
<path d="M86.6032 16.3262H84.5624V18.367H86.6032V16.3262Z" fill="white"/>
<path d="M88.644 16.3262H86.6032V18.367H88.644V16.3262Z" fill="white"/>
<path d="M90.6849 16.3262H88.644V18.367H90.6849V16.3262Z" fill="white"/>
<path d="M96.8073 16.3262H94.7665V18.367H96.8073V16.3262Z" fill="white"/>
<path d="M98.8481 16.3262H96.8073V18.367H98.8481V16.3262Z" fill="white"/>
<path d="M100.889 16.3262H98.8481V18.367H100.889V16.3262Z" fill="white"/>
<path d="M2.92973 18.3672H0.888916V20.408H2.92973V18.3672Z" fill="white"/>
<path d="M4.97056 18.3672H2.92975V20.408H4.97056V18.3672Z" fill="white"/>
<path d="M9.05217 18.3672H7.01135V20.408H9.05217V18.3672Z" fill="white"/>
<path d="M11.093 18.3672H9.05219V20.408H11.093V18.3672Z" fill="white"/>
<path d="M17.2154 18.3672H15.1746V20.408H17.2154V18.3672Z" fill="white"/>
<path d="M23.3379 18.3672H21.2971V20.408H23.3379V18.3672Z" fill="white"/>
<path d="M25.3787 18.3672H23.3379V20.408H25.3787V18.3672Z" fill="white"/>
<path d="M31.5011 18.3672H29.4603V20.408H31.5011V18.3672Z" fill="white"/>
<path d="M33.542 18.3672H31.5012V20.408H33.542V18.3672Z" fill="white"/>
<path d="M37.6236 18.3672H35.5828V20.408H37.6236V18.3672Z" fill="white"/>
<path d="M39.6644 18.3672H37.6236V20.408H39.6644V18.3672Z" fill="white"/>
<path d="M41.7052 18.3672H39.6644V20.408H41.7052V18.3672Z" fill="white"/>
<path d="M47.8277 18.3672H45.7869V20.408H47.8277V18.3672Z" fill="white"/>
<path d="M51.9093 18.3672H49.8685V20.408H51.9093V18.3672Z" fill="white"/>
<path d="M62.1134 18.3672H60.0726V20.408H62.1134V18.3672Z" fill="white"/>
<path d="M64.1542 18.3672H62.1134V20.408H64.1542V18.3672Z" fill="white"/>
<path d="M66.1951 18.3672H64.1542V20.408H66.1951V18.3672Z" fill="white"/>
<path d="M68.2359 18.3672H66.1951V20.408H68.2359V18.3672Z" fill="white"/>
<path d="M74.3583 18.3672H72.3175V20.408H74.3583V18.3672Z" fill="white"/>
<path d="M76.3991 18.3672H74.3583V20.408H76.3991V18.3672Z" fill="white"/>
<path d="M78.4399 18.3672H76.3991V20.408H78.4399V18.3672Z" fill="white"/>
<path d="M88.644 18.3672H86.6032V20.408H88.644V18.3672Z" fill="white"/>
<path d="M94.7665 18.3672H92.7256V20.408H94.7665V18.3672Z" fill="white"/>
<path d="M98.8481 18.3672H96.8073V20.408H98.8481V18.3672Z" fill="white"/>
<path d="M4.97056 20.4082H2.92975V22.449H4.97056V20.4082Z" fill="white"/>
<path d="M9.05217 20.4082H7.01135V22.449H9.05217V20.4082Z" fill="white"/>
<path d="M15.1746 20.4082H13.1338V22.449H15.1746V20.4082Z" fill="white"/>
<path d="M21.2971 20.4082H19.2563V22.449H21.2971V20.4082Z" fill="white"/>
<path d="M23.3379 20.4082H21.2971V22.449H23.3379V20.4082Z" fill="white"/>
<path d="M27.4195 20.4082H25.3787V22.449H27.4195V20.4082Z" fill="white"/>
<path d="M29.4604 20.4082H27.4196V22.449H29.4604V20.4082Z" fill="white"/>
<path d="M33.542 20.4082H31.5012V22.449H33.542V20.4082Z" fill="white"/>
<path d="M37.6236 20.4082H35.5828V22.449H37.6236V20.4082Z" fill="white"/>
<path d="M41.7052 20.4082H39.6644V22.449H41.7052V20.4082Z" fill="white"/>
<path d="M45.7868 20.4082H43.746V22.449H45.7868V20.4082Z" fill="white"/>
<path d="M51.9093 20.4082H49.8685V22.449H51.9093V20.4082Z" fill="white"/>
<path d="M58.0318 20.4082H55.991V22.449H58.0318V20.4082Z" fill="white"/>
<path d="M60.0726 20.4082H58.0318V22.449H60.0726V20.4082Z" fill="white"/>
<path d="M64.1542 20.4082H62.1134V22.449H64.1542V20.4082Z" fill="white"/>
<path d="M68.2359 20.4082H66.1951V22.449H68.2359V20.4082Z" fill="white"/>
<path d="M70.2767 20.4082H68.2358V22.449H70.2767V20.4082Z" fill="white"/>
<path d="M72.3175 20.4082H70.2767V22.449H72.3175V20.4082Z" fill="white"/>
<path d="M76.3991 20.4082H74.3583V22.449H76.3991V20.4082Z" fill="white"/>
<path d="M80.4808 20.4082H78.4399V22.449H80.4808V20.4082Z" fill="white"/>
<path d="M82.5216 20.4082H80.4808V22.449H82.5216V20.4082Z" fill="white"/>
<path d="M84.5624 20.4082H82.5216V22.449H84.5624V20.4082Z" fill="white"/>
<path d="M86.6032 20.4082H84.5624V22.449H86.6032V20.4082Z" fill="white"/>
<path d="M90.6849 20.4082H88.644V22.449H90.6849V20.4082Z" fill="white"/>
<path d="M94.7665 20.4082H92.7256V22.449H94.7665V20.4082Z" fill="white"/>
<path d="M100.889 20.4082H98.8481V22.449H100.889V20.4082Z" fill="white"/>
<path d="M4.97056 22.4492H2.92975V24.49H4.97056V22.4492Z" fill="white"/>
<path d="M9.05217 22.4492H7.01135V24.49H9.05217V22.4492Z" fill="white"/>
<path d="M13.1338 22.4492H11.093V24.49H13.1338V22.4492Z" fill="white"/>
<path d="M23.3379 22.4492H21.2971V24.49H23.3379V22.4492Z" fill="white"/>
<path d="M29.4604 22.4492H27.4196V24.49H29.4604V22.4492Z" fill="white"/>
<path d="M35.5828 22.4492H33.542V24.49H35.5828V22.4492Z" fill="white"/>
<path d="M37.6236 22.4492H35.5828V24.49H37.6236V22.4492Z" fill="white"/>
<path d="M39.6644 22.4492H37.6236V24.49H39.6644V22.4492Z" fill="white"/>
<path d="M47.8277 22.4492H45.7869V24.49H47.8277V22.4492Z" fill="white"/>
<path d="M55.991 22.4492H53.9501V24.49H55.991V22.4492Z" fill="white"/>
<path d="M62.1134 22.4492H60.0726V24.49H62.1134V22.4492Z" fill="white"/>
<path d="M64.1542 22.4492H62.1134V24.49H64.1542V22.4492Z" fill="white"/>
<path d="M66.1951 22.4492H64.1542V24.49H66.1951V22.4492Z" fill="white"/>
<path d="M68.2359 22.4492H66.1951V24.49H68.2359V22.4492Z" fill="white"/>
<path d="M72.3175 22.4492H70.2767V24.49H72.3175V22.4492Z" fill="white"/>
<path d="M74.3583 22.4492H72.3175V24.49H74.3583V22.4492Z" fill="white"/>
<path d="M78.4399 22.4492H76.3991V24.49H78.4399V22.4492Z" fill="white"/>
<path d="M84.5624 22.4492H82.5216V24.49H84.5624V22.4492Z" fill="white"/>
<path d="M86.6032 22.4492H84.5624V24.49H86.6032V22.4492Z" fill="white"/>
<path d="M90.6849 22.4492H88.644V24.49H90.6849V22.4492Z" fill="white"/>
<path d="M92.7256 22.4492H90.6848V24.49H92.7256V22.4492Z" fill="white"/>
<path d="M98.8481 22.4492H96.8073V24.49H98.8481V22.4492Z" fill="white"/>
<path d="M2.92973 24.4902H0.888916V26.5311H2.92973V24.4902Z" fill="white"/>
<path d="M7.01134 24.4902H4.97052V26.5311H7.01134V24.4902Z" fill="white"/>
<path d="M15.1746 24.4902H13.1338V26.5311H15.1746V24.4902Z" fill="white"/>
<path d="M17.2154 24.4902H15.1746V26.5311H17.2154V24.4902Z" fill="white"/>
<path d="M21.2971 24.4902H19.2563V26.5311H21.2971V24.4902Z" fill="white"/>
<path d="M29.4604 24.4902H27.4196V26.5311H29.4604V24.4902Z" fill="white"/>
<path d="M31.5011 24.4902H29.4603V26.5311H31.5011V24.4902Z" fill="white"/>
<path d="M35.5828 24.4902H33.542V26.5311H35.5828V24.4902Z" fill="white"/>
<path d="M39.6644 24.4902H37.6236V26.5311H39.6644V24.4902Z" fill="white"/>
<path d="M43.7461 24.4902H41.7053V26.5311H43.7461V24.4902Z" fill="white"/>
<path d="M45.7868 24.4902H43.746V26.5311H45.7868V24.4902Z" fill="white"/>
<path d="M47.8277 24.4902H45.7869V26.5311H47.8277V24.4902Z" fill="white"/>
<path d="M49.8685 24.4902H47.8277V26.5311H49.8685V24.4902Z" fill="white"/>
<path d="M53.9501 24.4902H51.9093V26.5311H53.9501V24.4902Z" fill="white"/>
<path d="M58.0318 24.4902H55.991V26.5311H58.0318V24.4902Z" fill="white"/>
<path d="M66.1951 24.4902H64.1542V26.5311H66.1951V24.4902Z" fill="white"/>
<path d="M76.3991 24.4902H74.3583V26.5311H76.3991V24.4902Z" fill="white"/>
<path d="M82.5216 24.4902H80.4808V26.5311H82.5216V24.4902Z" fill="white"/>
<path d="M84.5624 24.4902H82.5216V26.5311H84.5624V24.4902Z" fill="white"/>
<path d="M90.6849 24.4902H88.644V26.5311H90.6849V24.4902Z" fill="white"/>
<path d="M94.7665 24.4902H92.7256V26.5311H94.7665V24.4902Z" fill="white"/>
<path d="M96.8073 24.4902H94.7665V26.5311H96.8073V24.4902Z" fill="white"/>
<path d="M100.889 24.4902H98.8481V26.5311H100.889V24.4902Z" fill="white"/>
<path d="M4.97056 26.5303H2.92975V28.5711H4.97056V26.5303Z" fill="white"/>
<path d="M9.05217 26.5303H7.01135V28.5711H9.05217V26.5303Z" fill="white"/>
<path d="M11.093 26.5303H9.05219V28.5711H11.093V26.5303Z" fill="white"/>
<path d="M13.1338 26.5303H11.093V28.5711H13.1338V26.5303Z" fill="white"/>
<path d="M21.2971 26.5303H19.2563V28.5711H21.2971V26.5303Z" fill="white"/>
<path d="M23.3379 26.5303H21.2971V28.5711H23.3379V26.5303Z" fill="white"/>
<path d="M25.3787 26.5303H23.3379V28.5711H25.3787V26.5303Z" fill="white"/>
<path d="M27.4195 26.5303H25.3787V28.5711H27.4195V26.5303Z" fill="white"/>
<path d="M33.542 26.5303H31.5012V28.5711H33.542V26.5303Z" fill="white"/>
<path d="M35.5828 26.5303H33.542V28.5711H35.5828V26.5303Z" fill="white"/>
<path d="M37.6236 26.5303H35.5828V28.5711H37.6236V26.5303Z" fill="white"/>
<path d="M41.7052 26.5303H39.6644V28.5711H41.7052V26.5303Z" fill="white"/>
<path d="M43.7461 26.5303H41.7053V28.5711H43.7461V26.5303Z" fill="white"/>
<path d="M49.8685 26.5303H47.8277V28.5711H49.8685V26.5303Z" fill="white"/>
<path d="M58.0318 26.5303H55.991V28.5711H58.0318V26.5303Z" fill="white"/>
<path d="M60.0726 26.5303H58.0318V28.5711H60.0726V26.5303Z" fill="white"/>
<path d="M62.1134 26.5303H60.0726V28.5711H62.1134V26.5303Z" fill="white"/>
<path d="M76.3991 26.5303H74.3583V28.5711H76.3991V26.5303Z" fill="white"/>
<path d="M82.5216 26.5303H80.4808V28.5711H82.5216V26.5303Z" fill="white"/>
<path d="M86.6032 26.5303H84.5624V28.5711H86.6032V26.5303Z" fill="white"/>
<path d="M88.644 26.5303H86.6032V28.5711H88.644V26.5303Z" fill="white"/>
<path d="M90.6849 26.5303H88.644V28.5711H90.6849V26.5303Z" fill="white"/>
<path d="M96.8073 26.5303H94.7665V28.5711H96.8073V26.5303Z" fill="white"/>
<path d="M7.01134 28.5713H4.97052V30.6121H7.01134V28.5713Z" fill="white"/>
<path d="M15.1746 28.5713H13.1338V30.6121H15.1746V28.5713Z" fill="white"/>
<path d="M21.2971 28.5713H19.2563V30.6121H21.2971V28.5713Z" fill="white"/>
<path d="M23.3379 28.5713H21.2971V30.6121H23.3379V28.5713Z" fill="white"/>
<path d="M29.4604 28.5713H27.4196V30.6121H29.4604V28.5713Z" fill="white"/>
<path d="M33.542 28.5713H31.5012V30.6121H33.542V28.5713Z" fill="white"/>
<path d="M41.7052 28.5713H39.6644V30.6121H41.7052V28.5713Z" fill="white"/>
<path d="M43.7461 28.5713H41.7053V30.6121H43.7461V28.5713Z" fill="white"/>
<path d="M45.7868 28.5713H43.746V30.6121H45.7868V28.5713Z" fill="white"/>
<path d="M49.8685 28.5713H47.8277V30.6121H49.8685V28.5713Z" fill="white"/>
<path d="M51.9093 28.5713H49.8685V30.6121H51.9093V28.5713Z" fill="white"/>
<path d="M58.0318 28.5713H55.991V30.6121H58.0318V28.5713Z" fill="white"/>
<path d="M60.0726 28.5713H58.0318V30.6121H60.0726V28.5713Z" fill="white"/>
<path d="M64.1542 28.5713H62.1134V30.6121H64.1542V28.5713Z" fill="white"/>
<path d="M68.2359 28.5713H66.1951V30.6121H68.2359V28.5713Z" fill="white"/>
<path d="M70.2767 28.5713H68.2358V30.6121H70.2767V28.5713Z" fill="white"/>
<path d="M72.3175 28.5713H70.2767V30.6121H72.3175V28.5713Z" fill="white"/>
<path d="M74.3583 28.5713H72.3175V30.6121H74.3583V28.5713Z" fill="white"/>
<path d="M80.4808 28.5713H78.4399V30.6121H80.4808V28.5713Z" fill="white"/>
<path d="M82.5216 28.5713H80.4808V30.6121H82.5216V28.5713Z" fill="white"/>
<path d="M84.5624 28.5713H82.5216V30.6121H84.5624V28.5713Z" fill="white"/>
<path d="M94.7665 28.5713H92.7256V30.6121H94.7665V28.5713Z" fill="white"/>
<path d="M96.8073 28.5713H94.7665V30.6121H96.8073V28.5713Z" fill="white"/>
<path d="M98.8481 28.5713H96.8073V30.6121H98.8481V28.5713Z" fill="white"/>
<path d="M100.889 28.5713H98.8481V30.6121H100.889V28.5713Z" fill="white"/>
<path d="M4.97056 30.6123H2.92975V32.6531H4.97056V30.6123Z" fill="white"/>
<path d="M11.093 30.6123H9.05219V32.6531H11.093V30.6123Z" fill="white"/>
<path d="M13.1338 30.6123H11.093V32.6531H13.1338V30.6123Z" fill="white"/>
<path d="M17.2154 30.6123H15.1746V32.6531H17.2154V30.6123Z" fill="white"/>
<path d="M19.2563 30.6123H17.2155V32.6531H19.2563V30.6123Z" fill="white"/>
<path d="M25.3787 30.6123H23.3379V32.6531H25.3787V30.6123Z" fill="white"/>
<path d="M29.4604 30.6123H27.4196V32.6531H29.4604V30.6123Z" fill="white"/>
<path d="M33.542 30.6123H31.5012V32.6531H33.542V30.6123Z" fill="white"/>
<path d="M35.5828 30.6123H33.542V32.6531H35.5828V30.6123Z" fill="white"/>
<path d="M39.6644 30.6123H37.6236V32.6531H39.6644V30.6123Z" fill="white"/>
<path d="M41.7052 30.6123H39.6644V32.6531H41.7052V30.6123Z" fill="white"/>
<path d="M43.7461 30.6123H41.7053V32.6531H43.7461V30.6123Z" fill="white"/>
<path d="M45.7868 30.6123H43.746V32.6531H45.7868V30.6123Z" fill="white"/>
<path d="M49.8685 30.6123H47.8277V32.6531H49.8685V30.6123Z" fill="white"/>
<path d="M51.9093 30.6123H49.8685V32.6531H51.9093V30.6123Z" fill="white"/>
<path d="M55.991 30.6123H53.9501V32.6531H55.991V30.6123Z" fill="white"/>
<path d="M62.1134 30.6123H60.0726V32.6531H62.1134V30.6123Z" fill="white"/>
<path d="M68.2359 30.6123H66.1951V32.6531H68.2359V30.6123Z" fill="white"/>
<path d="M72.3175 30.6123H70.2767V32.6531H72.3175V30.6123Z" fill="white"/>
<path d="M78.4399 30.6123H76.3991V32.6531H78.4399V30.6123Z" fill="white"/>
<path d="M80.4808 30.6123H78.4399V32.6531H80.4808V30.6123Z" fill="white"/>
<path d="M82.5216 30.6123H80.4808V32.6531H82.5216V30.6123Z" fill="white"/>
<path d="M84.5624 30.6123H82.5216V32.6531H84.5624V30.6123Z" fill="white"/>
<path d="M88.644 30.6123H86.6032V32.6531H88.644V30.6123Z" fill="white"/>
<path d="M92.7256 30.6123H90.6848V32.6531H92.7256V30.6123Z" fill="white"/>
<path d="M96.8073 30.6123H94.7665V32.6531H96.8073V30.6123Z" fill="white"/>
<path d="M9.05217 32.6533H7.01135V34.6941H9.05217V32.6533Z" fill="white"/>
<path d="M11.093 32.6533H9.05219V34.6941H11.093V32.6533Z" fill="white"/>
<path d="M15.1746 32.6533H13.1338V34.6941H15.1746V32.6533Z" fill="white"/>
<path d="M19.2563 32.6533H17.2155V34.6941H19.2563V32.6533Z" fill="white"/>
<path d="M25.3787 32.6533H23.3379V34.6941H25.3787V32.6533Z" fill="white"/>
<path d="M29.4604 32.6533H27.4196V34.6941H29.4604V32.6533Z" fill="white"/>
<path d="M31.5011 32.6533H29.4603V34.6941H31.5011V32.6533Z" fill="white"/>
<path d="M33.542 32.6533H31.5012V34.6941H33.542V32.6533Z" fill="white"/>
<path d="M39.6644 32.6533H37.6236V34.6941H39.6644V32.6533Z" fill="white"/>
<path d="M43.7461 32.6533H41.7053V34.6941H43.7461V32.6533Z" fill="white"/>
<path d="M47.8277 32.6533H45.7869V34.6941H47.8277V32.6533Z" fill="white"/>
<path d="M53.9501 32.6533H51.9093V34.6941H53.9501V32.6533Z" fill="white"/>
<path d="M58.0318 32.6533H55.991V34.6941H58.0318V32.6533Z" fill="white"/>
<path d="M60.0726 32.6533H58.0318V34.6941H60.0726V32.6533Z" fill="white"/>
<path d="M64.1542 32.6533H62.1134V34.6941H64.1542V32.6533Z" fill="white"/>
<path d="M66.1951 32.6533H64.1542V34.6941H66.1951V32.6533Z" fill="white"/>
<path d="M70.2767 32.6533H68.2358V34.6941H70.2767V32.6533Z" fill="white"/>
<path d="M72.3175 32.6533H70.2767V34.6941H72.3175V32.6533Z" fill="white"/>
<path d="M74.3583 32.6533H72.3175V34.6941H74.3583V32.6533Z" fill="white"/>
<path d="M76.3991 32.6533H74.3583V34.6941H76.3991V32.6533Z" fill="white"/>
<path d="M80.4808 32.6533H78.4399V34.6941H80.4808V32.6533Z" fill="white"/>
<path d="M86.6032 32.6533H84.5624V34.6941H86.6032V32.6533Z" fill="white"/>
<path d="M88.644 32.6533H86.6032V34.6941H88.644V32.6533Z" fill="white"/>
<path d="M90.6849 32.6533H88.644V34.6941H90.6849V32.6533Z" fill="white"/>
<path d="M94.7665 32.6533H92.7256V34.6941H94.7665V32.6533Z" fill="white"/>
<path d="M100.889 32.6533H98.8481V34.6941H100.889V32.6533Z" fill="white"/>
<path d="M7.01134 34.6943H4.97052V36.7352H7.01134V34.6943Z" fill="white"/>
<path d="M13.1338 34.6943H11.093V36.7352H13.1338V34.6943Z" fill="white"/>
<path d="M17.2154 34.6943H15.1746V36.7352H17.2154V34.6943Z" fill="white"/>
<path d="M19.2563 34.6943H17.2155V36.7352H19.2563V34.6943Z" fill="white"/>
<path d="M23.3379 34.6943H21.2971V36.7352H23.3379V34.6943Z" fill="white"/>
<path d="M25.3787 34.6943H23.3379V36.7352H25.3787V34.6943Z" fill="white"/>
<path d="M29.4604 34.6943H27.4196V36.7352H29.4604V34.6943Z" fill="white"/>
<path d="M35.5828 34.6943H33.542V36.7352H35.5828V34.6943Z" fill="white"/>
<path d="M68.2359 34.6943H66.1951V36.7352H68.2359V34.6943Z" fill="white"/>
<path d="M72.3175 34.6943H70.2767V36.7352H72.3175V34.6943Z" fill="white"/>
<path d="M74.3583 34.6943H72.3175V36.7352H74.3583V34.6943Z" fill="white"/>
<path d="M78.4399 34.6943H76.3991V36.7352H78.4399V34.6943Z" fill="white"/>
<path d="M80.4808 34.6943H78.4399V36.7352H80.4808V34.6943Z" fill="white"/>
<path d="M82.5216 34.6943H80.4808V36.7352H82.5216V34.6943Z" fill="white"/>
<path d="M88.644 34.6943H86.6032V36.7352H88.644V34.6943Z" fill="white"/>
<path d="M90.6849 34.6943H88.644V36.7352H90.6849V34.6943Z" fill="white"/>
<path d="M92.7256 34.6943H90.6848V36.7352H92.7256V34.6943Z" fill="white"/>
<path d="M94.7665 34.6943H92.7256V36.7352H94.7665V34.6943Z" fill="white"/>
<path d="M96.8073 34.6943H94.7665V36.7352H96.8073V34.6943Z" fill="white"/>
<path d="M4.97056 36.7344H2.92975V38.7752H4.97056V36.7344Z" fill="white"/>
<path d="M7.01134 36.7344H4.97052V38.7752H7.01134V36.7344Z" fill="white"/>
<path d="M13.1338 36.7344H11.093V38.7752H13.1338V36.7344Z" fill="white"/>
<path d="M15.1746 36.7344H13.1338V38.7752H15.1746V36.7344Z" fill="white"/>
<path d="M17.2154 36.7344H15.1746V38.7752H17.2154V36.7344Z" fill="white"/>
<path d="M21.2971 36.7344H19.2563V38.7752H21.2971V36.7344Z" fill="white"/>
<path d="M23.3379 36.7344H21.2971V38.7752H23.3379V36.7344Z" fill="white"/>
<path d="M25.3787 36.7344H23.3379V38.7752H25.3787V36.7344Z" fill="white"/>
<path d="M27.4195 36.7344H25.3787V38.7752H27.4195V36.7344Z" fill="white"/>
<path d="M29.4604 36.7344H27.4196V38.7752H29.4604V36.7344Z" fill="white"/>
<path d="M31.5011 36.7344H29.4603V38.7752H31.5011V36.7344Z" fill="white"/>
<path d="M33.542 36.7344H31.5012V38.7752H33.542V36.7344Z" fill="white"/>
<path d="M68.2359 36.7344H66.1951V38.7752H68.2359V36.7344Z" fill="white"/>
<path d="M70.2767 36.7344H68.2358V38.7752H70.2767V36.7344Z" fill="white"/>
<path d="M76.3991 36.7344H74.3583V38.7752H76.3991V36.7344Z" fill="white"/>
<path d="M86.6032 36.7344H84.5624V38.7752H86.6032V36.7344Z" fill="white"/>
<path d="M88.644 36.7344H86.6032V38.7752H88.644V36.7344Z" fill="white"/>
<path d="M90.6849 36.7344H88.644V38.7752H90.6849V36.7344Z" fill="white"/>
<path d="M94.7665 36.7344H92.7256V38.7752H94.7665V36.7344Z" fill="white"/>
<path d="M98.8481 36.7344H96.8073V38.7752H98.8481V36.7344Z" fill="white"/>
<path d="M100.889 36.7344H98.8481V38.7752H100.889V36.7344Z" fill="white"/>
<path d="M2.92973 38.7754H0.888916V40.8162H2.92973V38.7754Z" fill="white"/>
<path d="M4.97056 38.7754H2.92975V40.8162H4.97056V38.7754Z" fill="white"/>
<path d="M7.01134 38.7754H4.97052V40.8162H7.01134V38.7754Z" fill="white"/>
<path d="M9.05217 38.7754H7.01135V40.8162H9.05217V38.7754Z" fill="white"/>
<path d="M11.093 38.7754H9.05219V40.8162H11.093V38.7754Z" fill="white"/>
<path d="M17.2154 38.7754H15.1746V40.8162H17.2154V38.7754Z" fill="white"/>
<path d="M19.2563 38.7754H17.2155V40.8162H19.2563V38.7754Z" fill="white"/>
<path d="M25.3787 38.7754H23.3379V40.8162H25.3787V38.7754Z" fill="white"/>
<path d="M29.4604 38.7754H27.4196V40.8162H29.4604V38.7754Z" fill="white"/>
<path d="M31.5011 38.7754H29.4603V40.8162H31.5011V38.7754Z" fill="white"/>
<path d="M35.5828 38.7754H33.542V40.8162H35.5828V38.7754Z" fill="white"/>
<path d="M70.2767 38.7754H68.2358V40.8162H70.2767V38.7754Z" fill="white"/>
<path d="M74.3583 38.7754H72.3175V40.8162H74.3583V38.7754Z" fill="white"/>
<path d="M78.4399 38.7754H76.3991V40.8162H78.4399V38.7754Z" fill="white"/>
<path d="M80.4808 38.7754H78.4399V40.8162H80.4808V38.7754Z" fill="white"/>
<path d="M82.5216 38.7754H80.4808V40.8162H82.5216V38.7754Z" fill="white"/>
<path d="M88.644 38.7754H86.6032V40.8162H88.644V38.7754Z" fill="white"/>
<path d="M90.6849 38.7754H88.644V40.8162H90.6849V38.7754Z" fill="white"/>
<path d="M92.7256 38.7754H90.6848V40.8162H92.7256V38.7754Z" fill="white"/>
<path d="M98.8481 38.7754H96.8073V40.8162H98.8481V38.7754Z" fill="white"/>
<path d="M2.92973 40.8164H0.888916V42.8572H2.92973V40.8164Z" fill="white"/>
<path d="M7.01134 40.8164H4.97052V42.8572H7.01134V40.8164Z" fill="white"/>
<path d="M15.1746 40.8164H13.1338V42.8572H15.1746V40.8164Z" fill="white"/>
<path d="M31.5011 40.8164H29.4603V42.8572H31.5011V40.8164Z" fill="white"/>
<path d="M35.5828 40.8164H33.542V42.8572H35.5828V40.8164Z" fill="white"/>
<path d="M74.3583 40.8164H72.3175V42.8572H74.3583V40.8164Z" fill="white"/>
<path d="M76.3991 40.8164H74.3583V42.8572H76.3991V40.8164Z" fill="white"/>
<path d="M78.4399 40.8164H76.3991V42.8572H78.4399V40.8164Z" fill="white"/>
<path d="M80.4808 40.8164H78.4399V42.8572H80.4808V40.8164Z" fill="white"/>
<path d="M82.5216 40.8164H80.4808V42.8572H82.5216V40.8164Z" fill="white"/>
<path d="M84.5624 40.8164H82.5216V42.8572H84.5624V40.8164Z" fill="white"/>
<path d="M88.644 40.8164H86.6032V42.8572H88.644V40.8164Z" fill="white"/>
<path d="M90.6849 40.8164H88.644V42.8572H90.6849V40.8164Z" fill="white"/>
<path d="M96.8073 40.8164H94.7665V42.8572H96.8073V40.8164Z" fill="white"/>
<path d="M98.8481 40.8164H96.8073V42.8572H98.8481V40.8164Z" fill="white"/>
<path d="M100.889 40.8164H98.8481V42.8572H100.889V40.8164Z" fill="white"/>
<path d="M2.92973 42.8574H0.888916V44.8982H2.92973V42.8574Z" fill="white"/>
<path d="M4.97056 42.8574H2.92975V44.8982H4.97056V42.8574Z" fill="white"/>
<path d="M7.01134 42.8574H4.97052V44.8982H7.01134V42.8574Z" fill="white"/>
<path d="M9.05217 42.8574H7.01135V44.8982H9.05217V42.8574Z" fill="white"/>
<path d="M11.093 42.8574H9.05219V44.8982H11.093V42.8574Z" fill="white"/>
<path d="M21.2971 42.8574H19.2563V44.8982H21.2971V42.8574Z" fill="white"/>
<path d="M29.4604 42.8574H27.4196V44.8982H29.4604V42.8574Z" fill="white"/>
<path d="M35.5828 42.8574H33.542V44.8982H35.5828V42.8574Z" fill="white"/>
<path d="M74.3583 42.8574H72.3175V44.8982H74.3583V42.8574Z" fill="white"/>
<path d="M76.3991 42.8574H74.3583V44.8982H76.3991V42.8574Z" fill="white"/>
<path d="M86.6032 42.8574H84.5624V44.8982H86.6032V42.8574Z" fill="white"/>
<path d="M88.644 42.8574H86.6032V44.8982H88.644V42.8574Z" fill="white"/>
<path d="M96.8073 42.8574H94.7665V44.8982H96.8073V42.8574Z" fill="white"/>
<path d="M2.92973 44.8984H0.888916V46.9393H2.92973V44.8984Z" fill="white"/>
<path d="M11.093 44.8984H9.05219V46.9393H11.093V44.8984Z" fill="white"/>
<path d="M13.1338 44.8984H11.093V46.9393H13.1338V44.8984Z" fill="white"/>
<path d="M15.1746 44.8984H13.1338V46.9393H15.1746V44.8984Z" fill="white"/>
<path d="M17.2154 44.8984H15.1746V46.9393H17.2154V44.8984Z" fill="white"/>
<path d="M19.2563 44.8984H17.2155V46.9393H19.2563V44.8984Z" fill="white"/>
<path d="M23.3379 44.8984H21.2971V46.9393H23.3379V44.8984Z" fill="white"/>
<path d="M27.4195 44.8984H25.3787V46.9393H27.4195V44.8984Z" fill="white"/>
<path d="M31.5011 44.8984H29.4603V46.9393H31.5011V44.8984Z" fill="white"/>
<path d="M35.5828 44.8984H33.542V46.9393H35.5828V44.8984Z" fill="white"/>
<path d="M68.2359 44.8984H66.1951V46.9393H68.2359V44.8984Z" fill="white"/>
<path d="M72.3175 44.8984H70.2767V46.9393H72.3175V44.8984Z" fill="white"/>
<path d="M74.3583 44.8984H72.3175V46.9393H74.3583V44.8984Z" fill="white"/>
<path d="M76.3991 44.8984H74.3583V46.9393H76.3991V44.8984Z" fill="white"/>
<path d="M80.4808 44.8984H78.4399V46.9393H80.4808V44.8984Z" fill="white"/>
<path d="M84.5624 44.8984H82.5216V46.9393H84.5624V44.8984Z" fill="white"/>
<path d="M86.6032 44.8984H84.5624V46.9393H86.6032V44.8984Z" fill="white"/>
<path d="M88.644 44.8984H86.6032V46.9393H88.644V44.8984Z" fill="white"/>
<path d="M90.6849 44.8984H88.644V46.9393H90.6849V44.8984Z" fill="white"/>
<path d="M92.7256 44.8984H90.6848V46.9393H92.7256V44.8984Z" fill="white"/>
<path d="M96.8073 44.8984H94.7665V46.9393H96.8073V44.8984Z" fill="white"/>
<path d="M98.8481 44.8984H96.8073V46.9393H98.8481V44.8984Z" fill="white"/>
<path d="M100.889 44.8984H98.8481V46.9393H100.889V44.8984Z" fill="white"/>
<path d="M2.92973 46.9385H0.888916V48.9793H2.92973V46.9385Z" fill="white"/>
<path d="M11.093 46.9385H9.05219V48.9793H11.093V46.9385Z" fill="white"/>
<path d="M19.2563 46.9385H17.2155V48.9793H19.2563V46.9385Z" fill="white"/>
<path d="M23.3379 46.9385H21.2971V48.9793H23.3379V46.9385Z" fill="white"/>
<path d="M70.2767 46.9385H68.2358V48.9793H70.2767V46.9385Z" fill="white"/>
<path d="M82.5216 46.9385H80.4808V48.9793H82.5216V46.9385Z" fill="white"/>
<path d="M84.5624 46.9385H82.5216V48.9793H84.5624V46.9385Z" fill="white"/>
<path d="M92.7256 46.9385H90.6848V48.9793H92.7256V46.9385Z" fill="white"/>
<path d="M100.889 46.9385H98.8481V48.9793H100.889V46.9385Z" fill="white"/>
<path d="M2.92973 48.9795H0.888916V51.0203H2.92973V48.9795Z" fill="white"/>
<path d="M4.97056 48.9795H2.92975V51.0203H4.97056V48.9795Z" fill="white"/>
<path d="M11.093 48.9795H9.05219V51.0203H11.093V48.9795Z" fill="white"/>
<path d="M15.1746 48.9795H13.1338V51.0203H15.1746V48.9795Z" fill="white"/>
<path d="M19.2563 48.9795H17.2155V51.0203H19.2563V48.9795Z" fill="white"/>
<path d="M23.3379 48.9795H21.2971V51.0203H23.3379V48.9795Z" fill="white"/>
<path d="M25.3787 48.9795H23.3379V51.0203H25.3787V48.9795Z" fill="white"/>
<path d="M29.4604 48.9795H27.4196V51.0203H29.4604V48.9795Z" fill="white"/>
<path d="M35.5828 48.9795H33.542V51.0203H35.5828V48.9795Z" fill="white"/>
<path d="M72.3175 48.9795H70.2767V51.0203H72.3175V48.9795Z" fill="white"/>
<path d="M76.3991 48.9795H74.3583V51.0203H76.3991V48.9795Z" fill="white"/>
<path d="M78.4399 48.9795H76.3991V51.0203H78.4399V48.9795Z" fill="white"/>
<path d="M80.4808 48.9795H78.4399V51.0203H80.4808V48.9795Z" fill="white"/>
<path d="M82.5216 48.9795H80.4808V51.0203H82.5216V48.9795Z" fill="white"/>
<path d="M84.5624 48.9795H82.5216V51.0203H84.5624V48.9795Z" fill="white"/>
<path d="M88.644 48.9795H86.6032V51.0203H88.644V48.9795Z" fill="white"/>
<path d="M92.7256 48.9795H90.6848V51.0203H92.7256V48.9795Z" fill="white"/>
<path d="M94.7665 48.9795H92.7256V51.0203H94.7665V48.9795Z" fill="white"/>
<path d="M96.8073 48.9795H94.7665V51.0203H96.8073V48.9795Z" fill="white"/>
<path d="M98.8481 48.9795H96.8073V51.0203H98.8481V48.9795Z" fill="white"/>
<path d="M100.889 48.9795H98.8481V51.0203H100.889V48.9795Z" fill="white"/>
<path d="M2.92973 51.0205H0.888916V53.0613H2.92973V51.0205Z" fill="white"/>
<path d="M4.97056 51.0205H2.92975V53.0613H4.97056V51.0205Z" fill="white"/>
<path d="M7.01134 51.0205H4.97052V53.0613H7.01134V51.0205Z" fill="white"/>
<path d="M9.05217 51.0205H7.01135V53.0613H9.05217V51.0205Z" fill="white"/>
<path d="M11.093 51.0205H9.05219V53.0613H11.093V51.0205Z" fill="white"/>
<path d="M19.2563 51.0205H17.2155V53.0613H19.2563V51.0205Z" fill="white"/>
<path d="M21.2971 51.0205H19.2563V53.0613H21.2971V51.0205Z" fill="white"/>
<path d="M23.3379 51.0205H21.2971V53.0613H23.3379V51.0205Z" fill="white"/>
<path d="M25.3787 51.0205H23.3379V53.0613H25.3787V51.0205Z" fill="white"/>
<path d="M27.4195 51.0205H25.3787V53.0613H27.4195V51.0205Z" fill="white"/>
<path d="M29.4604 51.0205H27.4196V53.0613H29.4604V51.0205Z" fill="white"/>
<path d="M31.5011 51.0205H29.4603V53.0613H31.5011V51.0205Z" fill="white"/>
<path d="M33.542 51.0205H31.5012V53.0613H33.542V51.0205Z" fill="white"/>
<path d="M35.5828 51.0205H33.542V53.0613H35.5828V51.0205Z" fill="white"/>
<path d="M74.3583 51.0205H72.3175V53.0613H74.3583V51.0205Z" fill="white"/>
<path d="M76.3991 51.0205H74.3583V53.0613H76.3991V51.0205Z" fill="white"/>
<path d="M78.4399 51.0205H76.3991V53.0613H78.4399V51.0205Z" fill="white"/>
<path d="M84.5624 51.0205H82.5216V53.0613H84.5624V51.0205Z" fill="white"/>
<path d="M92.7256 51.0205H90.6848V53.0613H92.7256V51.0205Z" fill="white"/>
<path d="M98.8481 51.0205H96.8073V53.0613H98.8481V51.0205Z" fill="white"/>
<path d="M100.889 51.0205H98.8481V53.0613H100.889V51.0205Z" fill="white"/>
<path d="M2.92973 53.0615H0.888916V55.1023H2.92973V53.0615Z" fill="white"/>
<path d="M7.01134 53.0615H4.97052V55.1023H7.01134V53.0615Z" fill="white"/>
<path d="M11.093 53.0615H9.05219V55.1023H11.093V53.0615Z" fill="white"/>
<path d="M13.1338 53.0615H11.093V55.1023H13.1338V53.0615Z" fill="white"/>
<path d="M15.1746 53.0615H13.1338V55.1023H15.1746V53.0615Z" fill="white"/>
<path d="M17.2154 53.0615H15.1746V55.1023H17.2154V53.0615Z" fill="white"/>
<path d="M19.2563 53.0615H17.2155V55.1023H19.2563V53.0615Z" fill="white"/>
<path d="M27.4195 53.0615H25.3787V55.1023H27.4195V53.0615Z" fill="white"/>
<path d="M31.5011 53.0615H29.4603V55.1023H31.5011V53.0615Z" fill="white"/>
<path d="M33.542 53.0615H31.5012V55.1023H33.542V53.0615Z" fill="white"/>
<path d="M35.5828 53.0615H33.542V55.1023H35.5828V53.0615Z" fill="white"/>
<path d="M72.3175 53.0615H70.2767V55.1023H72.3175V53.0615Z" fill="white"/>
<path d="M74.3583 53.0615H72.3175V55.1023H74.3583V53.0615Z" fill="white"/>
<path d="M80.4808 53.0615H78.4399V55.1023H80.4808V53.0615Z" fill="white"/>
<path d="M82.5216 53.0615H80.4808V55.1023H82.5216V53.0615Z" fill="white"/>
<path d="M84.5624 53.0615H82.5216V55.1023H84.5624V53.0615Z" fill="white"/>
<path d="M86.6032 53.0615H84.5624V55.1023H86.6032V53.0615Z" fill="white"/>
<path d="M88.644 53.0615H86.6032V55.1023H88.644V53.0615Z" fill="white"/>
<path d="M90.6849 53.0615H88.644V55.1023H90.6849V53.0615Z" fill="white"/>
<path d="M92.7256 53.0615H90.6848V55.1023H92.7256V53.0615Z" fill="white"/>
<path d="M100.889 53.0615H98.8481V55.1023H100.889V53.0615Z" fill="white"/>
<path d="M2.92973 55.1016H0.888916V57.1424H2.92973V55.1016Z" fill="white"/>
<path d="M4.97056 55.1016H2.92975V57.1424H4.97056V55.1016Z" fill="white"/>
<path d="M7.01134 55.1016H4.97052V57.1424H7.01134V55.1016Z" fill="white"/>
<path d="M13.1338 55.1016H11.093V57.1424H13.1338V55.1016Z" fill="white"/>
<path d="M19.2563 55.1016H17.2155V57.1424H19.2563V55.1016Z" fill="white"/>
<path d="M25.3787 55.1016H23.3379V57.1424H25.3787V55.1016Z" fill="white"/>
<path d="M29.4604 55.1016H27.4196V57.1424H29.4604V55.1016Z" fill="white"/>
<path d="M70.2767 55.1016H68.2358V57.1424H70.2767V55.1016Z" fill="white"/>
<path d="M78.4399 55.1016H76.3991V57.1424H78.4399V55.1016Z" fill="white"/>
<path d="M80.4808 55.1016H78.4399V57.1424H80.4808V55.1016Z" fill="white"/>
<path d="M84.5624 55.1016H82.5216V57.1424H84.5624V55.1016Z" fill="white"/>
<path d="M86.6032 55.1016H84.5624V57.1424H86.6032V55.1016Z" fill="white"/>
<path d="M90.6849 55.1016H88.644V57.1424H90.6849V55.1016Z" fill="white"/>
<path d="M94.7665 55.1016H92.7256V57.1424H94.7665V55.1016Z" fill="white"/>
<path d="M98.8481 55.1016H96.8073V57.1424H98.8481V55.1016Z" fill="white"/>
<path d="M100.889 55.1016H98.8481V57.1424H100.889V55.1016Z" fill="white"/>
<path d="M2.92973 57.1426H0.888916V59.1834H2.92973V57.1426Z" fill="white"/>
<path d="M4.97056 57.1426H2.92975V59.1834H4.97056V57.1426Z" fill="white"/>
<path d="M9.05217 57.1426H7.01135V59.1834H9.05217V57.1426Z" fill="white"/>
<path d="M13.1338 57.1426H11.093V59.1834H13.1338V57.1426Z" fill="white"/>
<path d="M15.1746 57.1426H13.1338V59.1834H15.1746V57.1426Z" fill="white"/>
<path d="M17.2154 57.1426H15.1746V59.1834H17.2154V57.1426Z" fill="white"/>
<path d="M19.2563 57.1426H17.2155V59.1834H19.2563V57.1426Z" fill="white"/>
<path d="M23.3379 57.1426H21.2971V59.1834H23.3379V57.1426Z" fill="white"/>
<path d="M31.5011 57.1426H29.4603V59.1834H31.5011V57.1426Z" fill="white"/>
<path d="M33.542 57.1426H31.5012V59.1834H33.542V57.1426Z" fill="white"/>
<path d="M68.2359 57.1426H66.1951V59.1834H68.2359V57.1426Z" fill="white"/>
<path d="M74.3583 57.1426H72.3175V59.1834H74.3583V57.1426Z" fill="white"/>
<path d="M76.3991 57.1426H74.3583V59.1834H76.3991V57.1426Z" fill="white"/>
<path d="M78.4399 57.1426H76.3991V59.1834H78.4399V57.1426Z" fill="white"/>
<path d="M80.4808 57.1426H78.4399V59.1834H80.4808V57.1426Z" fill="white"/>
<path d="M82.5216 57.1426H80.4808V59.1834H82.5216V57.1426Z" fill="white"/>
<path d="M84.5624 57.1426H82.5216V59.1834H84.5624V57.1426Z" fill="white"/>
<path d="M86.6032 57.1426H84.5624V59.1834H86.6032V57.1426Z" fill="white"/>
<path d="M94.7665 57.1426H92.7256V59.1834H94.7665V57.1426Z" fill="white"/>
<path d="M96.8073 57.1426H94.7665V59.1834H96.8073V57.1426Z" fill="white"/>
<path d="M100.889 57.1426H98.8481V59.1834H100.889V57.1426Z" fill="white"/>
<path d="M7.01134 59.1836H4.97052V61.2244H7.01134V59.1836Z" fill="white"/>
<path d="M9.05217 59.1836H7.01135V61.2244H9.05217V59.1836Z" fill="white"/>
<path d="M13.1338 59.1836H11.093V61.2244H13.1338V59.1836Z" fill="white"/>
<path d="M19.2563 59.1836H17.2155V61.2244H19.2563V59.1836Z" fill="white"/>
<path d="M21.2971 59.1836H19.2563V61.2244H21.2971V59.1836Z" fill="white"/>
<path d="M23.3379 59.1836H21.2971V61.2244H23.3379V59.1836Z" fill="white"/>
<path d="M25.3787 59.1836H23.3379V61.2244H25.3787V59.1836Z" fill="white"/>
<path d="M27.4195 59.1836H25.3787V61.2244H27.4195V59.1836Z" fill="white"/>
<path d="M29.4604 59.1836H27.4196V61.2244H29.4604V59.1836Z" fill="white"/>
<path d="M68.2359 59.1836H66.1951V61.2244H68.2359V59.1836Z" fill="white"/>
<path d="M76.3991 59.1836H74.3583V61.2244H76.3991V59.1836Z" fill="white"/>
<path d="M78.4399 59.1836H76.3991V61.2244H78.4399V59.1836Z" fill="white"/>
<path d="M88.644 59.1836H86.6032V61.2244H88.644V59.1836Z" fill="white"/>
<path d="M90.6849 59.1836H88.644V61.2244H90.6849V59.1836Z" fill="white"/>
<path d="M92.7256 59.1836H90.6848V61.2244H92.7256V59.1836Z" fill="white"/>
<path d="M96.8073 59.1836H94.7665V61.2244H96.8073V59.1836Z" fill="white"/>
<path d="M98.8481 59.1836H96.8073V61.2244H98.8481V59.1836Z" fill="white"/>
<path d="M2.92973 61.2246H0.888916V63.2654H2.92973V61.2246Z" fill="white"/>
<path d="M7.01134 61.2246H4.97052V63.2654H7.01134V61.2246Z" fill="white"/>
<path d="M11.093 61.2246H9.05219V63.2654H11.093V61.2246Z" fill="white"/>
<path d="M13.1338 61.2246H11.093V63.2654H13.1338V61.2246Z" fill="white"/>
<path d="M15.1746 61.2246H13.1338V63.2654H15.1746V61.2246Z" fill="white"/>
<path d="M17.2154 61.2246H15.1746V63.2654H17.2154V61.2246Z" fill="white"/>
<path d="M25.3787 61.2246H23.3379V63.2654H25.3787V61.2246Z" fill="white"/>
<path d="M27.4195 61.2246H25.3787V63.2654H27.4195V61.2246Z" fill="white"/>
<path d="M29.4604 61.2246H27.4196V63.2654H29.4604V61.2246Z" fill="white"/>
<path d="M31.5011 61.2246H29.4603V63.2654H31.5011V61.2246Z" fill="white"/>
<path d="M68.2359 61.2246H66.1951V63.2654H68.2359V61.2246Z" fill="white"/>
<path d="M70.2767 61.2246H68.2358V63.2654H70.2767V61.2246Z" fill="white"/>
<path d="M72.3175 61.2246H70.2767V63.2654H72.3175V61.2246Z" fill="white"/>
<path d="M76.3991 61.2246H74.3583V63.2654H76.3991V61.2246Z" fill="white"/>
<path d="M80.4808 61.2246H78.4399V63.2654H80.4808V61.2246Z" fill="white"/>
<path d="M82.5216 61.2246H80.4808V63.2654H82.5216V61.2246Z" fill="white"/>
<path d="M84.5624 61.2246H82.5216V63.2654H84.5624V61.2246Z" fill="white"/>
<path d="M86.6032 61.2246H84.5624V63.2654H86.6032V61.2246Z" fill="white"/>
<path d="M88.644 61.2246H86.6032V63.2654H88.644V61.2246Z" fill="white"/>
<path d="M92.7256 61.2246H90.6848V63.2654H92.7256V61.2246Z" fill="white"/>
<path d="M96.8073 61.2246H94.7665V63.2654H96.8073V61.2246Z" fill="white"/>
<path d="M98.8481 61.2246H96.8073V63.2654H98.8481V61.2246Z" fill="white"/>
<path d="M100.889 61.2246H98.8481V63.2654H100.889V61.2246Z" fill="white"/>
<path d="M2.92973 63.2656H0.888916V65.3064H2.92973V63.2656Z" fill="white"/>
<path d="M9.05217 63.2656H7.01135V65.3064H9.05217V63.2656Z" fill="white"/>
<path d="M19.2563 63.2656H17.2155V65.3064H19.2563V63.2656Z" fill="white"/>
<path d="M25.3787 63.2656H23.3379V65.3064H25.3787V63.2656Z" fill="white"/>
<path d="M29.4604 63.2656H27.4196V65.3064H29.4604V63.2656Z" fill="white"/>
<path d="M70.2767 63.2656H68.2358V65.3064H70.2767V63.2656Z" fill="white"/>
<path d="M76.3991 63.2656H74.3583V65.3064H76.3991V63.2656Z" fill="white"/>
<path d="M78.4399 63.2656H76.3991V65.3064H78.4399V63.2656Z" fill="white"/>
<path d="M80.4808 63.2656H78.4399V65.3064H80.4808V63.2656Z" fill="white"/>
<path d="M84.5624 63.2656H82.5216V65.3064H84.5624V63.2656Z" fill="white"/>
<path d="M90.6849 63.2656H88.644V65.3064H90.6849V63.2656Z" fill="white"/>
<path d="M92.7256 63.2656H90.6848V65.3064H92.7256V63.2656Z" fill="white"/>
<path d="M100.889 63.2656H98.8481V65.3064H100.889V63.2656Z" fill="white"/>
<path d="M7.01134 65.3057H4.97052V67.3465H7.01134V65.3057Z" fill="white"/>
<path d="M15.1746 65.3057H13.1338V67.3465H15.1746V65.3057Z" fill="white"/>
<path d="M17.2154 65.3057H15.1746V67.3465H17.2154V65.3057Z" fill="white"/>
<path d="M19.2563 65.3057H17.2155V67.3465H19.2563V65.3057Z" fill="white"/>
<path d="M25.3787 65.3057H23.3379V67.3465H25.3787V65.3057Z" fill="white"/>
<path d="M31.5011 65.3057H29.4603V67.3465H31.5011V65.3057Z" fill="white"/>
<path d="M33.542 65.3057H31.5012V67.3465H33.542V65.3057Z" fill="white"/>
<path d="M43.7461 65.3057H41.7053V67.3465H43.7461V65.3057Z" fill="white"/>
<path d="M45.7868 65.3057H43.746V67.3465H45.7868V65.3057Z" fill="white"/>
<path d="M47.8277 65.3057H45.7869V67.3465H47.8277V65.3057Z" fill="white"/>
<path d="M51.9093 65.3057H49.8685V67.3465H51.9093V65.3057Z" fill="white"/>
<path d="M62.1134 65.3057H60.0726V67.3465H62.1134V65.3057Z" fill="white"/>
<path d="M64.1542 65.3057H62.1134V67.3465H64.1542V65.3057Z" fill="white"/>
<path d="M66.1951 65.3057H64.1542V67.3465H66.1951V65.3057Z" fill="white"/>
<path d="M68.2359 65.3057H66.1951V67.3465H68.2359V65.3057Z" fill="white"/>
<path d="M74.3583 65.3057H72.3175V67.3465H74.3583V65.3057Z" fill="white"/>
<path d="M78.4399 65.3057H76.3991V67.3465H78.4399V65.3057Z" fill="white"/>
<path d="M82.5216 65.3057H80.4808V67.3465H82.5216V65.3057Z" fill="white"/>
<path d="M88.644 65.3057H86.6032V67.3465H88.644V65.3057Z" fill="white"/>
<path d="M92.7256 65.3057H90.6848V67.3465H92.7256V65.3057Z" fill="white"/>
<path d="M94.7665 65.3057H92.7256V67.3465H94.7665V65.3057Z" fill="white"/>
<path d="M96.8073 65.3057H94.7665V67.3465H96.8073V65.3057Z" fill="white"/>
<path d="M98.8481 65.3057H96.8073V67.3465H98.8481V65.3057Z" fill="white"/>
<path d="M100.889 65.3057H98.8481V67.3465H100.889V65.3057Z" fill="white"/>
<path d="M4.97056 67.3467H2.92975V69.3875H4.97056V67.3467Z" fill="white"/>
<path d="M19.2563 67.3467H17.2155V69.3875H19.2563V67.3467Z" fill="white"/>
<path d="M31.5011 67.3467H29.4603V69.3875H31.5011V67.3467Z" fill="white"/>
<path d="M33.542 67.3467H31.5012V69.3875H33.542V67.3467Z" fill="white"/>
<path d="M39.6644 67.3467H37.6236V69.3875H39.6644V67.3467Z" fill="white"/>
<path d="M41.7052 67.3467H39.6644V69.3875H41.7052V67.3467Z" fill="white"/>
<path d="M45.7868 67.3467H43.746V69.3875H45.7868V67.3467Z" fill="white"/>
<path d="M49.8685 67.3467H47.8277V69.3875H49.8685V67.3467Z" fill="white"/>
<path d="M51.9093 67.3467H49.8685V69.3875H51.9093V67.3467Z" fill="white"/>
<path d="M55.991 67.3467H53.9501V69.3875H55.991V67.3467Z" fill="white"/>
<path d="M68.2359 67.3467H66.1951V69.3875H68.2359V67.3467Z" fill="white"/>
<path d="M82.5216 67.3467H80.4808V69.3875H82.5216V67.3467Z" fill="white"/>
<path d="M88.644 67.3467H86.6032V69.3875H88.644V67.3467Z" fill="white"/>
<path d="M90.6849 67.3467H88.644V69.3875H90.6849V67.3467Z" fill="white"/>
<path d="M94.7665 67.3467H92.7256V69.3875H94.7665V67.3467Z" fill="white"/>
<path d="M96.8073 67.3467H94.7665V69.3875H96.8073V67.3467Z" fill="white"/>
<path d="M98.8481 67.3467H96.8073V69.3875H98.8481V67.3467Z" fill="white"/>
<path d="M11.093 69.3877H9.05219V71.4285H11.093V69.3877Z" fill="white"/>
<path d="M15.1746 69.3877H13.1338V71.4285H15.1746V69.3877Z" fill="white"/>
<path d="M25.3787 69.3877H23.3379V71.4285H25.3787V69.3877Z" fill="white"/>
<path d="M31.5011 69.3877H29.4603V71.4285H31.5011V69.3877Z" fill="white"/>
<path d="M33.542 69.3877H31.5012V71.4285H33.542V69.3877Z" fill="white"/>
<path d="M37.6236 69.3877H35.5828V71.4285H37.6236V69.3877Z" fill="white"/>
<path d="M41.7052 69.3877H39.6644V71.4285H41.7052V69.3877Z" fill="white"/>
<path d="M49.8685 69.3877H47.8277V71.4285H49.8685V69.3877Z" fill="white"/>
<path d="M51.9093 69.3877H49.8685V71.4285H51.9093V69.3877Z" fill="white"/>
<path d="M55.991 69.3877H53.9501V71.4285H55.991V69.3877Z" fill="white"/>
<path d="M58.0318 69.3877H55.991V71.4285H58.0318V69.3877Z" fill="white"/>
<path d="M62.1134 69.3877H60.0726V71.4285H62.1134V69.3877Z" fill="white"/>
<path d="M66.1951 69.3877H64.1542V71.4285H66.1951V69.3877Z" fill="white"/>
<path d="M68.2359 69.3877H66.1951V71.4285H68.2359V69.3877Z" fill="white"/>
<path d="M72.3175 69.3877H70.2767V71.4285H72.3175V69.3877Z" fill="white"/>
<path d="M74.3583 69.3877H72.3175V71.4285H74.3583V69.3877Z" fill="white"/>
<path d="M80.4808 69.3877H78.4399V71.4285H80.4808V69.3877Z" fill="white"/>
<path d="M82.5216 69.3877H80.4808V71.4285H82.5216V69.3877Z" fill="white"/>
<path d="M86.6032 69.3877H84.5624V71.4285H86.6032V69.3877Z" fill="white"/>
<path d="M88.644 69.3877H86.6032V71.4285H88.644V69.3877Z" fill="white"/>
<path d="M90.6849 69.3877H88.644V71.4285H90.6849V69.3877Z" fill="white"/>
<path d="M92.7256 69.3877H90.6848V71.4285H92.7256V69.3877Z" fill="white"/>
<path d="M94.7665 69.3877H92.7256V71.4285H94.7665V69.3877Z" fill="white"/>
<path d="M98.8481 69.3877H96.8073V71.4285H98.8481V69.3877Z" fill="white"/>
<path d="M100.889 69.3877H98.8481V71.4285H100.889V69.3877Z" fill="white"/>
<path d="M2.92973 71.4287H0.888916V73.4695H2.92973V71.4287Z" fill="white"/>
<path d="M4.97056 71.4287H2.92975V73.4695H4.97056V71.4287Z" fill="white"/>
<path d="M7.01134 71.4287H4.97052V73.4695H7.01134V71.4287Z" fill="white"/>
<path d="M9.05217 71.4287H7.01135V73.4695H9.05217V71.4287Z" fill="white"/>
<path d="M11.093 71.4287H9.05219V73.4695H11.093V71.4287Z" fill="white"/>
<path d="M13.1338 71.4287H11.093V73.4695H13.1338V71.4287Z" fill="white"/>
<path d="M21.2971 71.4287H19.2563V73.4695H21.2971V71.4287Z" fill="white"/>
<path d="M25.3787 71.4287H23.3379V73.4695H25.3787V71.4287Z" fill="white"/>
<path d="M27.4195 71.4287H25.3787V73.4695H27.4195V71.4287Z" fill="white"/>
<path d="M29.4604 71.4287H27.4196V73.4695H29.4604V71.4287Z" fill="white"/>
<path d="M31.5011 71.4287H29.4603V73.4695H31.5011V71.4287Z" fill="white"/>
<path d="M37.6236 71.4287H35.5828V73.4695H37.6236V71.4287Z" fill="white"/>
<path d="M39.6644 71.4287H37.6236V73.4695H39.6644V71.4287Z" fill="white"/>
<path d="M41.7052 71.4287H39.6644V73.4695H41.7052V71.4287Z" fill="white"/>
<path d="M45.7868 71.4287H43.746V73.4695H45.7868V71.4287Z" fill="white"/>
<path d="M51.9093 71.4287H49.8685V73.4695H51.9093V71.4287Z" fill="white"/>
<path d="M53.9501 71.4287H51.9093V73.4695H53.9501V71.4287Z" fill="white"/>
<path d="M64.1542 71.4287H62.1134V73.4695H64.1542V71.4287Z" fill="white"/>
<path d="M78.4399 71.4287H76.3991V73.4695H78.4399V71.4287Z" fill="white"/>
<path d="M86.6032 71.4287H84.5624V73.4695H86.6032V71.4287Z" fill="white"/>
<path d="M90.6849 71.4287H88.644V73.4695H90.6849V71.4287Z" fill="white"/>
<path d="M92.7256 71.4287H90.6848V73.4695H92.7256V71.4287Z" fill="white"/>
<path d="M100.889 71.4287H98.8481V73.4695H100.889V71.4287Z" fill="white"/>
<path d="M4.97056 73.4697H2.92975V75.5105H4.97056V73.4697Z" fill="white"/>
<path d="M9.05217 73.4697H7.01135V75.5105H9.05217V73.4697Z" fill="white"/>
<path d="M15.1746 73.4697H13.1338V75.5105H15.1746V73.4697Z" fill="white"/>
<path d="M17.2154 73.4697H15.1746V75.5105H17.2154V73.4697Z" fill="white"/>
<path d="M19.2563 73.4697H17.2155V75.5105H19.2563V73.4697Z" fill="white"/>
<path d="M23.3379 73.4697H21.2971V75.5105H23.3379V73.4697Z" fill="white"/>
<path d="M25.3787 73.4697H23.3379V75.5105H25.3787V73.4697Z" fill="white"/>
<path d="M31.5011 73.4697H29.4603V75.5105H31.5011V73.4697Z" fill="white"/>
<path d="M37.6236 73.4697H35.5828V75.5105H37.6236V73.4697Z" fill="white"/>
<path d="M39.6644 73.4697H37.6236V75.5105H39.6644V73.4697Z" fill="white"/>
<path d="M45.7868 73.4697H43.746V75.5105H45.7868V73.4697Z" fill="white"/>
<path d="M47.8277 73.4697H45.7869V75.5105H47.8277V73.4697Z" fill="white"/>
<path d="M53.9501 73.4697H51.9093V75.5105H53.9501V73.4697Z" fill="white"/>
<path d="M62.1134 73.4697H60.0726V75.5105H62.1134V73.4697Z" fill="white"/>
<path d="M70.2767 73.4697H68.2358V75.5105H70.2767V73.4697Z" fill="white"/>
<path d="M72.3175 73.4697H70.2767V75.5105H72.3175V73.4697Z" fill="white"/>
<path d="M74.3583 73.4697H72.3175V75.5105H74.3583V73.4697Z" fill="white"/>
<path d="M76.3991 73.4697H74.3583V75.5105H76.3991V73.4697Z" fill="white"/>
<path d="M80.4808 73.4697H78.4399V75.5105H80.4808V73.4697Z" fill="white"/>
<path d="M82.5216 73.4697H80.4808V75.5105H82.5216V73.4697Z" fill="white"/>
<path d="M84.5624 73.4697H82.5216V75.5105H84.5624V73.4697Z" fill="white"/>
<path d="M86.6032 73.4697H84.5624V75.5105H86.6032V73.4697Z" fill="white"/>
<path d="M92.7256 73.4697H90.6848V75.5105H92.7256V73.4697Z" fill="white"/>
<path d="M94.7665 73.4697H92.7256V75.5105H94.7665V73.4697Z" fill="white"/>
<path d="M96.8073 73.4697H94.7665V75.5105H96.8073V73.4697Z" fill="white"/>
<path d="M98.8481 73.4697H96.8073V75.5105H98.8481V73.4697Z" fill="white"/>
<path d="M2.92973 75.5098H0.888916V77.5506H2.92973V75.5098Z" fill="white"/>
<path d="M4.97056 75.5098H2.92975V77.5506H4.97056V75.5098Z" fill="white"/>
<path d="M13.1338 75.5098H11.093V77.5506H13.1338V75.5098Z" fill="white"/>
<path d="M19.2563 75.5098H17.2155V77.5506H19.2563V75.5098Z" fill="white"/>
<path d="M21.2971 75.5098H19.2563V77.5506H21.2971V75.5098Z" fill="white"/>
<path d="M31.5011 75.5098H29.4603V77.5506H31.5011V75.5098Z" fill="white"/>
<path d="M33.542 75.5098H31.5012V77.5506H33.542V75.5098Z" fill="white"/>
<path d="M35.5828 75.5098H33.542V77.5506H35.5828V75.5098Z" fill="white"/>
<path d="M37.6236 75.5098H35.5828V77.5506H37.6236V75.5098Z" fill="white"/>
<path d="M39.6644 75.5098H37.6236V77.5506H39.6644V75.5098Z" fill="white"/>
<path d="M49.8685 75.5098H47.8277V77.5506H49.8685V75.5098Z" fill="white"/>
<path d="M51.9093 75.5098H49.8685V77.5506H51.9093V75.5098Z" fill="white"/>
<path d="M55.991 75.5098H53.9501V77.5506H55.991V75.5098Z" fill="white"/>
<path d="M58.0318 75.5098H55.991V77.5506H58.0318V75.5098Z" fill="white"/>
<path d="M68.2359 75.5098H66.1951V77.5506H68.2359V75.5098Z" fill="white"/>
<path d="M76.3991 75.5098H74.3583V77.5506H76.3991V75.5098Z" fill="white"/>
<path d="M78.4399 75.5098H76.3991V77.5506H78.4399V75.5098Z" fill="white"/>
<path d="M82.5216 75.5098H80.4808V77.5506H82.5216V75.5098Z" fill="white"/>
<path d="M84.5624 75.5098H82.5216V77.5506H84.5624V75.5098Z" fill="white"/>
<path d="M86.6032 75.5098H84.5624V77.5506H86.6032V75.5098Z" fill="white"/>
<path d="M88.644 75.5098H86.6032V77.5506H88.644V75.5098Z" fill="white"/>
<path d="M90.6849 75.5098H88.644V77.5506H90.6849V75.5098Z" fill="white"/>
<path d="M94.7665 75.5098H92.7256V77.5506H94.7665V75.5098Z" fill="white"/>
<path d="M98.8481 75.5098H96.8073V77.5506H98.8481V75.5098Z" fill="white"/>
<path d="M4.97056 77.5508H2.92975V79.5916H4.97056V77.5508Z" fill="white"/>
<path d="M13.1338 77.5508H11.093V79.5916H13.1338V77.5508Z" fill="white"/>
<path d="M15.1746 77.5508H13.1338V79.5916H15.1746V77.5508Z" fill="white"/>
<path d="M23.3379 77.5508H21.2971V79.5916H23.3379V77.5508Z" fill="white"/>
<path d="M25.3787 77.5508H23.3379V79.5916H25.3787V77.5508Z" fill="white"/>
<path d="M27.4195 77.5508H25.3787V79.5916H27.4195V77.5508Z" fill="white"/>
<path d="M29.4604 77.5508H27.4196V79.5916H29.4604V77.5508Z" fill="white"/>
<path d="M33.542 77.5508H31.5012V79.5916H33.542V77.5508Z" fill="white"/>
<path d="M35.5828 77.5508H33.542V79.5916H35.5828V77.5508Z" fill="white"/>
<path d="M37.6236 77.5508H35.5828V79.5916H37.6236V77.5508Z" fill="white"/>
<path d="M43.7461 77.5508H41.7053V79.5916H43.7461V77.5508Z" fill="white"/>
<path d="M49.8685 77.5508H47.8277V79.5916H49.8685V77.5508Z" fill="white"/>
<path d="M58.0318 77.5508H55.991V79.5916H58.0318V77.5508Z" fill="white"/>
<path d="M60.0726 77.5508H58.0318V79.5916H60.0726V77.5508Z" fill="white"/>
<path d="M72.3175 77.5508H70.2767V79.5916H72.3175V77.5508Z" fill="white"/>
<path d="M80.4808 77.5508H78.4399V79.5916H80.4808V77.5508Z" fill="white"/>
<path d="M82.5216 77.5508H80.4808V79.5916H82.5216V77.5508Z" fill="white"/>
<path d="M84.5624 77.5508H82.5216V79.5916H84.5624V77.5508Z" fill="white"/>
<path d="M86.6032 77.5508H84.5624V79.5916H86.6032V77.5508Z" fill="white"/>
<path d="M88.644 77.5508H86.6032V79.5916H88.644V77.5508Z" fill="white"/>
<path d="M90.6849 77.5508H88.644V79.5916H90.6849V77.5508Z" fill="white"/>
<path d="M98.8481 77.5508H96.8073V79.5916H98.8481V77.5508Z" fill="white"/>
<path d="M100.889 77.5508H98.8481V79.5916H100.889V77.5508Z" fill="white"/>
<path d="M4.97056 79.5918H2.92975V81.6326H4.97056V79.5918Z" fill="white"/>
<path d="M7.01134 79.5918H4.97052V81.6326H7.01134V79.5918Z" fill="white"/>
<path d="M9.05217 79.5918H7.01135V81.6326H9.05217V79.5918Z" fill="white"/>
<path d="M17.2154 79.5918H15.1746V81.6326H17.2154V79.5918Z" fill="white"/>
<path d="M19.2563 79.5918H17.2155V81.6326H19.2563V79.5918Z" fill="white"/>
<path d="M21.2971 79.5918H19.2563V81.6326H21.2971V79.5918Z" fill="white"/>
<path d="M23.3379 79.5918H21.2971V81.6326H23.3379V79.5918Z" fill="white"/>
<path d="M25.3787 79.5918H23.3379V81.6326H25.3787V79.5918Z" fill="white"/>
<path d="M27.4195 79.5918H25.3787V81.6326H27.4195V79.5918Z" fill="white"/>
<path d="M33.542 79.5918H31.5012V81.6326H33.542V79.5918Z" fill="white"/>
<path d="M35.5828 79.5918H33.542V81.6326H35.5828V79.5918Z" fill="white"/>
<path d="M37.6236 79.5918H35.5828V81.6326H37.6236V79.5918Z" fill="white"/>
<path d="M39.6644 79.5918H37.6236V81.6326H39.6644V79.5918Z" fill="white"/>
<path d="M41.7052 79.5918H39.6644V81.6326H41.7052V79.5918Z" fill="white"/>
<path d="M43.7461 79.5918H41.7053V81.6326H43.7461V79.5918Z" fill="white"/>
<path d="M45.7868 79.5918H43.746V81.6326H45.7868V79.5918Z" fill="white"/>
<path d="M47.8277 79.5918H45.7869V81.6326H47.8277V79.5918Z" fill="white"/>
<path d="M51.9093 79.5918H49.8685V81.6326H51.9093V79.5918Z" fill="white"/>
<path d="M53.9501 79.5918H51.9093V81.6326H53.9501V79.5918Z" fill="white"/>
<path d="M58.0318 79.5918H55.991V81.6326H58.0318V79.5918Z" fill="white"/>
<path d="M62.1134 79.5918H60.0726V81.6326H62.1134V79.5918Z" fill="white"/>
<path d="M64.1542 79.5918H62.1134V81.6326H64.1542V79.5918Z" fill="white"/>
<path d="M66.1951 79.5918H64.1542V81.6326H66.1951V79.5918Z" fill="white"/>
<path d="M68.2359 79.5918H66.1951V81.6326H68.2359V79.5918Z" fill="white"/>
<path d="M70.2767 79.5918H68.2358V81.6326H70.2767V79.5918Z" fill="white"/>
<path d="M74.3583 79.5918H72.3175V81.6326H74.3583V79.5918Z" fill="white"/>
<path d="M92.7256 79.5918H90.6848V81.6326H92.7256V79.5918Z" fill="white"/>
<path d="M94.7665 79.5918H92.7256V81.6326H94.7665V79.5918Z" fill="white"/>
<path d="M98.8481 79.5918H96.8073V81.6326H98.8481V79.5918Z" fill="white"/>
<path d="M2.92973 81.6328H0.888916V83.6736H2.92973V81.6328Z" fill="white"/>
<path d="M4.97056 81.6328H2.92975V83.6736H4.97056V81.6328Z" fill="white"/>
<path d="M7.01134 81.6328H4.97052V83.6736H7.01134V81.6328Z" fill="white"/>
<path d="M15.1746 81.6328H13.1338V83.6736H15.1746V81.6328Z" fill="white"/>
<path d="M21.2971 81.6328H19.2563V83.6736H21.2971V81.6328Z" fill="white"/>
<path d="M23.3379 81.6328H21.2971V83.6736H23.3379V81.6328Z" fill="white"/>
<path d="M25.3787 81.6328H23.3379V83.6736H25.3787V81.6328Z" fill="white"/>
<path d="M29.4604 81.6328H27.4196V83.6736H29.4604V81.6328Z" fill="white"/>
<path d="M33.542 81.6328H31.5012V83.6736H33.542V81.6328Z" fill="white"/>
<path d="M35.5828 81.6328H33.542V83.6736H35.5828V81.6328Z" fill="white"/>
<path d="M47.8277 81.6328H45.7869V83.6736H47.8277V81.6328Z" fill="white"/>
<path d="M49.8685 81.6328H47.8277V83.6736H49.8685V81.6328Z" fill="white"/>
<path d="M51.9093 81.6328H49.8685V83.6736H51.9093V81.6328Z" fill="white"/>
<path d="M53.9501 81.6328H51.9093V83.6736H53.9501V81.6328Z" fill="white"/>
<path d="M55.991 81.6328H53.9501V83.6736H55.991V81.6328Z" fill="white"/>
<path d="M58.0318 81.6328H55.991V83.6736H58.0318V81.6328Z" fill="white"/>
<path d="M60.0726 81.6328H58.0318V83.6736H60.0726V81.6328Z" fill="white"/>
<path d="M66.1951 81.6328H64.1542V83.6736H66.1951V81.6328Z" fill="white"/>
<path d="M74.3583 81.6328H72.3175V83.6736H74.3583V81.6328Z" fill="white"/>
<path d="M76.3991 81.6328H74.3583V83.6736H76.3991V81.6328Z" fill="white"/>
<path d="M78.4399 81.6328H76.3991V83.6736H78.4399V81.6328Z" fill="white"/>
<path d="M82.5216 81.6328H80.4808V83.6736H82.5216V81.6328Z" fill="white"/>
<path d="M84.5624 81.6328H82.5216V83.6736H84.5624V81.6328Z" fill="white"/>
<path d="M86.6032 81.6328H84.5624V83.6736H86.6032V81.6328Z" fill="white"/>
<path d="M88.644 81.6328H86.6032V83.6736H88.644V81.6328Z" fill="white"/>
<path d="M90.6849 81.6328H88.644V83.6736H90.6849V81.6328Z" fill="white"/>
<path d="M92.7256 81.6328H90.6848V83.6736H92.7256V81.6328Z" fill="white"/>
<path d="M98.8481 81.6328H96.8073V83.6736H98.8481V81.6328Z" fill="white"/>
<path d="M19.2563 83.6738H17.2155V85.7146H19.2563V83.6738Z" fill="white"/>
<path d="M27.4195 83.6738H25.3787V85.7146H27.4195V83.6738Z" fill="white"/>
<path d="M29.4604 83.6738H27.4196V85.7146H29.4604V83.6738Z" fill="white"/>
<path d="M31.5011 83.6738H29.4603V85.7146H31.5011V83.6738Z" fill="white"/>
<path d="M35.5828 83.6738H33.542V85.7146H35.5828V83.6738Z" fill="white"/>
<path d="M37.6236 83.6738H35.5828V85.7146H37.6236V83.6738Z" fill="white"/>
<path d="M41.7052 83.6738H39.6644V85.7146H41.7052V83.6738Z" fill="white"/>
<path d="M43.7461 83.6738H41.7053V85.7146H43.7461V83.6738Z" fill="white"/>
<path d="M47.8277 83.6738H45.7869V85.7146H47.8277V83.6738Z" fill="white"/>
<path d="M55.991 83.6738H53.9501V85.7146H55.991V83.6738Z" fill="white"/>
<path d="M58.0318 83.6738H55.991V85.7146H58.0318V83.6738Z" fill="white"/>
<path d="M62.1134 83.6738H60.0726V85.7146H62.1134V83.6738Z" fill="white"/>
<path d="M64.1542 83.6738H62.1134V85.7146H64.1542V83.6738Z" fill="white"/>
<path d="M68.2359 83.6738H66.1951V85.7146H68.2359V83.6738Z" fill="white"/>
<path d="M70.2767 83.6738H68.2358V85.7146H70.2767V83.6738Z" fill="white"/>
<path d="M84.5624 83.6738H82.5216V85.7146H84.5624V83.6738Z" fill="white"/>
<path d="M92.7256 83.6738H90.6848V85.7146H92.7256V83.6738Z" fill="white"/>
<path d="M21.2971 85.7139H19.2563V87.7547H21.2971V85.7139Z" fill="white"/>
<path d="M23.3379 85.7139H21.2971V87.7547H23.3379V85.7139Z" fill="white"/>
<path d="M31.5011 85.7139H29.4603V87.7547H31.5011V85.7139Z" fill="white"/>
<path d="M47.8277 85.7139H45.7869V87.7547H47.8277V85.7139Z" fill="white"/>
<path d="M51.9093 85.7139H49.8685V87.7547H51.9093V85.7139Z" fill="white"/>
<path d="M55.991 85.7139H53.9501V87.7547H55.991V85.7139Z" fill="white"/>
<path d="M74.3583 85.7139H72.3175V87.7547H74.3583V85.7139Z" fill="white"/>
<path d="M78.4399 85.7139H76.3991V87.7547H78.4399V85.7139Z" fill="white"/>
<path d="M84.5624 85.7139H82.5216V87.7547H84.5624V85.7139Z" fill="white"/>
<path d="M88.644 85.7139H86.6032V87.7547H88.644V85.7139Z" fill="white"/>
<path d="M92.7256 85.7139H90.6848V87.7547H92.7256V85.7139Z" fill="white"/>
<path d="M94.7665 85.7139H92.7256V87.7547H94.7665V85.7139Z" fill="white"/>
<path d="M98.8481 85.7139H96.8073V87.7547H98.8481V85.7139Z" fill="white"/>
<path d="M100.889 85.7139H98.8481V87.7547H100.889V85.7139Z" fill="white"/>
<path d="M21.2971 87.7549H19.2563V89.7957H21.2971V87.7549Z" fill="white"/>
<path d="M27.4195 87.7549H25.3787V89.7957H27.4195V87.7549Z" fill="white"/>
<path d="M31.5011 87.7549H29.4603V89.7957H31.5011V87.7549Z" fill="white"/>
<path d="M37.6236 87.7549H35.5828V89.7957H37.6236V87.7549Z" fill="white"/>
<path d="M39.6644 87.7549H37.6236V89.7957H39.6644V87.7549Z" fill="white"/>
<path d="M41.7052 87.7549H39.6644V89.7957H41.7052V87.7549Z" fill="white"/>
<path d="M43.7461 87.7549H41.7053V89.7957H43.7461V87.7549Z" fill="white"/>
<path d="M47.8277 87.7549H45.7869V89.7957H47.8277V87.7549Z" fill="white"/>
<path d="M55.991 87.7549H53.9501V89.7957H55.991V87.7549Z" fill="white"/>
<path d="M62.1134 87.7549H60.0726V89.7957H62.1134V87.7549Z" fill="white"/>
<path d="M68.2359 87.7549H66.1951V89.7957H68.2359V87.7549Z" fill="white"/>
<path d="M70.2767 87.7549H68.2358V89.7957H70.2767V87.7549Z" fill="white"/>
<path d="M72.3175 87.7549H70.2767V89.7957H72.3175V87.7549Z" fill="white"/>
<path d="M78.4399 87.7549H76.3991V89.7957H78.4399V87.7549Z" fill="white"/>
<path d="M80.4808 87.7549H78.4399V89.7957H80.4808V87.7549Z" fill="white"/>
<path d="M82.5216 87.7549H80.4808V89.7957H82.5216V87.7549Z" fill="white"/>
<path d="M84.5624 87.7549H82.5216V89.7957H84.5624V87.7549Z" fill="white"/>
<path d="M92.7256 87.7549H90.6848V89.7957H92.7256V87.7549Z" fill="white"/>
<path d="M19.2563 89.7959H17.2155V91.8367H19.2563V89.7959Z" fill="white"/>
<path d="M21.2971 89.7959H19.2563V91.8367H21.2971V89.7959Z" fill="white"/>
<path d="M23.3379 89.7959H21.2971V91.8367H23.3379V89.7959Z" fill="white"/>
<path d="M27.4195 89.7959H25.3787V91.8367H27.4195V89.7959Z" fill="white"/>
<path d="M33.542 89.7959H31.5012V91.8367H33.542V89.7959Z" fill="white"/>
<path d="M43.7461 89.7959H41.7053V91.8367H43.7461V89.7959Z" fill="white"/>
<path d="M47.8277 89.7959H45.7869V91.8367H47.8277V89.7959Z" fill="white"/>
<path d="M49.8685 89.7959H47.8277V91.8367H49.8685V89.7959Z" fill="white"/>
<path d="M51.9093 89.7959H49.8685V91.8367H51.9093V89.7959Z" fill="white"/>
<path d="M53.9501 89.7959H51.9093V91.8367H53.9501V89.7959Z" fill="white"/>
<path d="M55.991 89.7959H53.9501V91.8367H55.991V89.7959Z" fill="white"/>
<path d="M58.0318 89.7959H55.991V91.8367H58.0318V89.7959Z" fill="white"/>
<path d="M62.1134 89.7959H60.0726V91.8367H62.1134V89.7959Z" fill="white"/>
<path d="M64.1542 89.7959H62.1134V91.8367H64.1542V89.7959Z" fill="white"/>
<path d="M66.1951 89.7959H64.1542V91.8367H66.1951V89.7959Z" fill="white"/>
<path d="M74.3583 89.7959H72.3175V91.8367H74.3583V89.7959Z" fill="white"/>
<path d="M76.3991 89.7959H74.3583V91.8367H76.3991V89.7959Z" fill="white"/>
<path d="M78.4399 89.7959H76.3991V91.8367H78.4399V89.7959Z" fill="white"/>
<path d="M80.4808 89.7959H78.4399V91.8367H80.4808V89.7959Z" fill="white"/>
<path d="M82.5216 89.7959H80.4808V91.8367H82.5216V89.7959Z" fill="white"/>
<path d="M84.5624 89.7959H82.5216V91.8367H84.5624V89.7959Z" fill="white"/>
<path d="M86.6032 89.7959H84.5624V91.8367H86.6032V89.7959Z" fill="white"/>
<path d="M88.644 89.7959H86.6032V91.8367H88.644V89.7959Z" fill="white"/>
<path d="M90.6849 89.7959H88.644V91.8367H90.6849V89.7959Z" fill="white"/>
<path d="M92.7256 89.7959H90.6848V91.8367H92.7256V89.7959Z" fill="white"/>
<path d="M96.8073 89.7959H94.7665V91.8367H96.8073V89.7959Z" fill="white"/>
<path d="M98.8481 89.7959H96.8073V91.8367H98.8481V89.7959Z" fill="white"/>
<path d="M19.2563 91.8369H17.2155V93.8777H19.2563V91.8369Z" fill="white"/>
<path d="M21.2971 91.8369H19.2563V93.8777H21.2971V91.8369Z" fill="white"/>
<path d="M25.3787 91.8369H23.3379V93.8777H25.3787V91.8369Z" fill="white"/>
<path d="M31.5011 91.8369H29.4603V93.8777H31.5011V91.8369Z" fill="white"/>
<path d="M33.542 91.8369H31.5012V93.8777H33.542V91.8369Z" fill="white"/>
<path d="M37.6236 91.8369H35.5828V93.8777H37.6236V91.8369Z" fill="white"/>
<path d="M49.8685 91.8369H47.8277V93.8777H49.8685V91.8369Z" fill="white"/>
<path d="M53.9501 91.8369H51.9093V93.8777H53.9501V91.8369Z" fill="white"/>
<path d="M55.991 91.8369H53.9501V93.8777H55.991V91.8369Z" fill="white"/>
<path d="M64.1542 91.8369H62.1134V93.8777H64.1542V91.8369Z" fill="white"/>
<path d="M66.1951 91.8369H64.1542V93.8777H66.1951V91.8369Z" fill="white"/>
<path d="M70.2767 91.8369H68.2358V93.8777H70.2767V91.8369Z" fill="white"/>
<path d="M76.3991 91.8369H74.3583V93.8777H76.3991V91.8369Z" fill="white"/>
<path d="M78.4399 91.8369H76.3991V93.8777H78.4399V91.8369Z" fill="white"/>
<path d="M82.5216 91.8369H80.4808V93.8777H82.5216V91.8369Z" fill="white"/>
<path d="M86.6032 91.8369H84.5624V93.8777H86.6032V91.8369Z" fill="white"/>
<path d="M88.644 91.8369H86.6032V93.8777H88.644V91.8369Z" fill="white"/>
<path d="M92.7256 91.8369H90.6848V93.8777H92.7256V91.8369Z" fill="white"/>
<path d="M96.8073 91.8369H94.7665V93.8777H96.8073V91.8369Z" fill="white"/>
<path d="M100.889 91.8369H98.8481V93.8777H100.889V91.8369Z" fill="white"/>
<path d="M19.2563 93.8779H17.2155V95.9187H19.2563V93.8779Z" fill="white"/>
<path d="M23.3379 93.8779H21.2971V95.9187H23.3379V93.8779Z" fill="white"/>
<path d="M25.3787 93.8779H23.3379V95.9187H25.3787V93.8779Z" fill="white"/>
<path d="M27.4195 93.8779H25.3787V95.9187H27.4195V93.8779Z" fill="white"/>
<path d="M29.4604 93.8779H27.4196V95.9187H29.4604V93.8779Z" fill="white"/>
<path d="M31.5011 93.8779H29.4603V95.9187H31.5011V93.8779Z" fill="white"/>
<path d="M33.542 93.8779H31.5012V95.9187H33.542V93.8779Z" fill="white"/>
<path d="M35.5828 93.8779H33.542V95.9187H35.5828V93.8779Z" fill="white"/>
<path d="M37.6236 93.8779H35.5828V95.9187H37.6236V93.8779Z" fill="white"/>
<path d="M41.7052 93.8779H39.6644V95.9187H41.7052V93.8779Z" fill="white"/>
<path d="M43.7461 93.8779H41.7053V95.9187H43.7461V93.8779Z" fill="white"/>
<path d="M47.8277 93.8779H45.7869V95.9187H47.8277V93.8779Z" fill="white"/>
<path d="M62.1134 93.8779H60.0726V95.9187H62.1134V93.8779Z" fill="white"/>
<path d="M64.1542 93.8779H62.1134V95.9187H64.1542V93.8779Z" fill="white"/>
<path d="M68.2359 93.8779H66.1951V95.9187H68.2359V93.8779Z" fill="white"/>
<path d="M70.2767 93.8779H68.2358V95.9187H70.2767V93.8779Z" fill="white"/>
<path d="M72.3175 93.8779H70.2767V95.9187H72.3175V93.8779Z" fill="white"/>
<path d="M74.3583 93.8779H72.3175V95.9187H74.3583V93.8779Z" fill="white"/>
<path d="M76.3991 93.8779H74.3583V95.9187H76.3991V93.8779Z" fill="white"/>
<path d="M78.4399 93.8779H76.3991V95.9187H78.4399V93.8779Z" fill="white"/>
<path d="M80.4808 93.8779H78.4399V95.9187H80.4808V93.8779Z" fill="white"/>
<path d="M84.5624 93.8779H82.5216V95.9187H84.5624V93.8779Z" fill="white"/>
<path d="M86.6032 93.8779H84.5624V95.9187H86.6032V93.8779Z" fill="white"/>
<path d="M88.644 93.8779H86.6032V95.9187H88.644V93.8779Z" fill="white"/>
<path d="M90.6849 93.8779H88.644V95.9187H90.6849V93.8779Z" fill="white"/>
<path d="M96.8073 93.8779H94.7665V95.9187H96.8073V93.8779Z" fill="white"/>
<path d="M98.8481 93.8779H96.8073V95.9187H98.8481V93.8779Z" fill="white"/>
<path d="M100.889 93.8779H98.8481V95.9187H100.889V93.8779Z" fill="white"/>
<path d="M21.2971 95.918H19.2563V97.9588H21.2971V95.918Z" fill="white"/>
<path d="M27.4195 95.918H25.3787V97.9588H27.4195V95.918Z" fill="white"/>
<path d="M33.542 95.918H31.5012V97.9588H33.542V95.918Z" fill="white"/>
<path d="M35.5828 95.918H33.542V97.9588H35.5828V95.918Z" fill="white"/>
<path d="M37.6236 95.918H35.5828V97.9588H37.6236V95.918Z" fill="white"/>
<path d="M43.7461 95.918H41.7053V97.9588H43.7461V95.918Z" fill="white"/>
<path d="M45.7868 95.918H43.746V97.9588H45.7868V95.918Z" fill="white"/>
<path d="M53.9501 95.918H51.9093V97.9588H53.9501V95.918Z" fill="white"/>
<path d="M55.991 95.918H53.9501V97.9588H55.991V95.918Z" fill="white"/>
<path d="M58.0318 95.918H55.991V97.9588H58.0318V95.918Z" fill="white"/>
<path d="M60.0726 95.918H58.0318V97.9588H60.0726V95.918Z" fill="white"/>
<path d="M62.1134 95.918H60.0726V97.9588H62.1134V95.918Z" fill="white"/>
<path d="M64.1542 95.918H62.1134V97.9588H64.1542V95.918Z" fill="white"/>
<path d="M68.2359 95.918H66.1951V97.9588H68.2359V95.918Z" fill="white"/>
<path d="M78.4399 95.918H76.3991V97.9588H78.4399V95.918Z" fill="white"/>
<path d="M80.4808 95.918H78.4399V97.9588H80.4808V95.918Z" fill="white"/>
<path d="M82.5216 95.918H80.4808V97.9588H82.5216V95.918Z" fill="white"/>
<path d="M84.5624 95.918H82.5216V97.9588H84.5624V95.918Z" fill="white"/>
<path d="M86.6032 95.918H84.5624V97.9588H86.6032V95.918Z" fill="white"/>
<path d="M88.644 95.918H86.6032V97.9588H88.644V95.918Z" fill="white"/>
<path d="M90.6849 95.918H88.644V97.9588H90.6849V95.918Z" fill="white"/>
<path d="M92.7256 95.918H90.6848V97.9588H92.7256V95.918Z" fill="white"/>
<path d="M100.889 95.918H98.8481V97.9588H100.889V95.918Z" fill="white"/>
<path d="M23.3379 97.959H21.2971V99.9998H23.3379V97.959Z" fill="white"/>
<path d="M27.4195 97.959H25.3787V99.9998H27.4195V97.959Z" fill="white"/>
<path d="M33.542 97.959H31.5012V99.9998H33.542V97.959Z" fill="white"/>
<path d="M41.7052 97.959H39.6644V99.9998H41.7052V97.959Z" fill="white"/>
<path d="M45.7868 97.959H43.746V99.9998H45.7868V97.959Z" fill="white"/>
<path d="M49.8685 97.959H47.8277V99.9998H49.8685V97.959Z" fill="white"/>
<path d="M53.9501 97.959H51.9093V99.9998H53.9501V97.959Z" fill="white"/>
<path d="M60.0726 97.959H58.0318V99.9998H60.0726V97.959Z" fill="white"/>
<path d="M62.1134 97.959H60.0726V99.9998H62.1134V97.959Z" fill="white"/>
<path d="M64.1542 97.959H62.1134V99.9998H64.1542V97.959Z" fill="white"/>
<path d="M66.1951 97.959H64.1542V99.9998H66.1951V97.959Z" fill="white"/>
<path d="M70.2767 97.959H68.2358V99.9998H70.2767V97.959Z" fill="white"/>
<path d="M74.3583 97.959H72.3175V99.9998H74.3583V97.959Z" fill="white"/>
<path d="M76.3991 97.959H74.3583V99.9998H76.3991V97.959Z" fill="white"/>
<path d="M78.4399 97.959H76.3991V99.9998H78.4399V97.959Z" fill="white"/>
<path d="M80.4808 97.959H78.4399V99.9998H80.4808V97.959Z" fill="white"/>
<path d="M84.5624 97.959H82.5216V99.9998H84.5624V97.959Z" fill="white"/>
<path d="M90.6849 97.959H88.644V99.9998H90.6849V97.959Z" fill="white"/>
<path d="M92.7256 97.959H90.6848V99.9998H92.7256V97.959Z" fill="white"/>
<path d="M94.7665 97.959H92.7256V99.9998H94.7665V97.959Z" fill="white"/>
<path d="M96.8073 97.959H94.7665V99.9998H96.8073V97.959Z" fill="white"/>
<path d="M98.8481 97.959H96.8073V99.9998H98.8481V97.959Z" fill="white"/>
<path d="M100.889 97.959H98.8481V99.9998H100.889V97.959Z" fill="white"/>
<path d="M10.2971 0H5.76647C3.55785 0 1.6871 1.46032 1.08846 3.45351C1.02724 3.65986 0.977351 3.87075 0.945605 4.08844C0.909324 4.32653 0.888916 4.57143 0.888916 4.82086V9.46032C0.888916 12.1202 3.07712 14.2834 5.76647 14.2834H8.03177H10.2971C12.9864 14.2834 15.1746 12.1202 15.1746 9.46032V4.82086C15.1746 2.16327 12.9864 0 10.2971 0ZM13.0318 9.46032C13.0318 10.9388 11.805 12.1406 10.2971 12.1406H8.03177H5.76647C4.25853 12.1406 3.03177 10.9388 3.03177 9.46032V4.82086C3.03177 4.35828 3.15195 3.92517 3.36284 3.54422C3.56465 3.17914 3.85263 2.86395 4.19731 2.62585C4.64175 2.31973 5.1837 2.14059 5.76647 2.14059H10.2971C11.805 2.14059 13.0318 3.3424 13.0318 4.81859V9.45805V9.46032Z" fill="white"/>
<path d="M96.0114 0H91.4808C89.2721 0 87.4014 1.45805 86.8028 3.45351C86.7415 3.65986 86.6916 3.87075 86.6599 4.08844C86.6236 4.32653 86.6032 4.57143 86.6032 4.82086V9.46032C86.6032 12.1202 88.7914 14.2834 91.4808 14.2834H93.7461H96.0114C98.7007 14.2834 100.889 12.1202 100.889 9.46032V4.82086C100.889 2.16327 98.7007 0 96.0114 0ZM98.7461 9.46032C98.7461 10.9388 97.5193 12.1406 96.0114 12.1406H93.7461H91.4808C89.9728 12.1406 88.7461 10.9388 88.7461 9.46032V4.82086C88.7461 4.35828 88.8662 3.92517 89.0771 3.54422C89.2789 3.17914 89.5669 2.86395 89.9116 2.62585C90.356 2.31973 90.898 2.14059 91.4808 2.14059H96.0114C97.5193 2.14059 98.7461 3.3424 98.7461 4.81859V9.45805V9.46032Z" fill="white"/>
<path d="M10.2971 85.7168H5.76647C3.55785 85.7168 1.6871 87.1748 1.08846 89.1703C1.02724 89.3767 0.977351 89.5875 0.945605 89.8052C0.909324 90.0433 0.888916 90.2882 0.888916 90.5377V95.1771C0.888916 97.837 3.07712 100 5.76647 100H8.03177H10.2971C12.9864 100 15.1746 97.837 15.1746 95.1771V90.5377C15.1746 87.8801 12.9864 85.7168 10.2971 85.7168ZM13.0318 95.1771C13.0318 96.6556 11.805 97.8574 10.2971 97.8574H8.03177H5.76647C4.25853 97.8574 3.03177 96.6556 3.03177 95.1771V90.5377C3.03177 90.0751 3.15195 89.642 3.36284 89.261C3.56465 88.8959 3.85263 88.5807 4.19731 88.3426C4.64175 88.0365 5.1837 87.8574 5.76647 87.8574H10.2971C11.805 87.8574 13.0318 89.0592 13.0318 90.5354V95.1748V95.1771Z" fill="white"/>
<path d="M6.644 10.2038C5.7211 10.2038 4.96826 9.46686 4.96826 8.56209V5.72082C4.96826 5.43738 5.04082 5.17207 5.17008 4.93851C5.29479 4.71402 5.4694 4.52128 5.68255 4.37615C5.95466 4.18794 6.28572 4.0791 6.644 4.0791H9.41951C10.3424 4.0791 11.093 4.8138 11.093 5.71856V8.55983C11.093 9.46459 10.3424 10.2016 9.41951 10.2016H6.64627L6.644 10.2038Z" fill="white"/>
<path d="M92.3583 10.2038C91.4354 10.2038 90.6826 9.46686 90.6826 8.56209V5.72082C90.6826 5.43738 90.7551 5.17207 90.8844 4.93851C91.0091 4.71402 91.1837 4.52128 91.3968 4.37615C91.669 4.18794 92 4.0791 92.3583 4.0791H95.1338C96.0567 4.0791 96.8073 4.8138 96.8073 5.71856V8.55983C96.8073 9.46459 96.0567 10.2016 95.1338 10.2016H92.3606L92.3583 10.2038Z" fill="white"/>
<path d="M6.644 95.9187C5.7211 95.9187 4.96826 95.1817 4.96826 94.2769V91.4357C4.96826 91.1522 5.04082 90.8869 5.17008 90.6534C5.29479 90.4289 5.4694 90.2361 5.68255 90.091C5.95466 89.9028 6.28572 89.7939 6.644 89.7939H9.41951C10.3424 89.7939 11.093 90.5286 11.093 91.4334V94.2747C11.093 95.1794 10.3424 95.9164 9.41951 95.9164H6.64627L6.644 95.9187Z" fill="white"/>
<path d="M59.9569 34.7959H41.8186C38.3742 34.7959 35.5805 37.5691 35.5805 40.9909V59.0068C35.5805 62.4286 38.3719 65.2018 41.8186 65.2018H59.9569C63.4014 65.2018 66.195 62.4286 66.195 59.0068V40.9909C66.195 37.5691 63.4036 34.7959 59.9569 34.7959Z" fill="white"/>
<path d="M43.6191 39.6732C43.3787 39.9295 43.2358 40.324 43.2358 40.8365V59.163C43.2358 59.6755 43.3787 60.07 43.6191 60.3263L43.6803 60.3852L53.9433 50.1199V49.8796L43.6803 39.6143L43.6191 39.6732Z" fill="#A6A6A6"/>
<mask id="mask0_751_9602" style="mask-type:luminance" maskUnits="userSpaceOnUse" x="53" y="46" width="10" height="8">
<path d="M53.9456 49.8801V50.1205L57.3674 53.5422L57.4445 53.4991L61.4989 51.1976C62.6576 50.54 62.6576 49.4629 61.4989 48.8053L57.4445 46.4991L57.3674 46.4561L53.9456 49.8801Z" fill="white"/>
</mask>
<g mask="url(#mask0_751_9602)">
<path d="M62.6576 46.4561H53.9456V53.5422H62.6576V46.4561Z" fill="#A6A6A6"/>
</g>
<mask id="mask1_751_9602" style="mask-type:luminance" maskUnits="userSpaceOnUse" x="43" y="50" width="15" height="11">
<path d="M43.6191 60.3265C44 60.7324 44.6304 60.7778 45.3402 60.3787L57.4445 53.4989L53.9456 50L43.6191 60.3265Z" fill="white"/>
</mask>
<g mask="url(#mask1_751_9602)">
<path d="M57.4445 50H43.6191V60.78H57.4445V50Z" fill="#68696D"/>
</g>
<path d="M43.6191 39.6738L53.9456 50.0004L57.4445 46.4992L45.3402 39.6217C45.0068 39.4335 44.6916 39.3428 44.4105 39.3428C44.093 39.3428 43.8209 39.4562 43.6191 39.6716" fill="#68696D"/>
<mask id="mask2_751_9602" style="mask-type:luminance" maskUnits="userSpaceOnUse" x="43" y="39" width="15" height="11">
<path d="M43.6191 39.6738L53.9456 50.0004L57.4445 46.4992L45.3402 39.6217C45.0068 39.4335 44.6916 39.3428 44.4105 39.3428C44.093 39.3428 43.8209 39.4562 43.6191 39.6716" fill="white"/>
</mask>
<g mask="url(#mask2_751_9602)">
<path d="M57.4445 39.2207H43.6191V50.0007H57.4445V39.2207Z" fill="#68696D"/>
</g>
</g>
<defs>
<clipPath id="clip0_751_9602">
<rect width="100" height="100" fill="white" transform="translate(0.888916)"/>
</clipPath>
</defs>
</svg>
