<svg width="280" height="45" viewBox="0 0 280 45" fill="none" xmlns="http://www.w3.org/2000/svg">
<g clip-path="url(#clip0_751_9513)">
<path d="M270.762 0H243.898C238.796 0 234.66 4.10486 234.66 9.16846V35.8315C234.66 40.8951 238.796 45 243.898 45H270.762C275.864 45 280 40.8951 280 35.8315V9.16846C280 4.10486 275.864 0 270.762 0Z" fill="white"/>
<path d="M240.765 10.1084H247.769V14.8401H240.765V10.1084ZM240.765 17.01H247.769V35.1528H240.765V17.01Z" fill="#1E1E1E"/>
<path d="M252.216 10.1084H263.801C266.085 10.1084 267.927 10.415 269.335 11.0322C270.739 11.6455 271.9 12.5306 272.819 13.6795C273.738 14.8285 274.403 16.1677 274.814 17.6931C275.228 19.2186 275.432 20.8373 275.432 22.5452C275.432 25.2197 275.123 27.2964 274.513 28.7714C273.899 30.2464 273.046 31.4808 271.955 32.4784C270.864 33.4759 269.694 34.1397 268.443 34.4697C266.734 34.9238 265.185 35.1528 263.797 35.1528H252.212V10.1084H252.216ZM260.015 15.7795V29.4623H261.923C263.554 29.4623 264.712 29.2838 265.4 28.9228C266.088 28.5657 266.628 27.9368 267.019 27.044C267.41 26.1513 267.606 24.6995 267.606 22.6966C267.606 20.0454 267.168 18.2288 266.3 17.2468C265.428 16.2686 263.98 15.7795 261.962 15.7795H260.019H260.015Z" fill="#1E1E1E"/>
<path d="M0 26.8657L7.41916 26.4038C7.57951 27.5994 7.90804 28.5116 8.40082 29.1365C9.20258 30.1496 10.3524 30.6581 11.8425 30.6581C12.9571 30.6581 13.8136 30.398 14.4159 29.8818C15.0182 29.3655 15.3194 28.7639 15.3194 28.0807C15.3194 27.3975 15.0339 26.8502 14.459 26.3378C13.884 25.8255 12.5543 25.3403 10.4658 24.8861C7.04762 24.1253 4.60715 23.1083 3.15226 21.8468C1.68173 20.5813 0.950372 18.9705 0.950372 17.0141C0.950372 15.7293 1.32583 14.5104 2.07674 13.3654C2.82765 12.2203 3.95793 11.3197 5.46757 10.6676C6.97722 10.0116 9.04614 9.68555 11.6704 9.68555C14.8931 9.68555 17.3531 10.2794 19.0466 11.4711C20.74 12.6628 21.7451 14.5531 22.0658 17.15L14.7171 17.5769C14.5215 16.4513 14.1109 15.6284 13.4851 15.116C12.8594 14.6036 11.995 14.3474 10.896 14.3474C9.98869 14.3474 9.30817 14.5376 8.84668 14.918C8.38909 15.2984 8.15834 15.7642 8.15834 16.3115C8.15834 16.7113 8.34607 17.0685 8.72543 17.3867C9.09307 17.7167 9.96522 18.0233 11.3419 18.3106C14.7484 19.0403 17.1888 19.7778 18.6633 20.5231C20.1377 21.2684 21.2093 22.1961 21.882 23.2985C22.5547 24.4009 22.8872 25.6391 22.8872 27.0055C22.8872 28.6125 22.4413 30.0914 21.5457 31.4461C20.6501 32.8008 19.3985 33.8294 17.795 34.5281C16.1876 35.2268 14.1617 35.5801 11.7213 35.5801C7.43089 35.5801 4.45854 34.761 2.80419 33.1191C1.15374 31.4771 0.215105 29.3966 0 26.8657Z" fill="white"/>
<path d="M26.0394 17.0101H32.5786V19.6574C33.5212 18.5511 34.4715 17.767 35.4297 17.3012C36.3879 16.8354 37.5456 16.6025 38.9027 16.6025C40.3615 16.6025 41.5152 16.8587 42.3678 17.3711C43.2165 17.8835 43.9127 18.6482 44.4524 19.6613C45.5514 18.4774 46.5565 17.67 47.46 17.243C48.3634 16.816 49.4819 16.6025 50.8117 16.6025C52.7711 16.6025 54.3003 17.1809 55.3993 18.3376C56.4983 19.4944 57.0497 21.3032 57.0497 23.7603V35.153H50.0295V24.82C50.0295 24.001 49.8691 23.3915 49.5484 22.9917C49.0791 22.3668 48.4964 22.0524 47.8002 22.0524C46.975 22.0524 46.314 22.3474 45.8095 22.9413C45.305 23.5352 45.0547 24.4862 45.0547 25.7943V35.1568H38.0305V25.1655C38.0305 24.3697 37.9836 23.8263 37.8937 23.5429C37.745 23.0888 37.483 22.72 37.1154 22.4405C36.7477 22.1611 36.3136 22.0213 35.8208 22.0213C35.0152 22.0213 34.3542 22.3241 33.8341 22.9258C33.3139 23.5313 33.0558 24.5211 33.0558 25.8991V35.1568H26.0355V17.014L26.0394 17.0101Z" fill="white"/>
<path d="M67.148 22.8869L60.4523 22.1882C60.7065 21.0276 61.0703 20.1116 61.5435 19.4478C62.0206 18.7801 62.7051 18.2018 63.6007 17.7127C64.2421 17.3595 65.126 17.0877 66.2523 16.8937C67.3748 16.6996 68.5911 16.6025 69.9013 16.6025C72.0015 16.6025 73.6871 16.719 74.9621 16.9519C76.2371 17.1848 77.297 17.6739 78.1457 18.4114C78.7441 18.9238 79.2134 19.6496 79.5576 20.589C79.9017 21.5284 80.0738 22.425 80.0738 23.279V31.2907C80.0738 32.1447 80.1286 32.8123 80.2381 33.2975C80.3476 33.7827 80.5861 34.3999 80.9538 35.1491H74.3794C74.1134 34.6833 73.9414 34.3262 73.8631 34.0816C73.781 33.8371 73.7028 33.4528 73.6207 32.9288C72.7016 33.806 71.7903 34.431 70.883 34.8075C69.6432 35.3082 68.2039 35.5605 66.5613 35.5605C64.3829 35.5605 62.7246 35.0598 61.5943 34.0583C60.4641 33.0569 59.9009 31.8225 59.9009 30.3514C59.9009 28.9734 60.3076 27.8399 61.1211 26.951C61.9346 26.0621 63.4403 25.4022 65.6305 24.9714C68.2587 24.4474 69.96 24.0786 70.7422 23.869C71.5244 23.6594 72.3496 23.3838 73.2217 23.0422C73.2217 22.1882 73.0418 21.5905 72.6898 21.2489C72.3339 20.9073 71.7082 20.7365 70.8126 20.7365C69.6666 20.7365 68.8062 20.9189 68.2313 21.2838C67.7855 21.5672 67.4217 22.1028 67.148 22.8908V22.8869ZM73.2217 26.5435C72.2596 26.885 71.2545 27.1878 70.2103 27.4479C68.7867 27.8244 67.8871 28.1932 67.5078 28.558C67.1167 28.9346 66.9211 29.3615 66.9211 29.839C66.9211 30.3863 67.1128 30.8327 67.496 31.182C67.8793 31.5314 68.4464 31.7022 69.1895 31.7022C69.9326 31.7022 70.6952 31.5159 71.3679 31.1393C72.0406 30.7628 72.5138 30.3048 72.7954 29.7652C73.077 29.2257 73.2178 28.5192 73.2178 27.6536V26.5435H73.2217Z" fill="white"/>
<path d="M83.8792 17.0101H90.4379V19.9835C91.0676 18.6986 91.7207 17.8097 92.3895 17.3284C93.0622 16.8432 93.8913 16.6025 94.8769 16.6025C95.8624 16.6025 97.0397 16.9208 98.2677 17.5574L96.101 22.5104C95.2758 22.1688 94.6227 21.998 94.1377 21.998C93.2186 21.998 92.5068 22.3746 92.0023 23.1237C91.2788 24.1834 90.9189 26.163 90.9189 29.0665V35.1491H83.8792V17.0062V17.0101Z" fill="white"/>
<path d="M108.659 10.1084V17.01H112.515V22.0988H108.659V28.5268C108.659 29.2993 108.734 29.8116 108.882 30.0601C109.113 30.4482 109.512 30.6384 110.087 30.6384C110.603 30.6384 111.327 30.4909 112.253 30.1959L112.77 34.9937C111.037 35.3702 109.418 35.5565 107.916 35.5565C106.172 35.5565 104.885 35.3352 104.06 34.8927C103.235 34.4502 102.625 33.7748 102.226 32.8704C101.831 31.966 101.631 30.5026 101.631 28.4764V22.0949H99.0499V17.0061H101.631V13.6756L108.651 10.1045L108.659 10.1084Z" fill="white"/>
<path d="M115.762 42.0506V17.0101H122.32V19.6923C123.228 18.5666 124.057 17.8019 124.816 17.4021C125.836 16.8665 126.967 16.5986 128.206 16.5986C130.651 16.5986 132.54 17.5263 133.877 19.3818C135.215 21.2372 135.884 23.5313 135.884 26.2678C135.884 29.2839 135.156 31.5896 133.697 33.1772C132.239 34.7648 130.397 35.5605 128.171 35.5605C127.092 35.5605 126.11 35.3781 125.218 35.0132C124.331 34.6483 123.533 34.1088 122.833 33.3907V42.0506H115.758H115.762ZM122.782 26.132C122.782 27.5682 123.087 28.6318 123.693 29.3266C124.299 30.0214 125.07 30.3669 126.001 30.3669C126.814 30.3669 127.499 30.033 128.05 29.3693C128.601 28.7016 128.875 27.5721 128.875 25.9767C128.875 24.5094 128.59 23.4303 128.015 22.7394C127.44 22.0524 126.74 21.7069 125.915 21.7069C125.019 21.7069 124.272 22.0562 123.677 22.7472C123.079 23.442 122.782 24.5677 122.782 26.1281V26.132Z" fill="white"/>
<path d="M138.977 10.1094H145.982V19.3322C146.932 18.354 147.879 17.6514 148.821 17.2322C149.764 16.813 150.875 16.5995 152.161 16.5995C154.066 16.5995 155.568 17.174 156.663 18.323C157.758 19.4719 158.305 21.2381 158.305 23.6175V35.146H151.266V25.1702C151.266 24.0329 151.054 23.2255 150.628 22.7519C150.202 22.2784 149.607 22.0416 148.837 22.0416C147.988 22.0416 147.3 22.3599 146.772 22.9965C146.244 23.6331 145.982 24.7781 145.982 26.4278V35.1383H138.977V10.1094Z" fill="white"/>
<path d="M161.16 26.132C161.16 23.3644 162.103 21.0858 163.984 19.2925C165.865 17.4992 168.407 16.6025 171.611 16.6025C175.271 16.6025 178.036 17.6545 179.906 19.7622C181.408 21.4585 182.162 23.5468 182.162 26.0311C182.162 28.822 181.232 31.1083 179.366 32.89C177.501 34.6716 174.923 35.5644 171.63 35.5644C168.693 35.5644 166.319 34.823 164.504 33.3441C162.279 31.512 161.164 29.1092 161.164 26.1359L161.16 26.132ZM168.181 26.1165C168.181 27.7351 168.509 28.9307 169.17 29.7031C169.831 30.4794 170.66 30.8637 171.658 30.8637C172.655 30.8637 173.496 30.4833 174.145 29.7186C174.794 28.9578 175.119 27.7312 175.119 26.0466C175.119 24.4745 174.79 23.3062 174.137 22.5376C173.484 21.769 172.674 21.3847 171.708 21.3847C170.688 21.3847 169.843 21.7729 169.178 22.5531C168.513 23.3333 168.181 24.5211 168.181 26.1165Z" fill="white"/>
<path d="M185.088 17.0101H191.611V19.964C192.585 18.7568 193.575 17.8951 194.572 17.375C195.569 16.8587 196.786 16.5986 198.221 16.5986C200.161 16.5986 201.678 17.1692 202.773 18.3143C203.868 19.4594 204.416 21.2256 204.416 23.6167V35.1452H197.376V25.1693C197.376 24.032 197.165 23.2246 196.739 22.7511C196.312 22.2775 195.718 22.0407 194.948 22.0407C194.099 22.0407 193.41 22.359 192.883 22.9956C192.355 23.6322 192.092 24.7773 192.092 26.427V35.1374H185.088V16.9946V17.0101Z" fill="white"/>
<path d="M228.422 27.805H214.377C214.502 28.9229 214.807 29.7536 215.289 30.297C215.965 31.0811 216.849 31.477 217.94 31.477C218.629 31.477 219.282 31.3062 219.904 30.9646C220.283 30.7473 220.69 30.3669 221.124 29.8195L228.027 30.4523C226.971 32.2727 225.696 33.5809 224.206 34.3727C222.716 35.1646 220.572 35.5605 217.788 35.5605C215.367 35.5605 213.462 35.2228 212.074 34.5435C210.685 33.8642 209.535 32.789 208.624 31.314C207.713 29.839 207.255 28.1039 207.255 26.1126C207.255 23.279 208.171 20.981 210.001 19.2304C211.831 17.4759 214.358 16.5986 217.58 16.5986C220.197 16.5986 222.262 16.9907 223.775 17.7787C225.289 18.5666 226.443 19.704 227.237 21.1945C228.027 22.6851 228.426 24.6298 228.426 27.0209V27.805H228.422ZM221.296 24.4745C221.159 23.1315 220.795 22.1688 220.205 21.5866C219.614 21.0043 218.836 20.7171 217.874 20.7171C216.759 20.7171 215.871 21.1557 215.206 22.0329C214.78 22.5803 214.51 23.3954 214.397 24.4745H221.3H221.296Z" fill="white"/>
</g>
<defs>
<clipPath id="clip0_751_9513">
<rect width="280" height="45" fill="white"/>
</clipPath>
</defs>
</svg>
