<svg width="240" height="48" viewBox="0 0 240 48" fill="none" xmlns="http://www.w3.org/2000/svg">
<circle cx="24" cy="24" r="24" fill="white"/>
<circle cx="152" cy="24" r="24" fill="white"/>
<circle cx="88" cy="24" r="24" fill="white"/>
<circle cx="216" cy="24" r="24" fill="white"/>
<path d="M94.0197 25.7456L94.7977 20.6837H89.9352V17.3946C89.9352 16.0106 90.612 14.6576 92.7905 14.6576H95V10.3421C93.7007 10.1322 92.3937 10.0156 91.0788 10C87.0721 10 84.4502 12.426 84.4502 16.8192V20.6837H80V25.7534H84.4502V38H89.9274V25.7534H94.0119L94.0197 25.7456Z" fill="#1E1E1E"/>
<path d="M209.397 36H204.426V19.9771H209.397V36ZM206.908 17.7905C205.309 17.7981 204 16.5105 204 14.9105C204 13.3105 205.279 12 206.877 12C208.476 12 209.777 13.28 209.785 14.88C209.785 16.48 208.499 17.7752 206.908 17.7905ZM228 36H223.037V28.1981C223.037 26.339 222.999 23.9543 220.449 23.9543C217.899 23.9543 217.465 25.9733 217.465 28.061V35.9924H212.502V19.9771H217.267V22.1638H217.336C218.31 20.4952 220.114 19.5048 222.04 19.5733C227.071 19.5733 227.992 22.8876 227.992 27.1924V36H227.985H228Z" fill="#1E1E1E"/>
<path d="M38.3827 17.2414C38.0388 15.9693 37.0229 14.9732 35.7257 14.6207C33.3892 14 24.0039 14 24.0039 14C24.0039 14 14.6187 14 12.2821 14.6207C10.9849 14.9655 9.969 15.9617 9.62516 17.2414C9 19.5479 9 24.3678 9 24.3678C9 24.3678 9 29.1877 9.62516 31.4943C9.97682 32.7586 10.9849 33.7395 12.2743 34.069C14.6108 34.6897 23.9961 34.6897 23.9961 34.6897C23.9961 34.6897 33.3813 34.6897 35.7179 34.069C37.0073 33.7395 38.0232 32.7586 38.3748 31.4943C39 29.1877 39 24.3678 39 24.3678C39 24.3678 39 19.5479 38.3748 17.2414H38.3827ZM20.9406 28.7433V20L28.7864 24.3755L20.9406 28.751V28.7433Z" fill="#1E1E1E"/>
<path d="M152 16.8168C148.039 16.8168 144.823 20.033 144.823 23.9956C144.823 27.9581 148.039 31.1744 152 31.1744C155.961 31.1744 159.177 27.9581 159.177 23.9956C159.177 20.0419 155.979 16.8256 152.027 16.8168C152.027 16.8168 152.009 16.8168 152 16.8168ZM152 28.66C149.424 28.66 147.337 26.5721 147.337 23.9956C147.337 21.419 149.424 19.3311 152 19.3311C154.576 19.3311 156.663 21.419 156.663 23.9956C156.663 26.5721 154.576 28.66 152 28.66ZM161.139 16.5236C161.139 17.4476 160.393 18.1939 159.47 18.1939C158.546 18.1939 157.8 17.4476 157.8 16.5236C157.8 15.5996 158.546 14.8532 159.47 14.8532C160.393 14.8532 161.139 15.5996 161.139 16.5147V16.5236ZM165.891 18.2294C165.936 16.0527 165.127 13.947 163.626 12.3655C162.045 10.8729 159.94 10.0644 157.773 10.1C155.464 9.96668 148.536 9.96668 146.227 10.1C144.051 10.0555 141.946 10.864 140.365 12.3567C138.873 13.9381 138.056 16.0438 138.1 18.2205C137.967 20.5305 137.967 27.4606 138.1 29.7706C138.056 31.9473 138.864 34.053 140.365 35.6345C141.946 37.1271 144.051 37.9356 146.227 37.9C148.536 38.0333 155.464 38.0333 157.773 37.9C159.949 37.9445 162.054 37.136 163.635 35.6345C165.127 34.053 165.936 31.9473 165.9 29.7706C166.033 27.4606 166.033 20.5394 165.9 18.2294H165.891ZM162.907 32.2494C162.427 33.4666 161.459 34.435 160.242 34.9148C158.404 35.6433 154.025 35.4745 151.991 35.4745C149.957 35.4745 145.578 35.6345 143.74 34.9148C142.523 34.435 141.555 33.4666 141.075 32.2494C140.347 30.4103 140.516 26.0301 140.516 23.9956C140.516 21.961 140.356 17.5808 141.075 15.7417C141.555 14.5245 142.523 13.5561 143.74 13.0763C145.578 12.3478 149.957 12.5166 151.991 12.5166C154.025 12.5166 158.404 12.3567 160.242 13.0763C161.459 13.5561 162.427 14.5245 162.907 15.7417C163.635 17.5808 163.466 21.961 163.466 23.9956C163.466 26.0301 163.635 30.4103 162.907 32.2494Z" fill="#1E1E1E"/>
</svg>
